<?xml version="1.0" encoding="utf-8"?>
<!-- Generator: Adobe Illustrator 16.0.0, SVG Export Plug-In . SVG Version: 6.00 Build 0)  -->
<!DOCTYPE svg PUBLIC "-//W3C//DTD SVG 1.1//EN" "http://www.w3.org/Graphics/SVG/1.1/DTD/svg11.dtd">
<svg version="1.1" id="图层_1" xmlns="http://www.w3.org/2000/svg" xmlns:xlink="http://www.w3.org/1999/xlink" x="0px" y="0px"
	 width="100px" height="50px" viewBox="0 0 100 50" enable-background="new 0 0 100 50" xml:space="preserve">
<g>
	<g>
		<path fill="#A7A9AC" d="M46.745,23.208l-0.042,0.026c0.102,0.587,0.832,1.044,1.724,1.044c0.96,0,1.733-0.526,1.733-1.174
			c0-0.001,0-0.003,0-0.006C48.648,23.875,47.238,23.447,46.745,23.208z"/>
		<path fill="#D1D3D4" d="M46.635,23.246l-0.009-0.044l0.11-0.078l0.034,0.018c0.162,0.078,0.748,0.329,1.563,0.329
			c0.629,0,1.232-0.146,1.792-0.436l0.103-0.048v0.119c0,0.688-0.807,1.248-1.801,1.248C47.51,24.353,46.736,23.875,46.635,23.246z
			 M48.333,23.618c-0.739,0-1.291-0.201-1.537-0.304c0.153,0.513,0.824,0.891,1.631,0.891c0.85,0,1.555-0.43,1.648-0.984
			C49.523,23.484,48.937,23.618,48.333,23.618z"/>
	</g>
	<g>
		<g>
			<rect x="2.519" y="33.71" fill="#221F20" width="3.406" height="1.466"/>
			<rect x="2.705" y="33.874" fill="#424042" width="3.033" height="1.139"/>
			<ellipse fill="#58595B" cx="2.229" cy="34.469" rx="1.138" ry="1.155"/>
			<path fill="#939498" d="M2.229,35.387c0.501,0,0.901-0.411,0.901-0.918s-0.399-0.92-0.901-0.92c-0.501,0-0.909,0.413-0.909,0.92
				S1.728,35.387,2.229,35.387z"/>
			<path fill="#D1D3D4" d="M2.229,35.241c0.417,0,0.756-0.347,0.756-0.772c0-0.427-0.34-0.772-0.756-0.772
				c-0.416,0-0.764,0.346-0.764,0.772C1.465,34.895,1.813,35.241,2.229,35.241z"/>
		</g>
		<g>
			<path fill="#424042" d="M44.97,9.084l3.058-0.027c-0.06-0.076-1.478-1.691-5.3-1.874C39.092,7.01,26.837,6.635,20.645,6.527
				c-2.005-0.034-3.619,0.284-4.655,1.881l3.423,0.106c0.076-0.75,0.875-1.26,2.752-1.227c6.184,0.108,16.502,0.336,20.129,0.474
				C44.919,7.898,44.953,9.069,44.97,9.084z"/>
			<path fill="#58595B" d="M47.535,8.866c-0.611-0.478-2.081-1.357-4.816-1.488C39.084,7.205,26.828,6.83,20.636,6.723
				c-0.084-0.001-0.178-0.002-0.263-0.002c-1.997,0-3.193,0.441-4.018,1.505l2.905,0.09c0.145-0.596,0.765-1.224,2.727-1.224
				c0.06,0,0.119,0,0.179,0.001c5.887,0.103,16.392,0.332,20.138,0.474c2.115,0.109,2.675,0.872,2.811,1.32L47.535,8.866z"/>
			<path fill="#6D6E71" d="M45.25,8.69c-0.136-0.307-0.441-0.694-1.138-0.973c1.317,0.216,2.217,0.61,2.803,0.959L45.25,8.69z
				 M16.771,8.042c0.764-0.785,1.877-1.126,3.601-1.126c0.085,0,0.17,0,0.263,0.003c0.204,0.002,0.408,0.007,0.621,0.011
				c-1.411,0.138-1.954,0.678-2.141,1.186L16.771,8.042z"/>
		</g>
		<polygon fill="#040000" points="11.887,36.844 88.493,36.259 87.916,25.385 11.887,26.167 		"/>
		<g>
			<g>
				<g>
					<path fill="#232424" d="M79.201,29.02c-4.077,0-7.39,3.368-7.39,7.51c0,4.143,3.313,7.512,7.39,7.512
						c4.068,0,7.39-3.369,7.39-7.512C86.591,32.388,83.27,29.02,79.201,29.02z M79.201,32.515c2.175,0,3.949,1.802,3.949,4.015
						c0,2.215-1.774,4.016-3.949,4.016c-2.184,0-3.95-1.801-3.95-4.016C75.251,34.316,77.018,32.515,79.201,32.515z"/>
					<path fill="#232424" d="M82.615,36.529c0,1.916-1.537,3.473-3.414,3.473c-1.886,0-3.415-1.557-3.415-3.473
						c0-1.914,1.529-3.471,3.415-3.471C81.078,33.059,82.615,34.615,82.615,36.529z"/>
				</g>
				<path fill="#373638" d="M79.201,29.211c-3.976,0-7.203,3.282-7.203,7.318s3.228,7.32,7.203,7.32c3.966,0,7.203-3.284,7.203-7.32
					S83.167,29.211,79.201,29.211z M79.201,31.234c2.87,0,5.207,2.375,5.207,5.295c0,2.919-2.337,5.297-5.207,5.297
					c-2.871,0-5.216-2.378-5.216-5.297C73.985,33.609,76.33,31.234,79.201,31.234z"/>
				<path fill="#484A4C" d="M79.201,29.491c3.813,0,6.923,3.157,6.923,7.038s-3.109,7.038-6.923,7.038
					c-3.822,0-6.923-3.157-6.923-7.038S75.379,29.491,79.201,29.491z M79.201,30.873c-3.075,0-5.563,2.536-5.563,5.656
					s2.488,5.658,5.563,5.658c3.066,0,5.563-2.538,5.563-5.658S82.268,30.873,79.201,30.873z"/>
				<path fill="#F1F2F1" d="M79.201,31.623c-2.667,0-4.834,2.2-4.834,4.906c0,2.705,2.167,4.907,4.834,4.907
					c2.658,0,4.824-2.202,4.824-4.907C84.025,33.823,81.859,31.623,79.201,31.623z M79.201,32.515c2.175,0,3.949,1.802,3.949,4.015
					c0,2.215-1.774,4.016-3.949,4.016c-2.184,0-3.95-1.801-3.95-4.016C75.251,34.316,77.018,32.515,79.201,32.515z"/>
				<g>
					
						<radialGradient id="SVGID_1_" cx="13.3086" cy="1103.543" r="6.8376" gradientTransform="matrix(0 -0.7659 -0.7535 0 910.7035 46.7242)" gradientUnits="userSpaceOnUse">
						<stop  offset="0.5744" style="stop-color:#120C0E"/>
						<stop  offset="0.7977" style="stop-color:#120C0E"/>
						<stop  offset="1" style="stop-color:#120C0E"/>
					</radialGradient>
					<path fill="url(#SVGID_1_)" d="M79.201,31.293c-2.846,0-5.156,2.35-5.156,5.236c0,2.888,2.311,5.238,5.156,5.238
						c2.837,0,5.147-2.351,5.147-5.238C84.349,33.643,82.038,31.293,79.201,31.293z M79.201,32.515c2.175,0,3.949,1.802,3.949,4.015
						c0,2.215-1.774,4.016-3.949,4.016c-2.184,0-3.95-1.801-3.95-4.016C75.251,34.316,77.018,32.515,79.201,32.515z"/>
					<path fill="#6D6E71" d="M82.615,36.529c0,1.916-1.537,3.473-3.414,3.473c-1.886,0-3.415-1.557-3.415-3.473
						c0-1.914,1.529-3.471,3.415-3.471C81.078,33.059,82.615,34.615,82.615,36.529z"/>
				</g>
				<path fill="#56575A" d="M79.201,29.854c3.618,0,6.565,2.995,6.565,6.676s-2.947,6.678-6.565,6.678
					c-3.627,0-6.566-2.997-6.566-6.678S75.574,29.854,79.201,29.854z M79.201,30.51c-3.271,0-5.921,2.701-5.921,6.02
					c0,3.319,2.65,6.02,5.921,6.02c3.261,0,5.92-2.7,5.92-6.02C85.121,33.211,82.462,30.51,79.201,30.51z"/>
				<g>
					<path fill="#BCBEC0" d="M79.201,31.881c-2.523,0-4.578,2.085-4.578,4.648s2.055,4.648,4.578,4.648
						c2.522,0,4.569-2.085,4.569-4.648S81.724,31.881,79.201,31.881z M79.201,32.515c2.175,0,3.949,1.802,3.949,4.015
						c0,2.215-1.774,4.016-3.949,4.016c-2.184,0-3.95-1.801-3.95-4.016C75.251,34.316,77.018,32.515,79.201,32.515z"/>
					<path fill="#6D6E71" d="M74.563,36.529c0-2.598,2.081-4.709,4.638-4.709s4.629,2.111,4.629,4.709s-2.072,4.709-4.629,4.709
						S74.563,39.127,74.563,36.529z M74.682,36.529c0,2.529,2.03,4.59,4.52,4.59c2.488,0,4.51-2.061,4.51-4.59
						c0-2.53-2.021-4.588-4.51-4.588C76.712,31.941,74.682,33.999,74.682,36.529z M75.191,36.529c0-2.247,1.801-4.075,4.01-4.075
						c2.208,0,4.009,1.828,4.009,4.075c0,2.248-1.801,4.076-4.009,4.076C76.992,40.605,75.191,38.777,75.191,36.529z M75.311,36.529
						c0,2.181,1.741,3.956,3.891,3.956c2.141,0,3.891-1.775,3.891-3.956c0-2.18-1.75-3.954-3.891-3.954
						C77.052,32.575,75.311,34.35,75.311,36.529z"/>
				</g>
				<g>
					<path fill="#939498" d="M79.176,32.787c0.561-0.047,1.096,0.12,1.605,0.367c0.535,0.264,1.036,0.641,1.367,1.148
						c0.033,0.045,0.076,0.128,0.076,0.207c0,0.175-0.136,0.317-0.314,0.317c-0.136,0-0.229-0.109-0.289-0.231
						c-0.221-0.428-0.67-0.688-1.096-0.896c-0.433-0.208-0.781-0.283-1.376-0.307c-0.084-0.005-0.212-0.061-0.194-0.302
						C78.972,32.819,79.082,32.794,79.176,32.787z"/>
					<path fill="#D1D3D4" d="M81.537,34.641c-0.204-0.396-0.629-0.645-1.054-0.853c-0.416-0.2-0.747-0.277-1.334-0.298
						c-0.084-0.005-0.161-0.037-0.212-0.097c-0.06-0.072-0.093-0.177-0.085-0.311c0.025-0.327,0.187-0.383,0.323-0.395
						c0.518-0.043,1.027,0.078,1.647,0.379c0.611,0.299,1.096,0.706,1.41,1.181c0.042,0.063,0.085,0.16,0.085,0.262
						c0,0.229-0.179,0.414-0.408,0.414C81.758,34.924,81.63,34.829,81.537,34.641z M79.185,32.885
						c-0.06,0.004-0.119,0.01-0.137,0.212c-0.009,0.078,0.009,0.134,0.034,0.166c0.025,0.024,0.051,0.031,0.076,0.031
						c0.611,0.025,0.969,0.104,1.41,0.318c0.458,0.223,0.909,0.49,1.139,0.939c0.076,0.159,0.152,0.178,0.203,0.178
						c0.119,0,0.221-0.1,0.221-0.22c0-0.041-0.025-0.099-0.06-0.154c-0.288-0.444-0.755-0.828-1.333-1.112
						c-0.518-0.249-0.951-0.367-1.376-0.367C79.303,32.876,79.243,32.879,79.185,32.885z"/>
				</g>
				<path fill="#D1D3D4" d="M79.201,31.479c2.735,0,4.969,2.266,4.969,5.051c0,2.786-2.233,5.053-4.969,5.053
					c-2.744,0-4.969-2.267-4.969-5.053C74.232,33.744,76.457,31.479,79.201,31.479z M77.646,35.856
					c0.06-0.139,0.127-0.267,0.221-0.385l-1.47-2.42c-0.823,0.682-1.367,1.623-1.554,2.677L77.646,35.856z M77.91,37.641
					c-0.103-0.121-0.179-0.251-0.247-0.395l-2.812,0.127c0.196,1.027,0.723,1.945,1.521,2.619L77.91,37.641z M79.481,38.223
					c-0.094,0.019-0.187,0.028-0.28,0.028c-0.076,0-0.145-0.005-0.222-0.015l-1.214,2.55c0.467,0.165,0.951,0.249,1.436,0.249
					c0.492,0,0.977-0.087,1.452-0.254L79.481,38.223z M79.065,34.816c0.042-0.002,0.093-0.005,0.136-0.005
					c0.051,0,0.11,0.003,0.161,0.008l1.266-2.549c-0.467-0.163-0.942-0.246-1.427-0.246c-0.467,0-0.935,0.078-1.394,0.233
					L79.065,34.816z M82.038,39.979c0.79-0.676,1.325-1.596,1.512-2.624l-2.777-0.211c-0.06,0.158-0.137,0.307-0.238,0.44
					L82.038,39.979z M83.558,35.74c-0.187-1.044-0.722-1.981-1.52-2.665l-1.486,2.423c0.093,0.126,0.17,0.264,0.221,0.412
					L83.558,35.74z"/>
				<path fill="#E6E7E8" d="M79.201,31.623c-2.667,0-4.834,2.2-4.834,4.906c0,2.705,2.167,4.907,4.834,4.907
					c2.658,0,4.824-2.202,4.824-4.907C84.025,33.823,81.859,31.623,79.201,31.623z M79.201,34.956c-0.06,0-0.111,0.005-0.17,0.012
					l-0.043,0.006l-1.385-2.798c0.502-0.188,1.037-0.295,1.598-0.295c0.568,0,1.121,0.111,1.622,0.31l-1.376,2.786l-0.051-0.006
					C79.328,34.961,79.269,34.956,79.201,34.956z M83.72,35.874l-3.041,0.188l-0.017-0.053c-0.06-0.169-0.145-0.324-0.255-0.462
					l-0.034-0.039l1.622-2.648C82.913,33.584,83.55,34.654,83.72,35.874z M82.004,40.193l-1.648-2.621l0.035-0.04
					c0.118-0.146,0.212-0.31,0.271-0.487l0.017-0.054l3.041,0.231C83.541,38.425,82.904,39.476,82.004,40.193z M79.201,41.178
					c-0.577,0-1.13-0.111-1.64-0.312l1.334-2.791l0.06,0.01c0.076,0.015,0.161,0.021,0.246,0.021c0.102,0,0.204-0.012,0.306-0.035
					l0.06-0.011l1.282,2.803C80.331,41.063,79.779,41.178,79.201,41.178z M74.682,37.236l3.075-0.141l0.017,0.046
					c0.068,0.165,0.162,0.314,0.28,0.445l0.034,0.041l-1.682,2.575C75.498,39.488,74.868,38.439,74.682,37.236z M76.432,32.835
					l1.614,2.647l-0.034,0.041c-0.11,0.129-0.195,0.275-0.255,0.434l-0.017,0.049l-3.066-0.141
					C74.852,34.634,75.498,33.559,76.432,32.835z"/>
				<path fill="#FFFFFF" d="M79.201,31.695c2.625,0,4.757,2.169,4.757,4.834s-2.132,4.834-4.757,4.834s-4.757-2.169-4.757-4.834
					S76.576,31.695,79.201,31.695z M78.131,35.488l-1.683-2.759l-0.059,0.049c-0.978,0.756-1.605,1.85-1.783,3.077l-0.01,0.079
					l3.186,0.146l0.043-0.098c0.059-0.15,0.136-0.291,0.237-0.412L78.131,35.488z M78.182,37.621l-0.076-0.083
					c-0.111-0.126-0.204-0.267-0.264-0.423L77.8,37.022l-3.203,0.144l0.018,0.081c0.179,1.198,0.798,2.267,1.75,3.013l0.06,0.048
					L78.182,37.621z M80.942,40.902l-1.334-2.926L79.498,38c-0.102,0.021-0.203,0.033-0.297,0.033c-0.076,0-0.162-0.007-0.238-0.021
					l-0.102-0.019l-1.393,2.912l0.067,0.027c0.544,0.21,1.104,0.318,1.665,0.318c0.568,0,1.13-0.108,1.673-0.322L80.942,40.902z
					 M80.925,32.149l-0.067-0.026c-0.544-0.209-1.097-0.315-1.656-0.315c-0.553,0-1.096,0.101-1.614,0.301l-0.076,0.028l1.436,2.915
					l0.093-0.013c0.051-0.007,0.11-0.013,0.162-0.013c0.059,0,0.118,0.006,0.187,0.016l0.094,0.014L80.925,32.149z M83.797,37.155
					l-3.169-0.241l-0.034,0.105c-0.06,0.172-0.144,0.328-0.263,0.466l-0.06,0.082l1.716,2.732l0.06-0.049
					c0.942-0.749,1.563-1.821,1.741-3.018L83.797,37.155z M83.805,35.943l-0.008-0.079c-0.17-1.216-0.799-2.302-1.759-3.062
					l-0.06-0.05l-1.69,2.761l0.06,0.08c0.11,0.131,0.187,0.279,0.246,0.44l0.034,0.104L83.805,35.943z"/>
				<path fill="#E6E7E8" d="M78.453,36.529c0-0.417,0.332-0.756,0.748-0.756c0.407,0,0.739,0.339,0.739,0.756
					c0,0.419-0.332,0.758-0.739,0.758C78.785,37.287,78.453,36.948,78.453,36.529z"/>
				<path fill="#6D6E71" d="M78.768,36.529c0-0.241,0.188-0.44,0.434-0.44c0.237,0,0.433,0.199,0.433,0.44
					c0,0.243-0.195,0.442-0.433,0.442C78.955,36.972,78.768,36.772,78.768,36.529z"/>
				<path fill="#A7A9AC" d="M78.793,36.529c0-0.226,0.179-0.409,0.408-0.409c0.221,0,0.398,0.184,0.398,0.409
					s-0.178,0.411-0.398,0.411C78.972,36.94,78.793,36.755,78.793,36.529z"/>
				<path fill="#BCBEC0" d="M78.869,36.529c0-0.182,0.146-0.331,0.332-0.331c0.178,0,0.322,0.149,0.322,0.331
					c0,0.185-0.145,0.331-0.322,0.331C79.015,36.86,78.869,36.714,78.869,36.529z"/>
				<path fill="#D1D3D4" d="M78.988,36.529c0-0.116,0.094-0.211,0.213-0.211c0.11,0,0.204,0.095,0.204,0.211
					c0,0.118-0.094,0.215-0.204,0.215C79.082,36.744,78.988,36.647,78.988,36.529z"/>
				<g>
					<circle fill="#6D6E71" cx="78.793" cy="35.64" r="0.204"/>
					<path fill="#939498" d="M78.615,35.64c0-0.101,0.076-0.183,0.178-0.183c0.103,0,0.179,0.082,0.179,0.183
						s-0.076,0.183-0.179,0.183C78.691,35.822,78.615,35.74,78.615,35.64z"/>
					<path fill="#BCBEC0" d="M78.657,35.64c0-0.078,0.06-0.143,0.136-0.143s0.145,0.064,0.145,0.143
						c0,0.079-0.068,0.143-0.145,0.143S78.657,35.719,78.657,35.64z"/>
					<path fill="#D1D3D4" d="M78.708,35.64c0-0.048,0.043-0.088,0.085-0.088c0.052,0,0.085,0.04,0.085,0.088
						c0,0.049-0.033,0.088-0.085,0.088C78.751,35.728,78.708,35.688,78.708,35.64z"/>
				</g>
				<g>
					<circle fill="#6D6E71" cx="79.686" cy="37.369" r="0.204"/>
					<path fill="#939498" d="M79.507,37.369c0-0.101,0.076-0.183,0.179-0.183c0.102,0,0.178,0.082,0.178,0.183
						c0,0.103-0.076,0.185-0.178,0.185C79.583,37.554,79.507,37.472,79.507,37.369z"/>
					<path fill="#BCBEC0" d="M79.54,37.369c0-0.077,0.068-0.143,0.146-0.143c0.075,0,0.135,0.065,0.135,0.143
						c0,0.079-0.06,0.145-0.135,0.145C79.608,37.514,79.54,37.448,79.54,37.369z"/>
					<path fill="#D1D3D4" d="M79.6,37.369c0-0.047,0.034-0.086,0.086-0.086c0.042,0,0.084,0.039,0.084,0.086
						c0,0.049-0.042,0.088-0.084,0.088C79.634,37.457,79.6,37.418,79.6,37.369z"/>
				</g>
				<g>
					<circle fill="#6D6E71" cx="80.152" cy="36.545" r="0.204"/>
					<path fill="#939498" d="M79.974,36.545c0-0.101,0.077-0.182,0.179-0.182c0.093,0,0.179,0.081,0.179,0.182
						c0,0.103-0.086,0.185-0.179,0.185C80.051,36.729,79.974,36.647,79.974,36.545z"/>
					<path fill="#BCBEC0" d="M80.008,36.545c0-0.079,0.068-0.142,0.145-0.142s0.136,0.063,0.136,0.142s-0.06,0.143-0.136,0.143
						S80.008,36.624,80.008,36.545z"/>
					<path fill="#D1D3D4" d="M80.067,36.545c0-0.047,0.034-0.086,0.085-0.086c0.042,0,0.085,0.039,0.085,0.086
						c0,0.049-0.043,0.088-0.085,0.088C80.102,36.633,80.067,36.594,80.067,36.545z"/>
				</g>
				<g>
					<path fill="#6D6E71" d="M79.464,35.679c0-0.115,0.085-0.209,0.205-0.209c0.11,0,0.202,0.094,0.202,0.209
						s-0.092,0.21-0.202,0.21C79.549,35.889,79.464,35.794,79.464,35.679z"/>
					<path fill="#939498" d="M79.481,35.679c0-0.1,0.085-0.182,0.188-0.182c0.092,0,0.178,0.082,0.178,0.182
						c0,0.102-0.086,0.184-0.178,0.184C79.566,35.862,79.481,35.78,79.481,35.679z"/>
					<path fill="#BCBEC0" d="M79.523,35.68c0-0.079,0.068-0.143,0.146-0.143c0.075,0,0.135,0.063,0.135,0.143
						c0,0.078-0.06,0.143-0.135,0.143C79.592,35.822,79.523,35.758,79.523,35.68z"/>
					<path fill="#D1D3D4" d="M79.583,35.68c0-0.048,0.034-0.088,0.086-0.088c0.041,0,0.084,0.04,0.084,0.088
						c0,0.049-0.043,0.088-0.084,0.088C79.617,35.768,79.583,35.729,79.583,35.68z"/>
				</g>
				<g>
					<circle fill="#6D6E71" cx="78.241" cy="36.535" r="0.204"/>
					<path fill="#939498" d="M78.063,36.535c0-0.101,0.077-0.183,0.179-0.183c0.093,0,0.179,0.082,0.179,0.183
						c0,0.102-0.086,0.185-0.179,0.185C78.14,36.72,78.063,36.637,78.063,36.535z"/>
					<path fill="#BCBEC0" d="M78.097,36.535c0-0.077,0.067-0.143,0.145-0.143c0.076,0,0.136,0.065,0.136,0.143
						c0,0.079-0.06,0.143-0.136,0.143C78.164,36.678,78.097,36.614,78.097,36.535z"/>
					<path fill="#D1D3D4" d="M78.156,36.535c0-0.048,0.034-0.086,0.085-0.086c0.042,0,0.085,0.038,0.085,0.086
						c0,0.049-0.043,0.088-0.085,0.088C78.19,36.623,78.156,36.584,78.156,36.535z"/>
				</g>
				<g>
					<path fill="#6D6E71" d="M78.487,37.35c0-0.115,0.094-0.209,0.204-0.209c0.119,0,0.213,0.094,0.213,0.209
						c0,0.114-0.094,0.208-0.213,0.208C78.581,37.558,78.487,37.464,78.487,37.35z"/>
					<path fill="#939498" d="M78.514,37.35c0-0.1,0.084-0.184,0.178-0.184c0.102,0,0.187,0.084,0.187,0.184
						c0,0.102-0.085,0.183-0.187,0.183C78.598,37.532,78.514,37.451,78.514,37.35z"/>
					<path fill="#BCBEC0" d="M78.555,37.35c0-0.078,0.061-0.143,0.137-0.143s0.145,0.064,0.145,0.143s-0.068,0.144-0.145,0.144
						S78.555,37.428,78.555,37.35z"/>
					<path fill="#D1D3D4" d="M78.606,37.35c0-0.048,0.042-0.087,0.085-0.087c0.051,0,0.094,0.039,0.094,0.087
						c0,0.049-0.043,0.088-0.094,0.088C78.648,37.438,78.606,37.398,78.606,37.35z"/>
				</g>
			</g>
			<g>
				<g>
					<g>
						<polygon fill="#808285" points="81.588,40.512 79.957,37.868 81.333,40.655 						"/>
					</g>
				</g>
				<g>
					<g>
						<polygon fill="#808285" points="76.898,32.551 78.538,35.191 77.154,32.406 						"/>
					</g>
				</g>
			</g>
			<g>
				<g>
					<g>
						<polygon fill="#808285" points="77.052,40.646 78.453,37.871 76.806,40.501 						"/>
					</g>
				</g>
				<g>
					<g>
						<polygon fill="#808285" points="81.282,32.473 79.914,35.266 81.528,32.615 						"/>
					</g>
				</g>
			</g>
			<g>
				<g>
					<g>
						<polygon fill="#808285" points="74.623,36.705 77.689,36.545 74.623,36.413 						"/>
					</g>
				</g>
				<g>
					<g>
						<polygon fill="#808285" points="83.788,36.364 80.722,36.497 83.788,36.656 						"/>
					</g>
				</g>
			</g>
		</g>
		<g>
			<g>
				<g>
					<path fill="#232424" d="M21.358,29.02c-4.078,0-7.39,3.368-7.39,7.51c0,4.143,3.313,7.512,7.39,7.512
						c4.077,0,7.39-3.369,7.39-7.512C28.748,32.388,25.435,29.02,21.358,29.02z M21.358,32.515c2.174,0,3.95,1.802,3.95,4.015
						c0,2.215-1.775,4.016-3.95,4.016c-2.184,0-3.95-1.801-3.95-4.016C17.408,34.316,19.174,32.515,21.358,32.515z"/>
					<path fill="#232424" d="M24.773,36.529c0,1.916-1.529,3.473-3.415,3.473c-1.886,0-3.415-1.557-3.415-3.473
						c0-1.914,1.528-3.471,3.415-3.471C23.244,33.059,24.773,34.615,24.773,36.529z"/>
				</g>
				<path fill="#373638" d="M21.358,29.211c-3.975,0-7.203,3.282-7.203,7.318s3.228,7.32,7.203,7.32c3.967,0,7.203-3.284,7.203-7.32
					S25.325,29.211,21.358,29.211z M21.358,31.234c2.871,0,5.207,2.375,5.207,5.295c0,2.919-2.335,5.297-5.207,5.297
					c-2.871,0-5.207-2.378-5.207-5.297C16.151,33.609,18.487,31.234,21.358,31.234z"/>
				<path fill="#484A4C" d="M21.358,29.491c3.813,0,6.922,3.157,6.922,7.038s-3.109,7.038-6.922,7.038
					c-3.822,0-6.923-3.157-6.923-7.038S17.536,29.491,21.358,29.491z M21.358,30.873c-3.066,0-5.564,2.536-5.564,5.656
					s2.498,5.658,5.564,5.658c3.066,0,5.563-2.538,5.563-5.658S24.424,30.873,21.358,30.873z"/>
				<path fill="#F1F2F1" d="M21.358,31.623c-2.667,0-4.833,2.2-4.833,4.906c0,2.705,2.166,4.907,4.833,4.907
					c2.658,0,4.825-2.202,4.825-4.907C26.183,33.823,24.016,31.623,21.358,31.623z M21.358,32.515c2.174,0,3.95,1.802,3.95,4.015
					c0,2.215-1.775,4.016-3.95,4.016c-2.184,0-3.95-1.801-3.95-4.016C17.408,34.316,19.174,32.515,21.358,32.515z"/>
				<g>
					
						<radialGradient id="SVGID_2_" cx="13.3086" cy="1180.3096" r="6.8376" gradientTransform="matrix(0 -0.7659 -0.7535 0 910.7035 46.7242)" gradientUnits="userSpaceOnUse">
						<stop  offset="0.5744" style="stop-color:#120C0E"/>
						<stop  offset="0.7977" style="stop-color:#120C0E"/>
						<stop  offset="1" style="stop-color:#120C0E"/>
					</radialGradient>
					<path fill="url(#SVGID_2_)" d="M21.358,31.293c-2.846,0-5.156,2.35-5.156,5.236c0,2.888,2.311,5.238,5.156,5.238
						c2.837,0,5.147-2.351,5.147-5.238C26.505,33.643,24.195,31.293,21.358,31.293z M21.358,32.515c2.174,0,3.95,1.802,3.95,4.015
						c0,2.215-1.775,4.016-3.95,4.016c-2.184,0-3.95-1.801-3.95-4.016C17.408,34.316,19.174,32.515,21.358,32.515z"/>
					<path fill="#6D6E71" d="M24.773,36.529c0,1.916-1.529,3.473-3.415,3.473c-1.886,0-3.415-1.557-3.415-3.473
						c0-1.914,1.528-3.471,3.415-3.471C23.244,33.059,24.773,34.615,24.773,36.529z"/>
				</g>
				<path fill="#56575A" d="M21.358,29.854c3.619,0,6.565,2.995,6.565,6.676s-2.947,6.678-6.565,6.678
					c-3.618,0-6.566-2.997-6.566-6.678S17.74,29.854,21.358,29.854z M21.358,30.51c-3.27,0-5.92,2.701-5.92,6.02
					c0,3.319,2.65,6.02,5.92,6.02c3.262,0,5.92-2.7,5.92-6.02C27.278,33.211,24.62,30.51,21.358,30.51z"/>
				<g>
					<path fill="#BCBEC0" d="M21.358,31.881c-2.522,0-4.579,2.085-4.579,4.648s2.056,4.648,4.579,4.648
						c2.523,0,4.57-2.085,4.57-4.648S23.881,31.881,21.358,31.881z M21.358,32.515c2.174,0,3.95,1.802,3.95,4.015
						c0,2.215-1.775,4.016-3.95,4.016c-2.184,0-3.95-1.801-3.95-4.016C17.408,34.316,19.174,32.515,21.358,32.515z"/>
					<path fill="#6D6E71" d="M16.72,36.529c0-2.598,2.082-4.709,4.638-4.709s4.629,2.111,4.629,4.709s-2.072,4.709-4.629,4.709
						S16.72,39.127,16.72,36.529z M16.839,36.529c0,2.529,2.03,4.59,4.519,4.59c2.488,0,4.51-2.061,4.51-4.59
						c0-2.53-2.022-4.588-4.51-4.588C18.869,31.941,16.839,33.999,16.839,36.529z M17.349,36.529c0-2.247,1.8-4.075,4.009-4.075
						c2.208,0,4.009,1.828,4.009,4.075c0,2.248-1.801,4.076-4.009,4.076C19.149,40.605,17.349,38.777,17.349,36.529z M17.467,36.529
						c0,2.181,1.742,3.956,3.891,3.956c2.14,0,3.89-1.775,3.89-3.956c0-2.18-1.75-3.954-3.89-3.954
						C19.209,32.575,17.467,34.35,17.467,36.529z"/>
				</g>
				<g>
					<path fill="#939498" d="M21.341,32.787c0.552-0.047,1.087,0.12,1.597,0.367c0.544,0.264,1.045,0.641,1.368,1.148
						c0.034,0.045,0.076,0.128,0.076,0.207c0,0.175-0.136,0.317-0.306,0.317c-0.144,0-0.237-0.109-0.297-0.231
						c-0.221-0.428-0.671-0.688-1.096-0.896c-0.434-0.208-0.782-0.283-1.376-0.307c-0.085-0.005-0.213-0.061-0.196-0.302
						C21.129,32.819,21.248,32.794,21.341,32.787z"/>
					<path fill="#D1D3D4" d="M23.694,34.641c-0.204-0.396-0.629-0.645-1.054-0.853c-0.416-0.2-0.748-0.277-1.333-0.298
						c-0.085-0.005-0.161-0.037-0.213-0.097c-0.06-0.072-0.093-0.177-0.077-0.311c0.017-0.327,0.179-0.383,0.315-0.395
						c0.518-0.043,1.027,0.078,1.648,0.379c0.611,0.299,1.095,0.706,1.41,1.181c0.042,0.063,0.093,0.16,0.093,0.262
						c0,0.229-0.187,0.414-0.408,0.414C23.915,34.924,23.788,34.829,23.694,34.641z M21.35,32.885
						c-0.068,0.004-0.128,0.01-0.145,0.212c-0.008,0.078,0.009,0.136,0.035,0.166c0.025,0.024,0.051,0.031,0.076,0.031
						c0.612,0.025,0.968,0.104,1.411,0.318c0.458,0.223,0.909,0.49,1.138,0.939c0.077,0.159,0.162,0.178,0.212,0.178
						c0.12,0,0.213-0.1,0.213-0.22c0-0.041-0.026-0.099-0.06-0.154c-0.289-0.444-0.748-0.828-1.333-1.112
						c-0.519-0.249-0.951-0.367-1.368-0.367C21.468,32.876,21.409,32.879,21.35,32.885z"/>
				</g>
				<path fill="#D1D3D4" d="M21.358,31.479c2.744,0,4.969,2.266,4.969,5.051c0,2.786-2.225,5.053-4.969,5.053
					c-2.743,0-4.969-2.267-4.969-5.053C16.389,33.744,18.615,31.479,21.358,31.479z M19.804,35.856
					c0.06-0.139,0.135-0.267,0.221-0.385l-1.469-2.42c-0.824,0.682-1.368,1.623-1.555,2.677L19.804,35.856z M20.067,37.641
					c-0.102-0.121-0.179-0.251-0.246-0.395l-2.812,0.127c0.195,1.027,0.731,1.945,1.521,2.619L20.067,37.641z M21.638,38.223
					c-0.094,0.019-0.187,0.028-0.28,0.028c-0.077,0-0.145-0.005-0.221-0.015l-1.215,2.55c0.467,0.165,0.951,0.249,1.436,0.249
					c0.493,0,0.977-0.087,1.452-0.254L21.638,38.223z M21.222,34.816c0.051-0.002,0.093-0.005,0.136-0.005
					c0.051,0,0.11,0.003,0.161,0.008l1.266-2.549c-0.467-0.163-0.943-0.246-1.427-0.246c-0.467,0-0.935,0.078-1.393,0.233
					L21.222,34.816z M24.195,39.979c0.798-0.676,1.325-1.596,1.511-2.624l-2.769-0.211c-0.068,0.158-0.144,0.307-0.246,0.44
					L24.195,39.979z M25.715,35.74c-0.187-1.044-0.714-1.981-1.52-2.665l-1.487,2.423c0.094,0.126,0.17,0.264,0.221,0.412
					L25.715,35.74z"/>
				<path fill="#E6E7E8" d="M21.358,31.623c-2.667,0-4.833,2.2-4.833,4.906c0,2.705,2.166,4.907,4.833,4.907
					c2.658,0,4.825-2.202,4.825-4.907C26.183,33.823,24.016,31.623,21.358,31.623z M21.358,34.956c-0.06,0-0.11,0.005-0.161,0.012
					l-0.051,0.006l-1.376-2.798c0.492-0.188,1.027-0.295,1.588-0.295c0.569,0,1.121,0.111,1.631,0.31l-1.385,2.786l-0.05-0.006
					C21.485,34.961,21.426,34.956,21.358,34.956z M25.876,35.874l-3.041,0.188l-0.017-0.053c-0.06-0.169-0.145-0.324-0.255-0.462
					l-0.034-0.039l1.623-2.648C25.07,33.584,25.707,34.654,25.876,35.874z M24.161,40.193l-1.648-2.621l0.034-0.04
					c0.119-0.146,0.212-0.31,0.272-0.487l0.017-0.054l3.041,0.231C25.698,38.425,25.07,39.476,24.161,40.193z M21.358,41.178
					c-0.578,0-1.13-0.111-1.631-0.312l1.325-2.791l0.059,0.01c0.077,0.015,0.162,0.021,0.247,0.021c0.102,0,0.204-0.012,0.314-0.035
					l0.052-0.011l1.282,2.803C22.487,41.063,21.936,41.178,21.358,41.178z M16.839,37.236l3.075-0.141l0.017,0.046
					c0.067,0.165,0.161,0.314,0.28,0.445l0.034,0.041l-1.682,2.575C17.654,39.488,17.026,38.439,16.839,37.236z M18.589,32.835
					l1.614,2.647l-0.034,0.041c-0.11,0.129-0.195,0.275-0.254,0.434l-0.017,0.049l-3.067-0.141
					C17.009,34.634,17.654,33.559,18.589,32.835z"/>
				<path fill="#FFFFFF" d="M21.358,31.695c2.625,0,4.757,2.169,4.757,4.834s-2.132,4.834-4.757,4.834
					c-2.625,0-4.756-2.169-4.756-4.834S18.733,31.695,21.358,31.695z M20.288,35.488l-1.682-2.759l-0.06,0.049
					c-0.976,0.756-1.604,1.85-1.783,3.077l-0.008,0.079l3.193,0.146l0.034-0.098c0.06-0.15,0.136-0.291,0.237-0.412L20.288,35.488z
					 M20.338,37.621l-0.076-0.083c-0.11-0.126-0.195-0.267-0.264-0.423l-0.042-0.093l-3.193,0.144l0.009,0.081
					c0.178,1.198,0.798,2.267,1.75,3.013l0.059,0.048L20.338,37.621z M23.1,40.902l-1.334-2.926L21.655,38
					c-0.101,0.021-0.204,0.033-0.297,0.033c-0.077,0-0.161-0.007-0.238-0.021l-0.103-0.019l-1.393,2.912l0.068,0.027
					c0.543,0.21,1.104,0.318,1.665,0.318c0.569,0,1.129-0.108,1.673-0.322L23.1,40.902z M23.082,32.149l-0.068-0.026
					c-0.544-0.209-1.096-0.315-1.656-0.315c-0.544,0-1.087,0.101-1.614,0.301l-0.077,0.028l1.436,2.915l0.094-0.013
					c0.06-0.007,0.11-0.013,0.161-0.013c0.06,0,0.127,0.006,0.187,0.016l0.103,0.014L23.082,32.149z M25.953,37.155l-3.168-0.241
					L22.75,37.02c-0.059,0.172-0.144,0.328-0.254,0.466l-0.068,0.082l1.715,2.732l0.06-0.049c0.952-0.749,1.563-1.821,1.742-3.018
					L25.953,37.155z M25.962,35.943l-0.009-0.079c-0.17-1.216-0.79-2.302-1.75-3.062l-0.068-0.05l-1.69,2.761l0.068,0.08
					c0.102,0.131,0.179,0.279,0.237,0.44l0.034,0.104L25.962,35.943z"/>
				<path fill="#E6E7E8" d="M20.61,36.529c0-0.417,0.34-0.756,0.748-0.756s0.748,0.339,0.748,0.756c0,0.419-0.34,0.758-0.748,0.758
					S20.61,36.948,20.61,36.529z"/>
				<ellipse fill="#6D6E71" cx="21.358" cy="36.529" rx="0.433" ry="0.44"/>
				<path fill="#A7A9AC" d="M20.95,36.529c0-0.226,0.187-0.409,0.408-0.409s0.399,0.184,0.399,0.409s-0.179,0.411-0.399,0.411
					S20.95,36.755,20.95,36.529z"/>
				<path fill="#BCBEC0" d="M21.027,36.529c0-0.182,0.153-0.331,0.331-0.331c0.179,0,0.323,0.149,0.323,0.331
					c0,0.185-0.144,0.331-0.323,0.331C21.18,36.86,21.027,36.714,21.027,36.529z"/>
				<path fill="#D1D3D4" d="M21.146,36.529c0-0.116,0.093-0.211,0.212-0.211c0.11,0,0.204,0.095,0.204,0.211
					c0,0.118-0.093,0.215-0.204,0.215C21.239,36.744,21.146,36.647,21.146,36.529z"/>
				<g>
					<ellipse fill="#6D6E71" cx="20.95" cy="35.64" rx="0.204" ry="0.209"/>
					<path fill="#939498" d="M20.772,35.64c0-0.101,0.084-0.183,0.178-0.183c0.102,0,0.179,0.082,0.179,0.183
						s-0.077,0.183-0.179,0.183C20.856,35.822,20.772,35.74,20.772,35.64z"/>
					<path fill="#BCBEC0" d="M20.814,35.64c0-0.078,0.06-0.143,0.136-0.143s0.144,0.064,0.144,0.143
						c0,0.079-0.067,0.143-0.144,0.143S20.814,35.719,20.814,35.64z"/>
					<path fill="#D1D3D4" d="M20.865,35.64c0-0.048,0.042-0.088,0.085-0.088c0.051,0,0.084,0.04,0.084,0.088
						c0,0.049-0.034,0.088-0.084,0.088C20.907,35.728,20.865,35.688,20.865,35.64z"/>
				</g>
				<g>
					<ellipse fill="#6D6E71" cx="21.842" cy="37.369" rx="0.204" ry="0.209"/>
					<path fill="#939498" d="M21.664,37.369c0-0.101,0.076-0.183,0.178-0.183c0.103,0,0.179,0.082,0.179,0.183
						c0,0.103-0.076,0.185-0.179,0.185C21.74,37.554,21.664,37.472,21.664,37.369z"/>
					<path fill="#BCBEC0" d="M21.706,37.369c0-0.077,0.06-0.143,0.136-0.143c0.077,0,0.145,0.065,0.145,0.143
						c0,0.079-0.068,0.145-0.145,0.145C21.766,37.514,21.706,37.448,21.706,37.369z"/>
					<path fill="#D1D3D4" d="M21.757,37.369c0-0.047,0.034-0.086,0.084-0.086s0.085,0.039,0.085,0.086
						c0,0.049-0.035,0.088-0.085,0.088S21.757,37.418,21.757,37.369z"/>
				</g>
				<g>
					<circle fill="#6D6E71" cx="22.309" cy="36.545" r="0.204"/>
					<path fill="#939498" d="M22.131,36.545c0-0.101,0.077-0.182,0.178-0.182c0.094,0,0.178,0.081,0.178,0.182
						c0,0.103-0.084,0.185-0.178,0.185C22.208,36.729,22.131,36.647,22.131,36.545z"/>
					<path fill="#BCBEC0" d="M22.165,36.545c0-0.079,0.067-0.142,0.144-0.142s0.136,0.063,0.136,0.142s-0.06,0.143-0.136,0.143
						S22.165,36.624,22.165,36.545z"/>
					<path fill="#D1D3D4" d="M22.225,36.545c0-0.047,0.034-0.086,0.084-0.086c0.043,0,0.085,0.039,0.085,0.086
						c0,0.049-0.042,0.088-0.085,0.088C22.258,36.633,22.225,36.594,22.225,36.545z"/>
				</g>
				<g>
					<ellipse fill="#6D6E71" cx="21.825" cy="35.679" rx="0.204" ry="0.209"/>
					<path fill="#939498" d="M21.647,35.679c0-0.1,0.077-0.182,0.178-0.182c0.093,0,0.178,0.082,0.178,0.182
						c0,0.102-0.084,0.184-0.178,0.184C21.724,35.862,21.647,35.78,21.647,35.679z"/>
					<path fill="#BCBEC0" d="M21.681,35.68c0-0.079,0.068-0.143,0.145-0.143c0.076,0,0.136,0.063,0.136,0.143
						c0,0.078-0.06,0.143-0.136,0.143C21.749,35.822,21.681,35.758,21.681,35.68z"/>
					<path fill="#D1D3D4" d="M21.74,35.68c0-0.048,0.034-0.088,0.085-0.088c0.042,0,0.085,0.04,0.085,0.088
						c0,0.049-0.042,0.088-0.085,0.088C21.774,35.768,21.74,35.729,21.74,35.68z"/>
				</g>
				<g>
					<circle fill="#6D6E71" cx="20.398" cy="36.535" r="0.204"/>
					<path fill="#939498" d="M20.219,36.535c0-0.101,0.077-0.183,0.179-0.183c0.102,0,0.178,0.082,0.178,0.183
						c0,0.102-0.076,0.185-0.178,0.185C20.296,36.72,20.219,36.637,20.219,36.535z"/>
					<path fill="#BCBEC0" d="M20.253,36.535c0-0.077,0.068-0.143,0.145-0.143c0.076,0,0.135,0.065,0.135,0.143
						c0,0.079-0.059,0.143-0.135,0.143C20.322,36.678,20.253,36.614,20.253,36.535z"/>
					<path fill="#D1D3D4" d="M20.313,36.535c0-0.048,0.035-0.086,0.085-0.086c0.042,0,0.084,0.038,0.084,0.086
						c0,0.049-0.043,0.088-0.084,0.088C20.348,36.623,20.313,36.584,20.313,36.535z"/>
				</g>
				<g>
					<path fill="#6D6E71" d="M20.645,37.35c0-0.115,0.093-0.209,0.204-0.209c0.118,0,0.212,0.094,0.212,0.209
						c0,0.114-0.094,0.208-0.212,0.208C20.737,37.558,20.645,37.464,20.645,37.35z"/>
					<path fill="#939498" d="M20.67,37.35c0-0.1,0.085-0.184,0.179-0.184c0.102,0,0.186,0.084,0.186,0.184
						c0,0.102-0.084,0.183-0.186,0.183C20.755,37.532,20.67,37.451,20.67,37.35z"/>
					<path fill="#BCBEC0" d="M20.712,37.35c0-0.078,0.06-0.143,0.136-0.143c0.084,0,0.144,0.064,0.144,0.143
						s-0.06,0.144-0.144,0.144C20.772,37.493,20.712,37.428,20.712,37.35z"/>
					<path fill="#D1D3D4" d="M20.763,37.35c0-0.048,0.042-0.087,0.085-0.087c0.051,0,0.093,0.039,0.093,0.087
						c0,0.049-0.042,0.088-0.093,0.088C20.806,37.438,20.763,37.398,20.763,37.35z"/>
				</g>
			</g>
			<g>
				<g>
					<g>
						<polygon fill="#808285" points="23.745,40.512 22.114,37.868 23.49,40.655 						"/>
					</g>
				</g>
				<g>
					<g>
						<polygon fill="#808285" points="19.056,32.551 20.695,35.191 19.311,32.406 						"/>
					</g>
				</g>
			</g>
			<g>
				<g>
					<g>
						<polygon fill="#808285" points="19.217,40.646 20.61,37.871 18.962,40.501 						"/>
					</g>
				</g>
				<g>
					<g>
						<polygon fill="#808285" points="23.438,32.473 22.071,35.266 23.685,32.615 						"/>
					</g>
				</g>
			</g>
			<g>
				<g>
					<g>
						<polygon fill="#808285" points="16.779,36.705 19.846,36.545 16.779,36.413 						"/>
					</g>
				</g>
				<g>
					<g>
						<polygon fill="#808285" points="25.945,36.364 22.879,36.497 25.945,36.656 						"/>
					</g>
				</g>
			</g>
		</g>
		<g>
			<path fill="#D1D3D4" d="M5.465,21.707c0.034-0.391,0.45-0.38,0.493-0.749c0.391-3.567,1.138-5.996,1.979-8.305
				c0.212-0.552,0.629-1.459,0.841-1.869c0.034-0.072-1.266-1.198-1.215-1.516c0.145-0.829,2.303-0.747,5.666-0.806
				c6.319-0.108,30.585-0.007,36.523,0.435c3.186,0.274,4.979,0.762,7.305,2.26c5.445,3.497,11.467,9.295,11.467,9.295
				s13.795,0.309,19.554,2.49c2.616,0.987,3.703,2.247,4.612,4.199c0.06,0.141,0.832,0.257,0.951,0.656
				c0.399,1.786,0.714,4.356,1.036,7.421c0.094,0.92-0.518,2.307-1.987,2.305c-1.224-0.003-2.905-0.005-4.961-0.008
				c0.043-0.324,0.06-0.653,0.06-0.987c0-4.813-3.856-8.73-8.587-8.73c-4.74,0-8.588,3.917-8.588,8.729
				c0,0.325,0.017,0.646,0.051,0.962c-12.749-0.021-28.25-0.044-40.71-0.06c0.034-0.317,0.06-0.64,0.06-0.968
				c0-4.812-3.856-8.729-8.596-8.729c-4.731,0-8.587,3.917-8.587,8.729c0,0.32,0.017,0.638,0.051,0.948
				c-2.438-0.002-4.145-0.002-4.909,0c-2.354,0.003-2.939-1.269-3.05-3.18C4.676,29.812,5.126,24.506,5.465,21.707z"/>
			<path fill="#221F20" d="M89.453,37.545l-1.749-0.003v-0.028c0.042-0.335,0.059-0.666,0.059-0.984
				c0-4.799-3.839-8.703-8.562-8.703c-4.724,0-8.563,3.904-8.563,8.702c0,0.312,0.018,0.634,0.051,0.959v0.029h-0.025
				c-13.242-0.021-28.429-0.044-40.71-0.06h-0.025v-0.029c0.034-0.327,0.059-0.652,0.059-0.965c0-4.798-3.848-8.703-8.57-8.703
				c-4.714,0-8.562,3.904-8.562,8.703c0,0.308,0.017,0.626,0.051,0.945l0.009,0.029h-0.034c-2.438-0.002-4.145-0.002-4.909,0H7.963
				l0,0c-1.122,0-1.894-0.29-2.378-0.885c-0.417-0.506-0.628-1.223-0.688-2.321c-0.221-4.054,0.136-9.129,0.544-12.528
				c0.017-0.21,0.135-0.31,0.254-0.406c0.11-0.089,0.221-0.173,0.238-0.342c0.366-3.396,1.062-5.779,1.979-8.312
				c0.221-0.564,0.628-1.462,0.841-1.865c-0.017-0.043-0.179-0.206-0.332-0.362C7.937,9.925,7.504,9.467,7.538,9.264
				C7.666,8.51,9.339,8.488,12.1,8.454c0.357-0.005,0.739-0.01,1.129-0.017c1.512-0.025,4.061-0.041,7.186-0.041
				c9.233,0,24.665,0.127,29.337,0.475c3.321,0.285,5.096,0.836,7.322,2.263c5.301,3.405,11.221,9.06,11.458,9.292
				c0.441,0.011,13.913,0.358,19.554,2.492c2.701,1.02,3.746,2.319,4.629,4.214c0.017,0.041,0.136,0.091,0.272,0.144
				c0.245,0.105,0.594,0.249,0.679,0.517c0.349,1.564,0.654,3.785,1.037,7.424c0.059,0.581-0.162,1.248-0.561,1.697
				c-0.366,0.416-0.867,0.637-1.444,0.637h-0.009L89.453,37.545z M13.229,8.49c-0.391,0.006-0.772,0.012-1.129,0.016
				C9.458,8.541,7.708,8.563,7.589,9.273c-0.034,0.193,0.527,0.765,0.867,1.105c0.322,0.33,0.365,0.379,0.348,0.417
				c-0.212,0.398-0.62,1.301-0.841,1.867c-0.926,2.53-1.614,4.908-1.979,8.299c-0.025,0.191-0.135,0.286-0.255,0.378
				c-0.11,0.094-0.221,0.181-0.237,0.369c-0.408,3.398-0.765,8.47-0.544,12.52c0.11,1.896,0.663,3.155,3.016,3.155h0.009
				c0.755-0.001,2.463-0.001,4.884,0.002c-0.034-0.313-0.051-0.622-0.051-0.923c0-4.827,3.864-8.755,8.613-8.755
				c4.756,0,8.622,3.928,8.622,8.755c0,0.305-0.017,0.622-0.052,0.941c12.264,0.016,27.427,0.039,40.643,0.059
				c-0.024-0.315-0.042-0.63-0.042-0.935c0-4.827,3.865-8.755,8.613-8.755s8.613,3.928,8.613,8.756c0,0.309-0.018,0.633-0.052,0.961
				l4.927,0.008l0.009,0.026v-0.026c0.561,0,1.054-0.214,1.409-0.619c0.391-0.438,0.604-1.09,0.544-1.656
				c-0.382-3.638-0.688-5.854-1.036-7.417c-0.076-0.241-0.407-0.38-0.654-0.479c-0.152-0.065-0.271-0.111-0.297-0.172
				c-0.875-1.882-1.911-3.172-4.596-4.187c-5.69-2.155-19.408-2.486-19.545-2.489h-0.008l-0.009-0.007
				c-0.06-0.058-6.081-5.837-11.458-9.292c-2.242-1.44-3.95-1.967-7.297-2.256C45.08,8.577,29.648,8.45,20.415,8.45
				C17.29,8.45,14.741,8.464,13.229,8.49z"/>
		</g>
		<path fill="#F1F2F1" d="M92.698,36.938c0.407,0,0.747-0.145,1.002-0.433c0.323-0.371,0.434-0.883,0.399-1.224
			c-0.365-3.55-0.671-5.735-1.002-7.272c-0.077-0.057-0.256-0.128-0.34-0.164c-0.23-0.097-0.476-0.195-0.586-0.456
			c-0.824-1.75-1.784-2.948-4.29-3.897c-5.614-2.121-19.23-2.451-19.366-2.454l-0.221-0.004l-0.162-0.156
			c-0.059-0.058-6.048-5.8-11.382-9.225c-2.157-1.385-3.805-1.893-7.05-2.172C45.089,9.138,29.292,9.01,20.423,9.01
			c-3.126,0-5.674,0.014-7.186,0.041c-0.391,0.005-0.773,0.011-1.13,0.016c-1.563,0.021-3.321,0.042-3.864,0.271
			c0.17,0.208,0.458,0.5,0.604,0.645c0.391,0.403,0.653,0.668,0.441,1.077c-0.196,0.377-0.604,1.269-0.815,1.81
			c-0.901,2.477-1.58,4.819-1.945,8.153c-0.043,0.423-0.314,0.639-0.458,0.754c-0.009,0.01-0.026,0.023-0.034,0.032
			c-0.407,3.374-0.756,8.387-0.536,12.388c0.094,1.702,0.519,2.627,2.464,2.627c0,0,0.764,0,1.359,0c0.756,0,1.75,0,2.939,0
			c0-0.12-0.008-0.241-0.008-0.361c0-5.136,4.111-9.314,9.165-9.314s9.165,4.179,9.165,9.314c0,0.127,0,0.254-0.008,0.383
			c12.145,0.016,27.052,0.039,39.471,0.058c-0.009-0.126-0.009-0.252-0.009-0.375c0-5.137,4.11-9.315,9.165-9.315
			c5.054,0,9.165,4.179,9.165,9.316c0,0.133-0.009,0.267-0.009,0.403l4.332,0.005H92.698z"/>
		<path fill="#E4E3E3" d="M6.009,22.024c5.376,0.231,6.371,0.165,6.745-0.024c6.149-1.596,10.566-1.01,15.943,1.628
			c11.856-0.065,50.504,0.567,50.504,0.567l-12.002,8.679l-38.715-2.336c-1.682-2.069-4.222-3.389-7.067-3.389
			c-2.447,0-4.672,0.984-6.319,2.58l-4.018-0.242H5.465C5.542,26.809,5.763,24.122,6.009,22.024z"/>
		<g>
			<path fill="#424042" d="M92.562,30.92c1.325,0.179,2.149,0.521,2.149,0.521l0.671,4.003c0,0-0.671,1.758-1.92,2.052
				c-1.248,0.293-2.174,0.025-2.174,0.025s-0.951-4.957-1.333-6.766C91.109,30.725,91.916,30.843,92.562,30.92z"/>
			<path fill="#221F20" d="M91.288,37.548l-0.017-0.005l-0.01-0.016c-0.008-0.05-0.95-4.979-1.333-6.765l-0.009-0.031l0.035-0.001
				c0.127-0.003,0.263-0.006,0.391-0.006c0.84,0,1.503,0.081,2.029,0.146l0.195,0.024c1.309,0.177,2.141,0.518,2.149,0.521
				l0.017,0.006l0.672,4.018v0.008v0.007c-0.009,0.018-0.697,1.774-1.946,2.065c-0.391,0.093-0.789,0.139-1.18,0.139l0,0
				C91.679,37.658,91.288,37.549,91.288,37.548z M94.686,31.46c-0.11-0.045-0.909-0.35-2.124-0.514l-0.195-0.024
				c-0.526-0.063-1.181-0.144-2.021-0.144c-0.119,0-0.239,0.001-0.357,0.004c0.374,1.76,1.266,6.407,1.325,6.719
				c0.077,0.019,0.441,0.105,0.969,0.105c0.391,0,0.781-0.046,1.172-0.137c1.181-0.277,1.852-1.909,1.902-2.029L94.686,31.46z"/>
		</g>
		<path fill="#58595B" d="M92.282,37.341c0.374,0,0.747-0.045,1.112-0.131c0.951-0.223,1.554-1.485,1.69-1.801l-0.629-3.753
			c-0.289-0.1-0.977-0.317-1.929-0.445l-0.194-0.024c-0.519-0.063-1.164-0.143-1.987-0.143c-0.018,0-0.29,0.021-0.298,0.021
			c0.365,1.769,0.96,5.257,1.121,6.121C91.331,37.216,91.95,37.341,92.282,37.341L92.282,37.341z"/>
		<g>
			<path fill="#424042" d="M4.93,31.34c-0.34,0.003-0.79-0.118-0.892,1.051c-0.204,3.641-0.383,4.905,0.493,4.935
				c1.036,0.098,5.495,0.063,5.495,0.063l0.611-6.077C10.638,31.311,6.553,31.33,4.93,31.34z"/>
			<path fill="#221F20" d="M4.532,37.351c-0.179-0.006-0.315-0.063-0.417-0.177c-0.357-0.396-0.297-1.488-0.17-3.663
				c0.025-0.346,0.042-0.719,0.067-1.123c0.094-1.087,0.493-1.083,0.833-1.074c0.025,0.001,0.051,0.001,0.084,0.001l0,0
				c1.623-0.01,5.708-0.03,5.708-0.03h0.026l-0.612,6.106v0.023h-0.025c-0.008,0.001-0.756,0.007-1.69,0.007
				C6.935,37.421,5.143,37.408,4.532,37.351z M10.604,31.336c-0.365,0.003-4.128,0.021-5.666,0.032H4.93
				c-0.034,0-0.06-0.002-0.084-0.002c-0.035-0.001-0.06-0.001-0.093-0.001c-0.306,0-0.604,0.079-0.688,1.026
				c-0.026,0.403-0.043,0.776-0.068,1.123c-0.127,2.159-0.187,3.245,0.153,3.623c0.093,0.102,0.221,0.155,0.391,0.161
				c0.604,0.058,2.395,0.068,3.797,0.068c0.841,0,1.537-0.003,1.665-0.005L10.604,31.336z"/>
		</g>
		<path fill="#58595B" d="M8.336,36.809c0.458,0,1.036-0.021,1.342-0.021l0.815-4.908c-1.215,0.005-4.409,0.04-5.555,0.047
			c0,0-0.297-0.023-0.425,0.523c-0.084,0.351-0.449,4.271,0.026,4.289C4.76,36.748,6.374,36.809,8.336,36.809z"/>
		<path fill="#FFFFFF" d="M67.105,37.484c-0.025-0.316-0.043-0.634-0.043-0.956c0-6.802,5.445-12.334,12.139-12.334
			s12.138,5.532,12.138,12.334c0,0.335-0.018,0.666-0.051,0.993c-1.002-0.002-2.2-0.003-3.56-0.005
			c0.043-0.324,0.06-0.653,0.06-0.987c0-4.813-3.856-8.73-8.587-8.73c-4.74,0-8.588,3.917-8.588,8.729
			c0,0.325,0.017,0.646,0.051,0.962C69.501,37.487,68.312,37.485,67.105,37.484z"/>
		<path fill="#121212" d="M89.122,37.53c0.034-0.335,0.051-0.673,0.051-1.002c0-5.588-4.477-10.134-9.972-10.134
			c-5.505,0-9.973,4.546-9.973,10.134c0,0.314,0.018,0.641,0.043,0.971l0.017,0.106l1.503,0.001l-0.017-0.129
			c-0.034-0.322-0.051-0.64-0.051-0.949c0-4.748,3.806-8.611,8.478-8.611s8.468,3.863,8.468,8.612c0,0.313-0.017,0.642-0.051,0.974
			l-0.017,0.131l1.512,0.001L89.122,37.53z"/>
		<path fill="#232424" d="M79.201,26.512c5.436,0,9.853,4.495,9.853,10.017c0,0.335-0.017,0.664-0.051,0.99
			c-0.407-0.001-0.832-0.001-1.274-0.002c0.043-0.324,0.06-0.653,0.06-0.987c0-4.813-3.856-8.73-8.587-8.73
			c-4.74,0-8.588,3.917-8.588,8.729c0,0.325,0.017,0.646,0.051,0.962c-0.425-0.002-0.849-0.002-1.273-0.003
			c-0.034-0.314-0.051-0.636-0.051-0.959C69.34,31.007,73.765,26.512,79.201,26.512z"/>
		<path fill="#FFFFFF" d="M21.426,24.387c6.549,0,11.874,5.418,11.874,12.076c0,0.328-0.017,0.65-0.042,0.973
			c-1.122-0.002-2.226-0.005-3.305-0.005c0.034-0.317,0.06-0.64,0.06-0.968c0-4.812-3.856-8.729-8.596-8.729
			c-4.731,0-8.587,3.917-8.587,8.729c0,0.32,0.017,0.638,0.051,0.948c-1.325,0-2.438-0.002-3.305-0.002
			c-0.025-0.312-0.042-0.627-0.042-0.946C9.535,29.805,14.869,24.387,21.426,24.387z"/>
		<path fill="#424042" d="M15.302,10.421c9.105-0.142,23.917-0.004,26.084,0.001c4.986,0.013,9.487,0.251,10.948,0.832
			c5.258,2.085,10.703,9.507,10.703,9.507s-7.977-0.021-18.679-0.07c-0.204-0.001-20.784-0.001-20.987-0.003
			C21.808,20.624,13.637,10.466,15.302,10.421z"/>
		<path fill="#545454" d="M44.384,19.512c-1.079-2.932-2.488-6.891-2.888-8.121c-0.085-0.245,0.297-0.381,0.492-0.38
			c5.275,0.035,8.953,0.319,10.134,0.79c3.202,1.271,6.345,4.465,8.358,6.784c0.713,0.907,0.314,1.558-0.314,1.583
			c-3.703-0.017-12.019-0.064-14.746-0.077C44.961,20.087,44.46,19.708,44.384,19.512z"/>
		<path fill="#2E64B0" d="M60.157,19.581c0.06-0.003,0.103-0.022,0.119-0.048c0.017-0.048,0.017-0.242-0.238-0.571
			c-2.981-3.437-5.716-5.661-8.12-6.615c-1.087-0.43-4.722-0.709-9.743-0.748c0.527,1.57,1.792,5.104,2.735,7.659
			c0.085,0.093,0.34,0.246,0.51,0.247c1.096,0.005,3.1,0.016,5.343,0.028C54.093,19.551,57.94,19.572,60.157,19.581z"/>
		<path fill="#545454" d="M27.771,10.946c2.191,0.01,8.204,0.043,10.54,0.055c0.942,0.025,1.215,0.172,1.385,0.7
			c0.722,2.679,1.24,4.633,1.996,7.517c0.119,0.535-0.263,0.844-1.01,0.888c-2.871,0-10.956-0.002-14.227-0.003
			c-0.339,0-0.748-0.542-0.705-0.81c0.425-2.844,0.815-5.463,1.147-7.783C26.921,11.319,27.329,10.946,27.771,10.946z"/>
		<path fill="#2E64B0" d="M40.782,18.886c-0.476-2.1-1.401-5.837-1.81-6.948c-0.084-0.11-0.416-0.348-0.67-0.349
			c-2.336-0.013-8.34-0.046-10.531-0.055c-0.119,0-0.255,0.086-0.315,0.149c-0.339,2.353-0.739,5.057-1.129,7.631
			c0.034,0.068,0.119,0.167,0.17,0.203c0,0,10.685,0.002,13.657,0C40.851,19.513,40.868,19.305,40.782,18.886z"/>
		<path fill="#545454" d="M24.798,11.368c-0.433,3.046-0.739,5.222-1.232,8.531c-0.017,0.105-0.135,0.26-0.416,0.089
			c-2.184-1.522-6.753-7.45-7.288-8.742c-0.06-0.151,0-0.235,0.382-0.245c2.166-0.032,5.063-0.051,8.086-0.056
			C24.645,10.938,24.824,11.084,24.798,11.368z"/>
		<path fill="#2E64B0" d="M23.091,19.207c0.382-2.615,0.654-4.536,0.994-6.924l0.11-0.752c-2.872,0.005-5.496,0.024-7.492,0.05
			C17.782,13.313,21.094,17.57,23.091,19.207z"/>
		<path fill="#121212" d="M31.219,37.443c0.026-0.327,0.043-0.658,0.043-0.98c0-5.516-4.417-10.004-9.845-10.004
			c-5.428,0-9.845,4.488-9.845,10.004c0,0.312,0.017,0.633,0.051,0.958l0.009,0.106l1.376,0.002L13,37.398
			c-0.034-0.315-0.051-0.631-0.051-0.936c0-4.747,3.797-8.61,8.469-8.61c4.68,0,8.477,3.863,8.477,8.61
			c0,0.31-0.017,0.632-0.051,0.955l-0.017,0.13l1.385,0.001L31.219,37.443z"/>
		<path fill="#232424" d="M21.417,26.575c5.369,0,9.734,4.438,9.734,9.888c0,0.328-0.017,0.65-0.051,0.97
			c-0.383-0.002-0.765-0.002-1.147-0.002c0.034-0.317,0.06-0.64,0.06-0.968c0-4.812-3.856-8.729-8.596-8.729
			c-4.731,0-8.587,3.917-8.587,8.729c0,0.32,0.017,0.638,0.051,0.948c-0.399,0-0.781,0-1.147,0
			c-0.025-0.312-0.042-0.629-0.042-0.948C11.692,31.013,16.058,26.575,21.417,26.575z"/>
		<path fill="#424042" d="M7.937,12.653c0.196-0.502,0.629-1.541,0.824-1.927c2.124,1.947,5.496,9.921,3.924,10.035
			c-1.197,0.161-5.427,0.218-6.71,0.227C6.374,17.507,7.105,14.927,7.937,12.653z"/>
		<path fill="#545454" d="M7.937,12.653c0.119-0.307,0.45-1.152,0.569-1.415c0.9,0.944,3.788,5.893,3.975,8.957
			c-1.028,0.114-4.578,0.172-6.43,0.195C6.459,17.209,7.155,14.794,7.937,12.653z"/>
		<path fill="#2E64B0" d="M7.937,12.653c0.06-0.154,0.366-0.958,0.391-0.925c0.773,0.9,3.194,5.062,3.585,8.106
			c-1.189,0.08-4.009,0.133-5.81,0.157C6.519,17.006,7.19,14.704,7.937,12.653z"/>
		<path fill="#424042" d="M69.102,20.45l-0.094,0.05c-0.348,0.191-0.892,0.419-1.494,0.419c-0.468,0-0.893-0.137-1.266-0.405
			l-0.026-0.017l-0.017-0.019c-1.393-1.446-6.361-6.414-11.603-9.59l-0.757-0.458l0.885-0.085c0.16-0.016,0.373-0.019,0.525-0.019
			c0.128,0,0.272,0.003,0.416,0.007c0.688,0.343,1.359,0.741,2.082,1.202C63.164,15.015,69.042,20.396,69.102,20.45z"/>
		<path fill="#545454" d="M68.855,20.243c-0.519,0.282-1.546,0.683-2.464,0.031c-2.54-2.637-7.093-6.869-11.653-9.636
			c0.383-0.038,1.087-0.117,1.418-0.066c0.484,0.256,0.824,0.482,1.58,0.964C62.672,14.641,67.717,19.218,68.855,20.243z"/>
		<path fill="#2E64B0" d="M57.745,11.544c4.655,2.928,9.411,7.163,10.889,8.496c-0.339,0.082-0.942,0.203-1.12,0.203
			c-0.314,0-0.604-0.088-0.858-0.262c-1.334-1.383-5.929-5.876-10.753-9.055c-0.077-0.05,0.339-0.116,0.637-0.139
			C56.87,10.977,57.201,11.191,57.745,11.544z"/>
		<path fill="#232424" d="M31.075,36.128h38.426v1.359c-12.155-0.013-26.562-0.028-38.426-0.041V36.128z"/>
		<path fill="#4982C3" d="M56.36,15.229c-3.601,0.075-8.052,0.16-12.826,0.235c-0.56-1.556-1.07-3.005-1.359-3.865
			c5.021,0.039,8.655,0.318,9.743,0.748C53.294,12.893,54.781,13.859,56.36,15.229z"/>
		<g>
			<path fill="#FFFFFF" d="M13.705,29.937c-0.679-0.166-1.367-0.275-2.055-0.363c-0.68-0.092-1.368-0.15-2.056-0.201l-1.036-0.054
				c-0.34-0.007-0.688-0.024-1.036-0.02c-0.688-0.004-1.376,0.014-2.073,0.09c0.68,0.169,1.359,0.276,2.047,0.365
				c0.34,0.051,0.688,0.078,1.028,0.117l1.036,0.084c0.688,0.039,1.376,0.073,2.064,0.073S13.008,30.012,13.705,29.937z"/>
		</g>
		<g>
			<path fill="#FFFFFF" d="M68.863,32.938c-3.193-0.341-6.396-0.607-9.589-0.846c-1.606-0.126-3.202-0.224-4.808-0.336l-4.799-0.292
				l-4.808-0.25c-1.597-0.069-3.202-0.152-4.807-0.206c-3.202-0.124-6.412-0.22-9.623-0.237c3.193,0.343,6.395,0.607,9.588,0.847
				c1.605,0.126,3.202,0.223,4.799,0.334l4.808,0.292l4.808,0.25c1.597,0.069,3.202,0.151,4.808,0.205
				C62.441,32.822,65.653,32.919,68.863,32.938z"/>
		</g>
		<g>
			<path fill="#FFFFFF" d="M85.308,23.416c-0.798-0.22-1.621-0.333-2.445-0.459c-0.815-0.114-1.64-0.212-2.464-0.302
				c-1.647-0.178-3.304-0.326-4.952-0.459c-3.304-0.246-6.616-0.427-9.921-0.586c-6.625-0.315-13.25-0.467-19.868-0.575
				c-3.313-0.042-6.625-0.075-9.938-0.089l-4.968-0.007l-2.488,0.005c-0.833,0.003-1.647,0.023-2.464-0.018
				c-0.815-0.035-1.63-0.114-2.446-0.24c-0.807-0.123-1.605-0.301-2.412-0.488c-0.807-0.184-1.631-0.38-2.497-0.404
				c-0.833-0.022-1.69,0.027-2.515,0.197c-0.815,0.171-1.614,0.38-2.421,0.506c-0.815,0.133-1.639,0.216-2.463,0.271
				c-0.823,0.055-1.647,0.082-2.472,0.097c-0.832,0.017-1.656,0.019-2.489,0.011c1.657,0.097,3.313,0.153,4.969,0.1
				c0.832-0.025,1.665-0.08,2.489-0.186c0.832-0.099,1.648-0.283,2.455-0.421c0.807-0.143,1.614-0.177,2.438-0.134
				c0.799,0.038,1.589,0.243,2.396,0.444c0.798,0.205,1.614,0.404,2.437,0.548c0.824,0.147,1.666,0.246,2.498,0.3
				c0.841,0.06,1.673,0.058,2.498,0.072l2.48,0.026l4.967,0.061l9.929,0.131c3.313,0.04,6.625,0.099,9.93,0.163
				c3.313,0.057,6.617,0.148,9.93,0.226c3.313,0.089,6.616,0.203,9.921,0.37c1.656,0.075,3.305,0.164,4.961,0.283
				c0.824,0.061,1.647,0.13,2.472,0.214C83.678,23.16,84.501,23.235,85.308,23.416z"/>
		</g>
		<g>
			<path fill="#424042" d="M5.372,22.509c0.204-0.036,0.798-0.068,2.718-0.18l0.103-0.006l0.06,0.081
				c0.051,0.059,0.254,0.393-0.103,1.208c-0.144,0.335-0.399,0.547-0.662,0.773c-0.382,0.323-0.781,0.659-0.943,1.433
				c-0.229,1.129-1.096,1.252-1.453,1.252c-0.034,0-0.059,0-0.093-0.003H4.99C5.091,25.346,5.236,23.762,5.372,22.509z"/>
			<path fill="#9B1E23" d="M5.007,26.873c-0.153-0.012-0.034-3.677,0.391-4.183c0.008-0.012,2.701-0.167,2.701-0.167
				s0.204,0.261-0.119,1.01c-0.331,0.748-1.342,0.862-1.623,2.247C6.17,26.724,5.474,26.897,5.007,26.873z"/>
			<path fill="#C01920" d="M7.682,23.701c-0.892,0.076-1.571,0.131-2.446,0.198c0.059-0.483,0.145-0.885,0.246-1.06
				c0.297-0.023,1.588-0.099,2.514-0.152c0.026,0.108,0.009,0.457-0.161,0.784C7.802,23.538,7.733,23.641,7.682,23.701z"/>
			<path fill="#DE1919" d="M5.313,23.761c0.79-0.063,1.452-0.12,2.276-0.191c0.043-0.051,0.077-0.117,0.103-0.166
				c0.11-0.217,0.152-0.439,0.161-0.585c-0.952,0.058-1.988,0.12-2.37,0.146C5.432,23.083,5.372,23.312,5.313,23.761z"/>
			<path fill="#E72722" d="M5.381,23.638c0.722-0.064,1.35-0.123,2.115-0.196c0.025-0.034,0.042-0.07,0.06-0.104
				c0.06-0.142,0.102-0.287,0.119-0.4c-0.867,0.056-1.759,0.117-2.192,0.149C5.457,23.2,5.415,23.374,5.381,23.638z"/>
			<path fill="#C1C2C2" d="M5.134,25.157c0.017-0.353,0.051-0.745,0.084-1.084c0.841-0.061,1.461-0.109,2.302-0.187
				c-0.076,0.078-0.161,0.152-0.255,0.23c-0.289,0.246-0.637,0.536-0.866,1.042H5.134z"/>
			<path fill="#DEDFE0" d="M6.315,25.018c0.187-0.427,0.475-0.714,0.747-0.933c-0.636,0.052-1.18,0.091-1.817,0.134
				c-0.026,0.244-0.051,0.518-0.068,0.783L6.315,25.018z"/>
			<path fill="#EFEEEF" d="M6.213,24.861c0.127-0.24,0.323-0.501,0.476-0.615c-0.417,0.032-1.003,0.067-1.436,0.098
				c-0.017,0.128-0.06,0.352-0.06,0.502L6.213,24.861z"/>
			<path fill="#DC5410" d="M6.34,25.296c-0.051,0.136-0.102,0.285-0.136,0.453c-0.162,0.822-0.739,0.963-1.087,0.971
				c-0.026-0.215-0.026-0.787,0.009-1.434C5.381,25.285,6.069,25.288,6.34,25.296z"/>
			<path fill="#F08419" d="M5.117,26.56c0.391-0.011,0.824-0.247,0.943-0.843c0.017-0.093,0.042-0.182,0.068-0.269
				c-0.221-0.003-0.518-0.006-0.756-0.006c-0.034,0-0.212,0.009-0.246,0.009C5.108,25.902,5.101,26.315,5.117,26.56z"/>
			<path fill="#F5A822" d="M5.262,26.368c0.246-0.071,0.561-0.243,0.646-0.684c0.008-0.028,0.017-0.073,0.017-0.1
				c-0.179-0.002-0.756,0.019-0.798,0.02C5.117,25.896,5.033,26.426,5.262,26.368z"/>
		</g>
		<g>
			<path fill="#A7A9AC" d="M85.495,24.168l0.136-0.139c-2.166-2.155-8.222-2.606-17.226-3.027c0.187-0.14,0.476-0.331,0.747-0.424
				l-0.068-0.186c-0.475,0.167-0.985,0.601-1.002,0.619l-0.187,0.162l0.237,0.011C77.238,21.607,83.354,22.042,85.495,24.168z"/>
		</g>
		<path fill="#4982C3" d="M27.771,11.534c2.191,0.009,8.195,0.042,10.531,0.055c0.255,0.001,0.586,0.239,0.67,0.349
			c0.229,0.62,0.621,2.062,1.003,3.579c-4.339,0.061-8.824,0.107-13.097,0.129c0.205-1.373,0.4-2.717,0.578-3.963
			C27.516,11.62,27.652,11.534,27.771,11.534z"/>
		<g>
			<path fill="#6D6E71" d="M44.945,36.52c0.348,0,15.706,0,18.602-0.033c0.671-0.055,0.977-2.58,1.096-4.082
				c0.314-3.884,0.136-11.333-1.717-11.802l-0.041,0.188c1.579,0.402,1.928,7.113,1.57,11.598c-0.221,2.661-0.62,3.879-0.918,3.903
				c-2.785,0.03-17.158,0.032-18.499,0.032c0.042-1.424,0.433-14.906-1.469-15.703l-3.245-10.112l-0.187,0.06l3.287,10.207
				l0.042,0.015c1.563,0.463,1.521,11.437,1.376,15.628l-0.008,0.101h0.102C44.936,36.52,44.936,36.52,44.945,36.52z"/>
		</g>
		<g>
			<path fill="#6D6E71" d="M45.318,36.52v-0.195L31.27,36.288c0.009-0.306-0.017-1.262-0.373-2.603
				c-1.207-4.438-4.918-6.228-6.031-6.672c-0.222-0.216-0.306-3.45-0.264-6.381l1.503-10.226l-0.196-0.028l-1.503,10.239
				c-0.025,1.931-0.034,6.409,0.391,6.58c1.087,0.435,4.731,2.188,5.912,6.54c0.425,1.577,0.365,2.631,0.365,2.643v0.102
				L45.318,36.52z"/>
		</g>
		<g>
			<g>
				<path fill="#6FB8E6" d="M52.598,13.17l-3.771,5.874L52.598,13.17z"/>
				<path fill="#6FB8E6" d="M52.598,13.17c-0.374,0.452-0.713,0.923-1.045,1.4c-0.34,0.475-0.663,0.961-0.977,1.447
					c-0.314,0.492-0.621,0.984-0.909,1.488c-0.297,0.503-0.586,1.013-0.841,1.538c0.365-0.453,0.714-0.922,1.045-1.399
					c0.34-0.476,0.654-0.961,0.977-1.45c0.307-0.491,0.62-0.984,0.909-1.488C52.055,14.205,52.334,13.695,52.598,13.17z"/>
			</g>
			<g>
				<path fill="#6FB8E6" d="M50.508,13.006l-3.772,5.876L50.508,13.006z"/>
				<path fill="#6FB8E6" d="M50.508,13.006c-0.366,0.454-0.714,0.924-1.045,1.4c-0.34,0.475-0.654,0.962-0.977,1.449
					c-0.306,0.492-0.62,0.985-0.909,1.488c-0.297,0.503-0.578,1.012-0.841,1.539c0.374-0.454,0.714-0.923,1.045-1.401
					c0.34-0.475,0.663-0.961,0.977-1.448c0.314-0.492,0.62-0.984,0.909-1.489C49.964,14.041,50.253,13.533,50.508,13.006z"/>
			</g>
		</g>
		<g>
			<g>
				<path fill="#6FB8E6" d="M36.391,12.779l-3.77,5.875L36.391,12.779z"/>
				<path fill="#6FB8E6" d="M36.391,12.779c-0.374,0.454-0.711,0.924-1.043,1.4c-0.339,0.474-0.662,0.961-0.976,1.448
					c-0.314,0.491-0.621,0.984-0.909,1.488c-0.297,0.503-0.586,1.012-0.841,1.539c0.365-0.454,0.714-0.924,1.045-1.4
					c0.34-0.477,0.654-0.961,0.977-1.449c0.306-0.492,0.62-0.984,0.909-1.488C35.847,13.813,36.127,13.306,36.391,12.779z"/>
			</g>
			<g>
				<path fill="#6FB8E6" d="M34.303,12.616l-3.772,5.874L34.303,12.616z"/>
				<path fill="#6FB8E6" d="M34.303,12.616c-0.366,0.453-0.714,0.924-1.045,1.4c-0.34,0.475-0.654,0.959-0.977,1.448
					c-0.306,0.493-0.621,0.985-0.909,1.489c-0.297,0.5-0.578,1.01-0.841,1.537c0.374-0.452,0.714-0.923,1.045-1.398
					c0.34-0.477,0.662-0.962,0.977-1.45c0.314-0.492,0.62-0.986,0.909-1.488C33.759,13.65,34.048,13.141,34.303,12.616z"/>
			</g>
		</g>
		<path fill="#4982C3" d="M7.937,12.653c0.06-0.154,0.366-0.958,0.391-0.925c0.434,0.501,1.368,2.013,2.192,3.782
			c-1.325-0.049-2.463-0.138-3.423-0.262C7.351,14.326,7.64,13.468,7.937,12.653z"/>
		<path fill="#4982C3" d="M24.085,12.283c-0.17,1.193-0.323,2.268-0.484,3.373c-1.325,0.001-2.617,0-3.865-0.004
			c-1.283-1.558-2.463-3.161-3.032-4.071c1.996-0.026,4.621-0.045,7.492-0.05L24.085,12.283z"/>
		<g>
			<g>
				<path fill="#6FB8E6" d="M22.267,11.748l-2.386,3.721L22.267,11.748z"/>
				<path fill="#6FB8E6" d="M22.267,11.748c-0.238,0.287-0.45,0.586-0.663,0.886c-0.212,0.301-0.416,0.609-0.62,0.918
					c-0.195,0.311-0.391,0.624-0.578,0.943c-0.187,0.317-0.365,0.64-0.526,0.974c0.229-0.287,0.449-0.586,0.662-0.886
					c0.212-0.302,0.417-0.609,0.611-0.918c0.204-0.311,0.4-0.625,0.578-0.942C21.918,12.404,22.105,12.082,22.267,11.748z"/>
			</g>
			<g>
				<path fill="#6FB8E6" d="M23.303,12.524l-2.396,3.721L23.303,12.524z"/>
				<path fill="#6FB8E6" d="M23.303,12.524c-0.238,0.286-0.459,0.584-0.663,0.886c-0.212,0.301-0.416,0.608-0.62,0.918
					c-0.195,0.31-0.391,0.623-0.578,0.942c-0.187,0.318-0.366,0.641-0.536,0.974c0.239-0.288,0.459-0.584,0.663-0.886
					c0.212-0.302,0.416-0.609,0.62-0.917c0.196-0.311,0.391-0.625,0.578-0.942C22.955,13.178,23.133,12.856,23.303,12.524z"/>
			</g>
		</g>
		<g>
			<g>
				<path fill="#6FB8E6" d="M9.152,14.335l-2.387,3.722L9.152,14.335z"/>
				<path fill="#6FB8E6" d="M9.152,14.335c-0.238,0.288-0.45,0.585-0.662,0.888c-0.213,0.301-0.417,0.608-0.621,0.917
					c-0.195,0.312-0.391,0.624-0.578,0.942c-0.187,0.319-0.365,0.642-0.527,0.975c0.229-0.286,0.451-0.585,0.663-0.887
					c0.212-0.3,0.416-0.608,0.611-0.917c0.195-0.311,0.4-0.624,0.578-0.942C8.804,14.992,8.991,14.669,9.152,14.335z"/>
			</g>
			<g>
				<path fill="#6FB8E6" d="M10.188,15.113l-2.395,3.719L10.188,15.113z"/>
				<path fill="#6FB8E6" d="M10.188,15.113c-0.238,0.286-0.458,0.583-0.67,0.886c-0.213,0.3-0.408,0.608-0.612,0.917
					c-0.195,0.312-0.391,0.624-0.578,0.942c-0.186,0.317-0.365,0.641-0.535,0.974c0.237-0.286,0.45-0.584,0.663-0.886
					c0.212-0.301,0.416-0.608,0.62-0.918c0.196-0.311,0.391-0.623,0.578-0.941C9.84,15.768,10.019,15.445,10.188,15.113z"/>
			</g>
		</g>
		<path fill="#4982C3" d="M55.902,10.926c1.944,1.279,3.848,2.773,5.521,4.191c0.484-0.01,0.926-0.021,1.316-0.03
			c-1.563-1.22-3.287-2.47-4.994-3.543c-0.544-0.353-0.875-0.567-1.206-0.757C56.241,10.81,55.825,10.876,55.902,10.926z"/>
		<g>
			<path fill="#939498" d="M14.001,23.78v-1.771c0-0.347,0.272-0.627,0.612-0.627h1.75c0.339,0,0.611,0.28,0.611,0.627v1.771
				c0,0.347-0.272,0.629-0.611,0.629h-1.75C14.274,24.409,14.001,24.127,14.001,23.78z M14.614,21.455
				c-0.297,0-0.543,0.249-0.543,0.554v1.771c0,0.307,0.246,0.554,0.543,0.554h1.75c0.297,0,0.543-0.247,0.543-0.554v-1.771
				c0-0.305-0.246-0.554-0.543-0.554H14.614z"/>
		</g>
		<path fill="#232424" d="M94.83,35.297c0-0.418-0.187-0.759-0.407-0.759c-0.229,0-0.417,0.341-0.417,0.759
			c0,0.421,0.188,0.763,0.417,0.763C94.644,36.06,94.83,35.718,94.83,35.297z"/>
		<path fill="#424042" d="M94.32,34.691L94.32,34.691c0.009-0.001,0.025-0.001,0.034-0.001c0.994-0.107,1.461-0.329,1.996-1.028
			c0.9-1.182,0.45-2.705,0.441-2.726l0.544-0.196l0.544-0.198c0.033,0.104,0.671,2.14-0.612,3.834
			c-0.756,0.987-1.631,1.41-2.837,1.489c-0.051,0-0.076,0-0.085,0c-0.212,0-0.34-0.197-0.34-0.588
			C94.023,34.911,94.125,34.709,94.32,34.691z"/>
		<path fill="#FFFFFF" d="M52.402,9.563C41.7,8.781,11.021,8.26,9.576,8.879L52.402,9.563z"/>
		<g>
			<g>
				<g>
					<path fill="#EDEEEC" d="M60.225,20.831c0,0,0.587,0.041,0.459,0.587c-0.144,0.63,0.416,1.119,1.164,1.03
						c0.781-0.097,1.205-1.004,0.348-1.885c-0.645-0.661-0.297-1.936-1.01-2.117L60.225,20.831z"/>
					<path fill="#B2B4B6" d="M60.785,22.122c-0.152-0.2-0.203-0.452-0.144-0.715c0.034-0.141,0.017-0.256-0.051-0.344
						c-0.12-0.164-0.366-0.185-0.366-0.185l-0.067-0.005l0.994-2.482l0.042,0.01c0.408,0.104,0.493,0.542,0.586,1.003
						c0.077,0.389,0.162,0.829,0.451,1.127c0.416,0.432,0.577,0.918,0.432,1.335c-0.109,0.341-0.424,0.583-0.806,0.63
						c-0.06,0.007-0.12,0.01-0.179,0.01C61.304,22.506,60.981,22.367,60.785,22.122z M60.293,20.792
						c0.094,0.018,0.271,0.069,0.374,0.214c0.085,0.11,0.102,0.252,0.06,0.422c-0.051,0.231,0,0.458,0.136,0.635
						c0.204,0.257,0.577,0.387,0.978,0.339c0.348-0.043,0.636-0.26,0.738-0.567c0.127-0.383-0.025-0.834-0.416-1.239
						c-0.314-0.318-0.399-0.773-0.476-1.175c-0.085-0.435-0.153-0.811-0.477-0.919L60.293,20.792z"/>
				</g>
				<path fill="#E4E5E6" d="M61.584,19.038c-0.459-0.046-0.705,1.214-0.977,1.7c-0.033,0.053-0.06,0.065-0.086,0.13
					c0.129,0.072,0.298,0.251,0.239,0.517c-0.068,0.301-0.026,0.577,0.178,0.757c0.017-0.003,0.034-0.001,0.051-0.004
					c0.638-0.093,0.841-1.241,0.901-1.961C61.729,19.797,61.703,19.309,61.584,19.038z"/>
				<path fill="#D1D3D4" d="M61.295,21.467c0.128-0.583-0.246-1.08-0.246-1.08c-0.356-0.007-0.527,0.199-0.604,0.475
					c0.162,0.06,0.357,0.204,0.281,0.544c-0.06,0.282,0.017,0.535,0.187,0.721C61.059,22.02,61.21,21.848,61.295,21.467z"/>
				<g>
					<path fill="#EDEEEC" d="M59.359,19.273c0.033-0.406,0.109-1.527,0.492-1.527s1.002,0.07,1.266,0.299
						c0.238,0.223,0.449,0.472,0.492,1.2c0.01,0.354-0.025,1.227-0.416,1.394c-0.611,0.224-1.342,0.246-1.631,0.042
						C59.393,20.545,59.325,20.224,59.359,19.273z"/>
					<path fill="#97989C" d="M59.537,20.719c-0.204-0.155-0.255-0.521-0.221-1.449v-0.06c0.043-0.49,0.127-1.512,0.535-1.512
						c0.434,0,1.027,0.083,1.3,0.313c0.237,0.226,0.468,0.49,0.509,1.233c0,0.291-0.017,1.249-0.45,1.438
						c-0.322,0.119-0.696,0.187-1.019,0.187l0,0C59.902,20.868,59.673,20.815,59.537,20.719z M59.41,19.22v0.056
						c-0.034,0.878,0.017,1.236,0.178,1.367c0.119,0.083,0.332,0.131,0.604,0.131l0,0c0.314,0,0.671-0.066,0.984-0.18
						c0.391-0.168,0.391-1.153,0.391-1.346c-0.041-0.707-0.245-0.946-0.483-1.167c-0.264-0.227-0.899-0.288-1.231-0.288
						C59.529,17.793,59.443,18.83,59.41,19.22z"/>
				</g>
				<path fill="#FFFFFF" d="M60.734,19.526c0.426-0.517-0.849-1.475-1.035-1.611c-0.196,0.314-0.256,1.066-0.281,1.382
					c-0.008,0.247-0.008,0.449-0.008,0.618C59.793,19.896,60.361,19.975,60.734,19.526z"/>
				<path fill="#E4E5E6" d="M61.566,19.254c-0.041-0.715-0.245-0.969-0.483-1.187c0.077,0.349,0.374,1.796-0.153,2.128
					c-0.322,0.199-0.145,0.411,0.103,0.489c0.034-0.014,0.077-0.023,0.11-0.038C61.533,20.479,61.576,19.607,61.566,19.254z"/>
				<path fill="#D1D3D4" d="M61.439,19.962c-0.518,0.48-1.987,0.274-1.987,0.274c-0.017-0.006-0.017-0.003-0.034-0.006
					c0.034,0.248,0.085,0.367,0.17,0.439c0.281,0.198,0.986,0.177,1.58-0.04c0.221-0.096,0.314-0.428,0.357-0.754
					C61.5,19.909,61.474,19.927,61.439,19.962z"/>
			</g>
			<path fill="#6D6E71" d="M59.376,20.25c-0.009-0.105-0.017-0.234-0.026-0.395c0.791,0.09,1.547,0.003,2.26-0.655
				c0,0.017,0,0.029,0,0.045c0.01,0.122,0,0.306-0.017,0.504c-0.468,0.387-0.985,0.542-1.546,0.542
				C59.817,20.292,59.597,20.272,59.376,20.25z"/>
			<g>
				<path fill="#ED9127" d="M59.834,19.984c0.416,0,0.781-0.079,1.113-0.231v0.265c-0.271,0.113-0.569,0.177-0.9,0.177
					c-0.161,0-0.314-0.012-0.467-0.023v-0.197C59.664,19.979,59.75,19.984,59.834,19.984z"/>
				<path fill="#DA592C" d="M59.58,20.195l-0.026-0.003v-0.244l0.026,0.001c0.102,0.008,0.187,0.011,0.254,0.011
					c0.408,0,0.765-0.075,1.104-0.229l0.034-0.016v0.318l-0.008,0.006c-0.298,0.12-0.595,0.179-0.918,0.179
					C59.877,20.217,59.716,20.205,59.58,20.195z M60.93,19.79c-0.339,0.146-0.695,0.218-1.096,0.218
					c-0.067,0-0.135-0.003-0.229-0.008v0.148c0.127,0.009,0.28,0.021,0.441,0.021c0.314,0,0.604-0.057,0.883-0.17V19.79z"/>
			</g>
		</g>
		<g>
			<path fill="#FFFFFF" d="M88.816,23.756c-0.307-0.286-0.705-0.454-1.079-0.62c-0.383-0.162-0.781-0.299-1.172-0.426
				c-0.799-0.244-1.605-0.438-2.421-0.613c-1.622-0.344-3.271-0.574-4.918-0.781c-1.647-0.183-3.296-0.335-4.952-0.439
				c-0.823-0.049-1.656-0.094-2.48-0.13c-0.823-0.026-1.656-0.059-2.48-0.066l2.472,0.21c0.824,0.065,1.648,0.135,2.472,0.211
				c1.648,0.149,3.296,0.301,4.944,0.505c1.639,0.183,3.278,0.416,4.9,0.71c0.815,0.146,1.623,0.317,2.421,0.531
				c0.399,0.104,0.799,0.22,1.189,0.36c0.195,0.07,0.383,0.146,0.569,0.233S88.663,23.618,88.816,23.756z"/>
		</g>
		<ellipse fill="#424042" cx="94.219" cy="33.223" rx="0.416" ry="1.042"/>
		<path fill="#BCBEC0" d="M93.973,33.23c0,0.544,0.135,0.984,0.297,0.984c0.161,0,0.297-0.44,0.297-0.984
			c0-0.543-0.136-0.985-0.297-0.985C94.107,32.245,93.973,32.688,93.973,33.23z"/>
		<ellipse fill="#D1D3D4" cx="94.295" cy="33.23" rx="0.246" ry="0.825"/>
		<path fill="#F1F2F1" d="M94.295,33.99c0.042,0,0.187-0.233,0.187-0.747s-0.145-0.747-0.187-0.747s-0.179,0.233-0.179,0.747
			S94.253,33.99,94.295,33.99z"/>
		<g>
			<path fill="#424042" d="M92.664,27.03c-0.382,0.196-0.942,0.416-1.155,0.178c-1.41-1.823-3.992-0.843-5.156-1.482
				c-0.476-0.255-0.942-1.733-0.942-1.733l5.13,0.238C91.518,24.983,92.12,25.878,92.664,27.03z"/>
			<path fill="#6D6E71" d="M91.798,27.12c0.204,0.001,0.552-0.139,0.789-0.247c-0.492-1.023-1.069-1.868-1.809-2.453l-5.088-0.219
				c0.187,0.535,0.501,1.218,0.748,1.352c0.391,0.215,1.01,0.23,1.656,0.247c1.163,0.029,2.615,0.065,3.567,1.288
				C91.679,27.105,91.722,27.12,91.798,27.12L91.798,27.12z"/>
			<path fill="#E6E7E8" d="M87.602,24.39l3.049,0.133c0.765,0.603,1.249,1.259,1.793,2.32c-0.119,0.079-0.519,0.183-0.629,0.19
				c-0.042,0.001-0.06,0.003-0.093-0.02c-0.969-1.246-2.447-1.282-3.627-1.312c-0.018-0.001-0.043-0.001-0.06-0.001
				C87.984,25.547,87.636,24.548,87.602,24.39z"/>
			<path fill="#D13E18" d="M87.457,24.378c0.085,0.241,0.34,0.998,0.441,1.314c-0.544-0.016-1.096-0.049-1.409-0.223
				c-0.17-0.091-0.425-0.55-0.663-1.163L87.457,24.378z"/>
			<path fill="#EC661B" d="M87.737,25.57c-0.11-0.325-0.28-0.83-0.356-1.079l-1.376-0.061c0.221,0.542,0.434,0.877,0.535,0.935
				C86.812,25.512,87.278,25.55,87.737,25.57z"/>
			<path fill="#F0821A" d="M87.567,25.445c-0.084-0.277-0.204-0.619-0.271-0.841l-1.113-0.047c0.204,0.466,0.366,0.679,0.417,0.706
				C86.812,25.381,87.211,25.424,87.567,25.445z"/>
			<path fill="#F1F2F1" d="M92.443,26.843c-0.119,0.079-0.519,0.183-0.629,0.19c-0.042,0.001-0.06,0.003-0.093-0.02
				c-0.323-0.421-0.714-0.701-1.122-0.893c-0.017-0.697,0.034-1.218,0.077-1.573C91.424,25.144,91.908,25.796,92.443,26.843z"/>
			<path fill="#D1D3D4" d="M89.419,24.512c0,0-0.595,0.1-1.002,0.425c-0.408,0.326,0.815,0.798,1.027,0.815
				c0.204,0.016,0.043-1.246,0.043-1.246L89.419,24.512z"/>
			<path fill="#D1D3D4" d="M90.736,24.643c0,0-0.493,0.112-0.833,0.481c-0.331,0.368,0.68,0.902,0.85,0.921
				c0.178,0.017,0.043-1.409,0.043-1.409L90.736,24.643z"/>
			<g>
				<path fill="#FFFFFF" d="M89.267,25.141c0,0.351,0.102,0.634,0.221,0.634c0.127,0,0.229-0.284,0.229-0.634
					c0-0.351-0.102-0.635-0.229-0.635C89.368,24.506,89.267,24.79,89.267,25.141z"/>
				<path fill="#939498" d="M89.224,25.141c0-0.326,0.094-0.672,0.264-0.672s0.264,0.347,0.264,0.672
					c0,0.325-0.094,0.671-0.264,0.671S89.224,25.466,89.224,25.141z M89.301,25.141c0,0.343,0.102,0.597,0.187,0.597
					c0.094,0,0.187-0.254,0.187-0.597c0-0.343-0.093-0.598-0.187-0.598C89.402,24.543,89.301,24.798,89.301,25.141z"/>
			</g>
			<g>
				<path fill="#FFFFFF" d="M90.516,25.33c0,0.386,0.102,0.7,0.221,0.7c0.127,0,0.229-0.314,0.229-0.7s-0.102-0.698-0.229-0.698
					C90.617,24.632,90.516,24.944,90.516,25.33z"/>
				<path fill="#939498" d="M90.473,25.33c0-0.356,0.094-0.737,0.264-0.737s0.263,0.38,0.263,0.737c0,0.357-0.093,0.737-0.263,0.737
					S90.473,25.687,90.473,25.33z M90.549,25.33c0,0.409,0.11,0.661,0.188,0.661c0.076,0,0.187-0.252,0.187-0.661
					c0-0.408-0.11-0.66-0.187-0.66C90.659,24.67,90.549,24.921,90.549,25.33z"/>
			</g>
			<path fill="#C4C4C4" d="M92.196,26.386h-1.138c0.042,0.032,0.085,0.063,0.136,0.098h1.053
				C92.23,26.45,92.214,26.418,92.196,26.386z M91.925,25.934h-1.826c0.094,0.029,0.195,0.063,0.289,0.099h1.597
				C91.967,25.999,91.942,25.967,91.925,25.934z M87.941,25.432c0.008,0.02,0.008,0.039,0.017,0.058
				c0.009,0.003,0.018,0.01,0.026,0.01h3.635c-0.025-0.035-0.051-0.065-0.076-0.099h-3.559
				C87.967,25.401,87.949,25.414,87.941,25.432z M87.814,25.043c0,0.027,0.024,0.049,0.051,0.049h3.406
				c-0.034-0.033-0.061-0.066-0.094-0.098h-3.313C87.839,24.995,87.814,25.016,87.814,25.043z M87.687,24.677
				c0.009,0.021,0.018,0.042,0.025,0.065c0.009,0.003,0.009,0.008,0.017,0.008h3.194c-0.043-0.034-0.076-0.065-0.119-0.099h-3.075
				C87.712,24.651,87.695,24.663,87.687,24.677z"/>
		</g>
		<ellipse fill="#58595B" cx="97.345" cy="30.626" rx="0.781" ry="0.797"/>
		<ellipse fill="#939498" cx="97.345" cy="30.626" rx="0.603" ry="0.614"/>
	</g>
	<g>
		<g>
			<path fill="#BCBEC0" d="M26.998,22.715c0,0.648,0.773,1.172,1.733,1.172c0.959,0,1.732-0.524,1.732-1.172
				c0-0.649-0.773-1.173-1.732-1.173C27.771,21.542,26.998,22.066,26.998,22.715z"/>
			<path fill="#D1D3D4" d="M26.93,22.715c0-0.688,0.807-1.247,1.801-1.247c0.994,0,1.8,0.559,1.8,1.247s-0.807,1.246-1.8,1.246
				C27.737,23.961,26.93,23.403,26.93,22.715z M27.074,22.715c0,0.606,0.739,1.099,1.657,1.099c0.917,0,1.656-0.493,1.656-1.099
				c0-0.608-0.739-1.1-1.656-1.1C27.813,21.615,27.074,22.107,27.074,22.715z"/>
		</g>
		<g>
			<path fill="#EBEBEB" d="M26.37,22.715c0,0.263,0.221,0.476,0.492,0.476h3.882c0.271,0,0.492-0.213,0.492-0.476l0,0
				c0-0.264-0.221-0.477-0.492-0.477h-3.882C26.59,22.238,26.37,22.451,26.37,22.715L26.37,22.715z"/>
			<path fill="#BCBEC0" d="M26.319,22.715c0-0.293,0.246-0.532,0.543-0.532h3.882c0.297,0,0.543,0.239,0.543,0.532
				c0,0.294-0.247,0.531-0.543,0.531h-3.882C26.564,23.246,26.319,23.009,26.319,22.715z M26.862,22.294
				c-0.238,0-0.433,0.188-0.433,0.421c0,0.231,0.195,0.421,0.433,0.421h3.882c0.237,0,0.433-0.19,0.433-0.421
				c0-0.232-0.196-0.421-0.433-0.421H26.862z"/>
		</g>
		<g>
			<path fill="#EBEBEB" d="M31.202,22.733c0-0.253-0.204-0.459-0.45-0.459l0,0c-0.254,0-0.45,0.206-0.45,0.459l0,0
				c0,0.253,0.196,0.458,0.45,0.458l0,0C30.999,23.191,31.202,22.986,31.202,22.733L31.202,22.733z"/>
			<path fill="#BCBEC0" d="M30.243,22.733c0-0.283,0.229-0.514,0.509-0.514s0.501,0.23,0.501,0.514c0,0.281-0.221,0.512-0.501,0.512
				S30.243,23.015,30.243,22.733z M30.353,22.733c0,0.222,0.178,0.403,0.399,0.403s0.391-0.181,0.391-0.403
				c0-0.223-0.17-0.404-0.391-0.404S30.353,22.511,30.353,22.733z"/>
		</g>
	</g>
	<g>
		<g>
			<path fill="#BCBEC0" d="M46.363,22.715c0,0.648,0.773,1.172,1.725,1.172c0.959,0,1.733-0.524,1.733-1.172
				c0-0.649-0.773-1.173-1.733-1.173C47.136,21.542,46.363,22.066,46.363,22.715z"/>
			<path fill="#D1D3D4" d="M46.287,22.715c0-0.688,0.806-1.247,1.8-1.247c0.994,0,1.809,0.559,1.809,1.247s-0.815,1.246-1.809,1.246
				C47.093,23.961,46.287,23.403,46.287,22.715z M46.431,22.715c0,0.606,0.748,1.099,1.656,1.099c0.917,0,1.665-0.493,1.665-1.099
				c0-0.608-0.748-1.1-1.665-1.1C47.179,21.615,46.431,22.107,46.431,22.715z"/>
		</g>
		<g>
			<path fill="#EBEBEB" d="M45.734,22.715c0,0.263,0.221,0.476,0.493,0.476H50.1c0.272,0,0.493-0.213,0.493-0.476l0,0
				c0-0.264-0.221-0.477-0.493-0.477h-3.873C45.955,22.238,45.734,22.451,45.734,22.715L45.734,22.715z"/>
			<path fill="#BCBEC0" d="M45.675,22.715c0-0.293,0.247-0.532,0.552-0.532H50.1c0.306,0,0.543,0.239,0.543,0.532
				c0,0.294-0.237,0.531-0.543,0.531h-3.873C45.921,23.246,45.675,23.009,45.675,22.715z M46.227,22.294
				c-0.246,0-0.442,0.188-0.442,0.421c0,0.231,0.196,0.421,0.442,0.421H50.1c0.238,0,0.442-0.19,0.442-0.421
				c0-0.232-0.204-0.421-0.442-0.421H46.227z"/>
		</g>
		<g>
			<path fill="#EBEBEB" d="M50.559,22.733c0-0.253-0.196-0.459-0.45-0.459l0,0c-0.247,0-0.451,0.206-0.451,0.459l0,0
				c0,0.253,0.204,0.458,0.451,0.458l0,0C50.363,23.191,50.559,22.986,50.559,22.733L50.559,22.733z"/>
			<path fill="#BCBEC0" d="M49.607,22.733c0-0.283,0.221-0.514,0.501-0.514s0.51,0.23,0.51,0.514c0,0.281-0.229,0.512-0.51,0.512
				S49.607,23.015,49.607,22.733z M49.71,22.733c0,0.222,0.178,0.403,0.399,0.403s0.399-0.181,0.399-0.403
				c0-0.223-0.179-0.404-0.399-0.404S49.71,22.511,49.71,22.733z"/>
		</g>
	</g>
	<g>
		<path fill="#79171C" d="M70.639,24.152c-0.492,0-0.874-0.232-0.874-0.527s0.382-0.524,0.874-0.524
			c0.493,0,0.884,0.229,0.884,0.524S71.132,24.152,70.639,24.152z"/>
		<path fill="#C01920" d="M69.841,23.625c0,0.249,0.356,0.451,0.798,0.451c0.45,0,0.807-0.202,0.807-0.451s-0.356-0.45-0.807-0.45
			C70.197,23.175,69.841,23.376,69.841,23.625z"/>
		<path fill="#DE1919" d="M70.639,23.924c-0.399,0-0.653-0.176-0.653-0.299c0-0.12,0.254-0.298,0.653-0.298s0.654,0.178,0.654,0.298
			C71.293,23.749,71.038,23.924,70.639,23.924z"/>
	</g>
</g>
</svg>
