<?xml version="1.0" encoding="utf-8"?>
<!-- Generator: Adobe Illustrator 16.0.0, SVG Export Plug-In . SVG Version: 6.00 Build 0)  -->
<!DOCTYPE svg PUBLIC "-//W3C//DTD SVG 1.1//EN" "http://www.w3.org/Graphics/SVG/1.1/DTD/svg11.dtd">
<svg version="1.1" id="图层_1" xmlns="http://www.w3.org/2000/svg" xmlns:xlink="http://www.w3.org/1999/xlink" x="0px" y="0px"
	 width="1672.439px" height="1048.82px" viewBox="0 0 1672.439 1048.82" enable-background="new 0 0 1672.439 1048.82"
	 xml:space="preserve">
<polygon fill="#4694D1" points="824.248,352.401 632.202,463.013 837.143,579.845 1039.032,461.402 "/>
<polygon fill="#0079C3" points="632.202,463.013 632.202,695.411 837.143,813.854 837.143,579.732 "/>
<polygon fill="#005EAD" points="837.143,813.854 1039.032,696.659 1039.032,461.402 837.143,579.732 "/>
<polygon fill="#58A135" points="622.462,455.37 622.462,506.777 632.202,512.862 632.202,554.067 645.45,560.782 645.45,574.63 
	655.731,580.297 655.731,593.935 678.76,604.048 678.76,592.619 689.094,598.473 689.094,612.32 700.844,618.405 700.844,645.263 
	712.594,650.298 712.594,677.996 724.135,683.661 724.135,737.166 734.673,741.992 734.673,767.59 769.247,787.523 769.247,735.488 
	790.858,747.867 790.858,722.898 802.188,728.983 802.188,691.214 746.376,659.741 746.376,644.633 724.344,632.253 
	724.344,617.986 712.324,612.53 712.324,585.253 723.085,589.659 723.085,540.561 734.673,545.597 734.673,521.374 "/>
<polygon fill="#007440" points="745.593,514.196 734.673,521.374 734.673,545.597 745.593,540.382 "/>
<polygon fill="#007440" points="723.085,589.659 734.673,585.78 734.673,545.597 723.085,540.561 "/>
<polygon fill="#007440" points="719.273,588.099 719.273,607.339 734.673,612.171 734.673,624.996 757.184,638.435 757.184,651.015 
	813.314,683.539 813.314,723.87 802.188,728.983 802.188,691.214 746.376,659.741 746.376,644.633 724.344,632.253 724.344,617.986 
	712.324,612.53 712.324,585.253 "/>
<polygon fill="#007440" points="802.188,728.983 802.188,742.086 790.858,747.867 790.858,722.898 "/>
<polygon fill="#007440" points="779.699,741.477 779.699,780.657 769.247,787.523 769.247,735.488 "/>
<polygon fill="#007440" points="622.559,674.447 632.301,680.521 632.301,693.347 644.941,700.798 644.941,713.36 654.984,708.578 
	654.984,695.004 644.314,689.354 644.314,676.017 632.301,668.796 "/>
<polygon fill="#58A135" points="622.559,674.447 622.186,701.11 644.941,713.36 644.941,700.798 632.301,693.347 632.301,680.521 
	"/>
<polygon fill="#387D39" points="791.322,358.285 791.322,371.523 803.104,377.711 814.184,370.601 870.396,403.874 881.199,396.766 
	915.846,416.973 925.639,408.579 878.917,383.959 870.104,389.695 814.184,358.197 "/>
<polygon fill="#387D39" points="915.846,416.973 915.846,429.257 938.089,442.837 948.318,436.368 949.455,436.368 949.455,449.094 
	962.007,456.278 962.007,469.002 994.352,487.588 1006.628,481.458 979.889,445.396 966.234,432.314 962.822,425.774 
	944.906,416.973 "/>
<polygon fill="#165330" points="994.352,487.588 994.352,501.429 983.587,507.97 971.355,501.068 961.236,506.999 961.236,533.851 
	971.355,540.561 938.089,560.583 938.089,576.311 928.41,579.732 928.41,594.953 915.846,600.116 915.846,638.435 938.089,649.599 
	950.807,644.755 950.807,657.118 961.236,661.544 972.533,657.118 972.533,696.082 972.533,698.998 983.011,701.078 
	983.011,707.619 994.962,711.036 1006.904,694.82 1040.178,544.377 1052.542,519.816 1039.032,514.196 1039.032,497.449 
	1013.162,506.552 1004.63,515.936 1006.628,521.374 1006.628,534.7 994.962,527.883 983.587,532.996 977.471,521.374 
	983.587,519.632 994.107,526.453 1000.363,516.222 1006.628,511.103 1010.887,501.719 1014.3,482.945 1006.628,481.458 "/>
<polygon fill="#18943B" points="1006.628,481.458 1006.628,508.251 994.107,514.196 994.107,526.453 1039.032,501.711 
	1039.032,514.196 1016.571,526.453 1016.571,552.616 1028.805,548.219 1029.089,562.107 1016.823,567.013 1016.571,554.893 
	1006.64,558.854 1006.628,534.7 949.457,566.268 949.457,579.732 936.943,585.253 936.943,600.965 926.99,604.663 926.99,642.774 
	938.089,638.435 938.089,649.599 961.236,640.783 961.236,661.544 983.011,653.012 983.011,701.078 994.962,695.361 
	994.962,711.036 1017.143,699.091 1017.143,681.455 1028.52,676.336 1028.52,651.022 1039.032,646.475 1039.032,618.034 
	1052.542,609.935 1052.542,519.816 1039.032,526.457 1039.032,514.196 1052.486,508.42 1052.486,453.563 "/>
<polygon fill="#2E843A" points="971.355,514.196 971.355,540.561 983.587,532.996 983.587,507.97 "/>
<polygon fill="#2C893A" points="666.713,428.862 666.713,459.051 706.737,498.416 724.059,503.814 724.059,474.897 703.137,471.872 
	712.324,469.059 712.324,455.37 690.798,443.558 690.807,429.257 677.048,427.56 "/>
<polygon fill="#8BBB38" points="678.464,422.147 666.713,428.862 678.464,436.368 690.807,429.257 "/>
<polygon fill="#8BBB38" points="622.462,455.37 734.673,521.374 745.593,514.196 712.248,494.428 722.955,487.943 712.248,481.328 
	723.441,474.897 700.817,463.013 712.324,455.37 679.503,435.887 668.582,442.06 678.76,448.938 666.713,455.37 655.91,449.358 
	645.719,455.227 633.419,448.938 "/>
<polygon fill="#8EC43E" points="814.184,358.197 870.104,389.695 878.917,383.959 925.639,408.579 915.846,416.973 940.048,429.421 
	948.997,421.867 961.309,429.421 950.957,435.717 971.658,447.747 962.007,456.278 1006.628,481.458 1052.486,453.563 
	865.884,352.401 858.354,357.725 846.885,351.246 838.688,357.725 825.2,350.667 "/>
<polygon fill="#8ABB39" points="791.322,358.285 802.436,352.084 814.184,358.197 803.757,364.203 "/>
<path fill="#0079C3" d="M921.744,488.097l-53.666,36.201l-37.294,2.274L760.93,484.14l2.032-30.572l57.051-35.669l72.175,40.44
	l-0.486,4.181l-8.698,5.489l-14.132-3.922L818.137,432.8l-34.74,22.465l0.008,29.494l41.271,25.344l29.59-3.342l14.894-22.57
	l16.915,4.694l26.79-15.778v-38.01l-0.03-2.14l-8.021,10.337l-85.338-47.816l-75.109,46.961l-3.466,37.275v14.834l85.03,51.648
	l48.573-2.962l65.225-43.918v-14.832L921.744,488.097z M843.132,488.604l-14.021,1.581l-26.416-16.222l-0.002-8.2l15.688-10.146
	l33.061,20.389L843.132,488.604z"/>
<g>
	<path fill="#BAE3F9" d="M825.931,531.364l-85.03-51.649l3.466-52.107l75.109-46.961l93.356,52.312l-3.027,26.123l-23.73,14.973
		l-16.915-4.695l-14.894,22.572l-29.59,3.342l-41.271-25.346l-0.008-29.493l34.74-22.466l50.733,31.287l14.132,3.923l8.698-5.491
		l0.486-4.18l-72.175-40.441l-57.051,35.67l-2.032,30.571l69.854,42.434l37.294-2.272l53.666-36.203l17.984,11.223l-65.225,43.918
		L825.931,531.364z M802.695,459.132l26.416,16.221l14.021-1.582l8.311-12.599l-33.061-20.387l-15.688,10.146L802.695,459.132z"/>
</g>
<g>
	<path fill="#C0D3ED" d="M757.44,702.832c-8.546,0-16.425-0.441-23.581-1.148c-48.16-4.771-92.164-31.88-112.49-59.607
		c-18.245-24.895-11.036-46.103,11.205-65.835l-0.372,9.019c-22.953,20.366-7.813,42.245,0.372,53.412
		c17.841,24.338,55.722,37.623,99.488,41.958c38.338,3.795,98.863-0.555,169.521-42.841
		c52.562-31.452,108.72-75.105,126.737-160.409c4.411-20.884,1.552-38.87-9.986-52.225c-30.91-35.776-96.638-42.493-96.638-42.493
		l-9.454-5.127c0.341,0.004-2.084-0.029,0,0c17.069,0.241,87.68,3.207,116.557,39.229c13.673,17.057,18.796,35.413,14.104,60.535
		c-8.365,44.801-21.511,83.621-47.34,113.381c-20.496,23.616-47.311,46.423-82.818,67.671
		C852.033,694.683,797.073,702.831,757.44,702.832z"/>
</g>
<linearGradient id="SVGID_1_" gradientUnits="userSpaceOnUse" x1="1020.905" y1="730.5371" x2="1020.905" y2="662.0363" gradientTransform="matrix(1 0 0 -1 -0.02 1047.915)">
	<stop  offset="0" style="stop-color:#FFFFFF"/>
	<stop  offset="1" style="stop-color:#FFFFFF;stop-opacity:0"/>
</linearGradient>
<path fill="url(#SVGID_1_)" d="M1001.255,371.82c0,0-11.314-2.704-4.08-11.448c0,0-2.6-10.491,10.385-10.81
	c0,0,2.226-7.79,11.869-6.835c0,0,8.717,0.954,9.271,6.358c0,0,7.418-1.271,9.83,3.18c0,0,1.298,1.985,1.298,4.967
	c0,0,8.345,2.823,7.048,8.863c0,0-0.369,3.976-5.191,5.725H1001.255L1001.255,371.82z"/>
<linearGradient id="SVGID_2_" gradientUnits="userSpaceOnUse" x1="1052.2556" y1="694.3916" x2="1052.2556" y2="659.4437" gradientTransform="matrix(1 0 0 -1 -0.02 1047.915)">
	<stop  offset="0" style="stop-color:#FFFFFF"/>
	<stop  offset="1" style="stop-color:#FFFFFF;stop-opacity:0"/>
</linearGradient>
<path fill="url(#SVGID_2_)" d="M1032.605,378.333c0,0-11.314-2.702-4.08-11.446c0,0-2.596-10.493,10.386-10.811
	c0,0,2.227-7.789,11.87-6.835c0,0,8.715,0.954,9.271,6.358c0,0,7.42-1.271,9.828,3.18c0,0,1.301,1.984,1.301,4.968
	c0,0,8.344,2.82,7.046,8.863c0,0-0.368,3.975-5.192,5.723H1032.605L1032.605,378.333z"/>
<g>
	<polygon fill="#BD7132" points="646.379,463.382 642.811,461.634 642.811,444.905 646.379,444.905 	"/>
	<polygon fill="#E09C2E" points="646.379,463.382 649.302,461.983 649.302,444.905 646.379,444.905 	"/>
	<polygon fill="#3D8339" points="633.07,438.008 639.626,434.493 645.901,433.09 659.637,438.354 645.542,445.252 632.555,439.937 	
		"/>
	<polygon fill="#AACF52" points="645.542,451.456 645.542,444.049 633.07,438.008 629.382,444.562 	"/>
	<polygon fill="#699D33" points="663.525,444.562 659.637,438.354 645.542,444.049 645.542,451.456 	"/>
	<polygon fill="#3D8339" points="636.289,429.739 642.249,426.896 645.901,424.982 656.468,430.005 646.885,437.398 639.91,434.846 
			"/>
	<polygon fill="#AACF52" points="645.763,439.954 645.763,434.328 636.289,429.739 633.488,434.718 	"/>
	<polygon fill="#699D33" points="659.417,434.718 656.468,430.005 645.763,434.328 645.763,439.954 	"/>
	<polygon fill="#AACF52" points="645.901,409.679 636.126,427.051 645.901,431.221 	"/>
	<polygon fill="#699D33" points="645.901,431.221 645.901,409.679 656.779,427.051 	"/>
</g>
<g>
	<polygon fill="#BD7132" points="1034.064,631.159 1034.664,629.936 1040.408,629.936 1040.408,631.159 	"/>
	<polygon fill="#925F25" points="1034.064,631.159 1034.546,632.163 1040.408,632.163 1040.408,631.159 	"/>
	<polygon fill="#3D8339" points="1042.777,626.591 1043.983,628.842 1044.467,630.996 1042.658,635.712 1040.289,630.873 
		1042.115,626.413 	"/>
	<polygon fill="#58A135" points="1038.16,630.873 1040.702,630.873 1042.777,626.591 1040.525,625.323 	"/>
	<polygon fill="#007440" points="1040.525,637.048 1042.658,635.712 1040.702,630.873 1038.16,630.873 	"/>
	<polygon fill="#3D8339" points="1045.617,627.696 1046.594,629.742 1047.251,630.996 1045.525,634.624 1042.986,631.334 
		1043.863,628.938 	"/>
	<polygon fill="#58A135" points="1042.109,630.948 1044.042,630.948 1045.617,627.696 1043.906,626.734 	"/>
	<polygon fill="#007440" points="1043.906,635.638 1045.525,634.624 1044.042,630.948 1042.109,630.948 	"/>
	<polygon fill="#58A135" points="1052.507,630.996 1046.539,627.64 1045.107,630.996 	"/>
	<polygon fill="#007440" points="1045.107,630.996 1052.507,630.996 1046.539,634.731 	"/>
</g>
<g>
	<polygon fill="#BD7132" points="854.432,367.819 851.591,366.426 851.591,353.092 854.432,353.092 	"/>
	<polygon fill="#E09C2E" points="854.432,367.819 856.762,366.705 856.762,353.092 854.432,353.092 	"/>
	<polygon fill="#3D8339" points="843.824,347.594 849.05,344.792 854.053,343.674 865.001,347.87 853.766,353.368 843.414,349.131 	
		"/>
	<polygon fill="#AACF52" points="853.766,358.313 853.766,352.409 843.824,347.594 840.885,352.817 	"/>
	<polygon fill="#699D33" points="868.101,352.817 865.001,347.87 853.766,352.409 853.766,358.313 	"/>
	<polygon fill="#3D8339" points="846.391,341.003 851.141,338.736 854.053,337.211 862.475,341.214 854.837,347.107 
		849.277,345.073 	"/>
	<polygon fill="#AACF52" points="853.941,349.145 853.941,344.66 846.391,341.003 844.158,344.971 	"/>
	<polygon fill="#699D33" points="864.826,344.971 862.475,341.214 853.941,344.66 853.941,349.145 	"/>
	<polygon fill="#AACF52" points="854.053,325.013 846.26,338.859 854.053,342.184 	"/>
	<polygon fill="#699D33" points="854.053,342.184 854.053,325.013 862.723,338.859 	"/>
</g>
<g>
	<polygon fill="#BD7132" points="883.746,371.787 880.759,370.322 880.759,356.301 883.746,356.301 	"/>
	<polygon fill="#E09C2E" points="883.746,371.787 886.197,370.615 886.197,356.301 883.746,356.301 	"/>
	<polygon fill="#3D8339" points="872.594,350.521 878.087,347.574 883.348,346.398 894.86,350.811 883.048,356.592 872.162,352.137 
			"/>
	<polygon fill="#AACF52" points="883.048,361.792 883.048,355.583 872.594,350.521 869.501,356.013 	"/>
	<polygon fill="#699D33" points="898.119,356.013 894.86,350.811 883.048,355.583 883.048,361.792 	"/>
	<polygon fill="#3D8339" points="875.292,343.59 880.286,341.207 883.348,339.603 892.203,343.812 884.173,350.009 878.327,347.87 	
		"/>
	<polygon fill="#AACF52" points="883.23,352.15 883.23,347.436 875.292,343.59 872.944,347.762 	"/>
	<polygon fill="#699D33" points="894.677,347.762 892.203,343.812 883.23,347.436 883.23,352.15 	"/>
	<polygon fill="#AACF52" points="883.348,326.776 875.154,341.336 883.348,344.831 	"/>
	<polygon fill="#699D33" points="883.348,344.831 883.348,326.776 892.466,341.336 	"/>
</g>
<g>
	<polygon fill="#F7F1CF" points="682.604,471.298 683.236,461.378 670.044,469.362 669.419,479.153 	"/>
	<polygon fill="#E9CC76" points="669.419,479.153 655.332,470.951 655.85,462.833 663.305,456.273 670.044,469.362 	"/>
	<path fill="#F9C071" d="M676.891,447.229l8.224,15.021l-13.316,7.414c0,0-0.878,0.501-1.783,0.146
		c-0.908-0.353-1.767-1.629-1.767-1.629l-5.025-10.604l-6.157,5.407c0,0-0.34,0.384-1.231,0.105
		c-0.896-0.276-1.301-0.648-1.301-0.648l8.846-8.674L676.891,447.229z"/>
	<path fill="#B6643A" d="M670.014,469.811c-0.908-0.353-1.767-1.629-1.767-1.629l-5.025-10.604l-6.157,5.407
		c0,0-0.34,0.384-1.23,0.105c-0.896-0.276-1.302-0.648-1.302-0.648l8.845-8.674l8.041,16.047
		C671.078,469.926,670.565,470.031,670.014,469.811z"/>
	<polygon fill="#9D4727" points="680.199,468.604 681.044,468.292 681.16,466.457 680.316,466.769 	"/>
	<polygon fill="#9D4727" points="677.335,469.991 678.178,469.679 678.296,467.843 677.451,468.155 	"/>
	<polygon fill="#9D4727" points="661.49,468.674 663.086,469.599 662.725,475.255 661.13,474.328 	"/>
</g>
<g>
	<g>
		
			<rect x="1023.045" y="676.655" transform="matrix(0.5105 0.8599 -0.8599 0.5105 1088.3721 -557.9495)" fill="#FFFFFF" width="22.382" height="0.589"/>
	</g>
	<g>
		
			<rect x="1033.18" y="689.081" transform="matrix(0.9085 0.4178 -0.4178 0.9085 388.7539 -367.3716)" fill="#FFFFFF" width="0.589" height="30.338"/>
	</g>
	<g>
		
			<rect x="1010.842" y="724.529" transform="matrix(-0.0265 0.9996 -0.9996 -0.0265 1771.5635 -257.4408)" fill="#FFFFFF" width="0.59" height="18.757"/>
	</g>
	<circle fill="#FFFFFF" cx="1000.088" cy="733.508" r="1.694"/>
	<g>
		<path fill="#FFFFFF" d="M1027.74,704.612l-0.899,33.206l-6.701-0.182l0.899-33.207L1027.74,704.612z M1026.266,737.213
			l0.869-32.028l-5.523-0.148l-0.867,32.028L1026.266,737.213z"/>
	</g>
	<g>
		<g>
			<path fill="#FFFFFF" d="M1027.031,730.724l-0.19,7.096l-6.701-0.182l0.192-7.095L1027.031,730.724z M1026.266,737.213l0.16-5.914
				l-5.521-0.149l-0.16,5.914L1026.266,737.213z"/>
		</g>
		<g>
			
				<rect x="1023.281" y="729.722" transform="matrix(0.7096 0.7046 -0.7046 0.7096 814.566 -508.0092)" fill="#FFFFFF" width="0.588" height="8.929"/>
		</g>
	</g>
	<g>
		<g>
			<path fill="#FFFFFF" d="M1027.208,724.221l-0.191,7.094l-6.701-0.182l0.191-7.093L1027.208,724.221z M1026.442,730.709
				l0.161-5.915l-5.523-0.15l-0.157,5.916L1026.442,730.709z"/>
		</g>
		<g>
			
				<rect x="1023.502" y="723.205" transform="matrix(0.7104 0.7038 -0.7038 0.7104 808.5911 -509.8074)" fill="#FFFFFF" width="0.588" height="8.928"/>
		</g>
	</g>
	<g>
		<g>
			<path fill="#FFFFFF" d="M1027.385,717.716l-0.193,7.094l-6.699-0.18l0.191-7.096L1027.385,717.716z M1026.619,724.205l0.16-5.915
				l-5.521-0.149l-0.161,5.915L1026.619,724.205z"/>
		</g>
		<g>
			
				<rect x="1023.697" y="716.71" transform="matrix(0.7079 0.7063 -0.7063 0.7079 808.4208 -512.5924)" fill="#FFFFFF" width="0.589" height="8.929"/>
		</g>
	</g>
	<g>
		<g>
			<path fill="#FFFFFF" d="M1027.561,711.212l-0.192,7.094l-6.699-0.181l0.19-7.094L1027.561,711.212z M1026.796,717.701l0.16-5.915
				l-5.521-0.15l-0.16,5.916L1026.796,717.701z"/>
		</g>
		<g>
			
				<rect x="1023.878" y="710.183" transform="matrix(0.7112 0.703 -0.703 0.7112 798.1191 -513.5837)" fill="#FFFFFF" width="0.59" height="8.929"/>
		</g>
	</g>
	<g>
		<g>
			<path fill="#FFFFFF" d="M1027.736,704.709l-0.19,7.094l-6.699-0.183l0.188-7.093L1027.736,704.709z M1026.971,711.197
				l0.161-5.915l-5.522-0.148l-0.16,5.914L1026.971,711.197z"/>
		</g>
		<g>
			
				<rect x="1023.921" y="703.723" transform="matrix(0.7088 0.7054 -0.7054 0.7088 797.8812 -516.2804)" fill="#FFFFFF" width="0.59" height="8.928"/>
		</g>
	</g>
	<g>
		<g>
			<path fill="#FFFFFF" d="M1027.914,698.204l-0.192,7.095l-6.699-0.182l0.191-7.095L1027.914,698.204z M1027.148,704.693
				l0.16-5.915l-5.523-0.15l-0.159,5.915L1027.148,704.693z"/>
		</g>
		<g>
			
				<rect x="1024.098" y="697.218" transform="matrix(0.7088 0.7054 -0.7054 0.7088 793.3439 -518.2996)" fill="#FFFFFF" width="0.59" height="8.928"/>
		</g>
	</g>
	<g>
		<g>
			<path fill="#FFFFFF" d="M1028.089,691.7l-0.191,7.094l-6.701-0.183l0.193-7.094L1028.089,691.7z M1027.324,698.188l0.16-5.915
				l-5.522-0.149l-0.16,5.915L1027.324,698.188z"/>
		</g>
		<g>
			
				<rect x="1024.273" y="690.714" transform="matrix(0.7088 0.7054 -0.7054 0.7088 788.8074 -520.3171)" fill="#FFFFFF" width="0.59" height="8.93"/>
		</g>
	</g>
	<g>
		
			<rect x="1021.532" y="685.611" transform="matrix(-0.0273 0.9996 -0.9996 -0.0273 1741.1936 -316.9186)" fill="#FFFFFF" width="6.505" height="6.115"/>
		<line fill="none" x1="1021.676" y1="691.821" x2="1027.964" y2="685.483"/>
	</g>
	<g>
		<g>
			<path fill="#FFFFFF" d="M1028.442,678.692l-0.193,7.094l-6.698-0.182l0.191-7.094L1028.442,678.692z M1027.677,685.182
				l0.162-5.916l-5.523-0.148l-0.159,5.914L1027.677,685.182z"/>
		</g>
		<g>
			
				<rect x="1024.724" y="677.761" transform="matrix(0.7104 0.7038 -0.7038 0.7104 776.9613 -523.8273)" fill="#FFFFFF" width="0.588" height="8.927"/>
		</g>
	</g>
	<g>
		<g>
			<path fill="#FFFFFF" d="M1028.619,672.189l-0.193,7.093l-6.7-0.183l0.191-7.094L1028.619,672.189z M1027.854,678.677l0.16-5.916
				l-5.523-0.147l-0.16,5.915L1027.854,678.677z"/>
		</g>
		<g>
			
				<rect x="1024.863" y="671.103" transform="matrix(0.7088 0.7055 -0.7055 0.7088 775.1506 -526.4471)" fill="#FFFFFF" width="0.591" height="8.927"/>
		</g>
	</g>
	<g>
		<g>
			<path fill="#FFFFFF" d="M1028.796,665.684l-0.192,7.096l-6.701-0.183l0.191-7.095L1028.796,665.684z M1028.029,672.173
				l0.16-5.915l-5.522-0.149l-0.16,5.914L1028.029,672.173z"/>
		</g>
		<g>
			
				<rect x="1025.032" y="664.684" transform="matrix(0.7096 0.7046 -0.7046 0.7096 769.2583 -528.1334)" fill="#FFFFFF" width="0.589" height="8.928"/>
		</g>
	</g>
	<g>
		<g>
			<path fill="#FFFFFF" d="M996.134,684.522l-0.183,6.699l-7.092-0.191l0.181-6.7L996.134,684.522z M995.378,690.618l0.149-5.522
				l-5.915-0.159l-0.148,5.521L995.378,690.618z"/>
		</g>
		<g>
			
				<rect x="988" y="687.489" transform="matrix(0.7098 0.7044 -0.7044 0.7098 772.521 -499.5048)" fill="#FFFFFF" width="8.927" height="0.592"/>
		</g>
	</g>
	<g>
		<g>
			<path fill="#FFFFFF" d="M1002.639,684.698l-0.185,6.7l-7.094-0.192l0.183-6.7L1002.639,684.698z M1001.884,690.793l0.149-5.521
				l-5.916-0.16l-0.149,5.521L1001.884,690.793z"/>
		</g>
		<g>
			
				<rect x="994.608" y="687.646" transform="matrix(0.7099 0.7043 -0.7043 0.7099 774.3663 -504.0811)" fill="#FFFFFF" width="8.929" height="0.59"/>
		</g>
	</g>
	<g>
		<g>
			<path fill="#FFFFFF" d="M1009.141,684.875l-0.182,6.7l-7.093-0.192l0.183-6.7L1009.141,684.875z M1008.387,690.97l0.147-5.521
				l-5.913-0.16l-0.148,5.523L1008.387,690.97z"/>
		</g>
		<g>
			
				<rect x="1001.008" y="687.842" transform="matrix(0.7098 0.7044 -0.7044 0.7098 776.4528 -508.5483)" fill="#FFFFFF" width="8.927" height="0.59"/>
		</g>
	</g>
	<g>
		<g>
			<path fill="#FFFFFF" d="M1015.646,685.051l-0.184,6.699l-7.095-0.191l0.183-6.699L1015.646,685.051z M1014.89,691.146
				l0.151-5.521l-5.916-0.161l-0.15,5.522L1014.89,691.146z"/>
		</g>
		<g>
			
				<rect x="1007.526" y="688.015" transform="matrix(0.7099 0.7043 -0.7043 0.7099 778.3733 -513.0713)" fill="#FFFFFF" width="8.928" height="0.59"/>
		</g>
	</g>
	<g>
		<g>
			<path fill="#FFFFFF" d="M1022.148,685.228l-0.181,6.699l-7.094-0.19l0.183-6.7L1022.148,685.228z M1021.395,691.322l0.148-5.521
				l-5.914-0.16l-0.149,5.521L1021.395,691.322z"/>
		</g>
		<g>
			
				<rect x="1014.111" y="688.176" transform="matrix(0.7098 0.7044 -0.7044 0.7098 780.489 -517.6796)" fill="#FFFFFF" width="8.926" height="0.592"/>
		</g>
	</g>
	<path fill="#FFFFFF" d="M1037.87,689.602c0,0-10.261,3.248-14.943,7l-3.7-0.101l0.362-13.389l8.278,0.224l10.052,4.504
		L1037.87,689.602z"/>
	
		<rect x="1021.941" y="685.749" transform="matrix(0.0271 -0.9996 0.9996 0.0271 308.8753 1693.7635)" fill="#FFFFFF" width="5.232" height="4.916"/>
	<g>
		<path fill="#FFFFFF" d="M1039.889,686.297c1.225,0.033,2.195,1.058,2.163,2.282c-0.034,1.226-1.059,2.195-2.282,2.162
			c-1.227-0.032-2.196-1.059-2.164-2.282C1037.64,687.234,1038.663,686.265,1039.889,686.297z M1039.874,686.887
			c-0.9-0.023-1.652,0.688-1.679,1.589c-0.022,0.9,0.689,1.652,1.589,1.678c0.9,0.023,1.651-0.688,1.68-1.588
			C1041.486,687.663,1040.773,686.911,1039.874,686.887z"/>
	</g>
	<polyline fill="#FFFFFF" points="1026.863,685.807 1021.96,690.751 1022.102,685.521 1027.016,685.654 	"/>
</g>
<g>
	<polygon fill="#A7BEA2" points="604.104,514.25 606.216,509.825 633.441,509.825 633.443,514.25 	"/>
	<rect x="604.104" y="514.249" fill="#FAFCFE" width="51.749" height="34.198"/>
	<rect x="623.925" y="540.769" fill="#E2F1E4" width="32.494" height="22.27"/>
	<rect x="626.516" y="497.635" fill="#E2F1E4" width="31.318" height="28.591"/>
	<rect x="631.079" y="557.659" fill="#A7BEA2" width="3.037" height="1.779"/>
	<rect x="635.794" y="557.659" fill="#A7BEA2" width="3.034" height="1.779"/>
	<rect x="631.081" y="554.099" fill="#A7BEA2" width="3.036" height="1.78"/>
	<rect x="635.792" y="554.099" fill="#A7BEA2" width="3.036" height="1.78"/>
	<rect x="631.079" y="549.336" fill="#A7BEA2" width="3.037" height="1.78"/>
	<rect x="635.794" y="549.336" fill="#A7BEA2" width="3.034" height="1.78"/>
	<rect x="631.08" y="545.776" fill="#A7BEA2" width="3.037" height="1.779"/>
	<rect x="635.794" y="545.776" fill="#A7BEA2" width="3.034" height="1.779"/>
	<rect x="630.242" y="512.468" fill="#A7BEA2" width="3.036" height="1.782"/>
	<rect x="634.952" y="512.468" fill="#A7BEA2" width="3.038" height="1.781"/>
	<rect x="639.667" y="512.468" fill="#A7BEA2" width="3.035" height="1.781"/>
	<rect x="644.379" y="512.468" fill="#A7BEA2" width="3.035" height="1.782"/>
	<rect x="630.242" y="508.908" fill="#A7BEA2" width="3.035" height="1.78"/>
	<rect x="634.952" y="508.908" fill="#A7BEA2" width="3.037" height="1.778"/>
	<rect x="630.242" y="504.3" fill="#A7BEA2" width="3.035" height="1.779"/>
	<rect x="634.952" y="504.301" fill="#A7BEA2" width="3.037" height="1.778"/>
	<rect x="630.24" y="500.739" fill="#A7BEA2" width="3.037" height="1.779"/>
	<rect x="634.952" y="500.74" fill="#A7BEA2" width="3.037" height="1.779"/>
	<rect x="639.665" y="508.908" fill="#A7BEA2" width="3.038" height="1.778"/>
	<rect x="644.378" y="508.908" fill="#A7BEA2" width="3.035" height="1.778"/>
	<polygon fill="#2C893A" points="613.064,529.685 609.733,529.684 609.734,533.013 613.064,533.013 613.064,536.344 
		616.395,536.344 616.395,533.013 619.727,533.013 619.727,529.685 616.396,529.684 616.396,526.352 613.064,526.352 	"/>
	<polygon fill="#C1E1C6" points="623.927,540.769 626.035,536.344 655.852,536.344 656.42,540.769 	"/>
	<polygon fill="#C1E1C6" points="626.513,497.634 628.624,493.212 655.853,493.211 657.836,497.635 	"/>
</g>
<g>
	<polygon fill="#BD7132" points="656.923,564.891 656.106,566.552 648.312,566.552 648.312,564.891 	"/>
	<polygon fill="#E09C2E" points="656.923,564.891 656.271,563.528 648.312,563.528 648.312,564.891 	"/>
	<polygon fill="#3D8339" points="645.099,571.091 643.463,568.037 642.808,565.113 645.261,558.713 648.474,565.279 645.997,571.33 
			"/>
	<polygon fill="#AACF52" points="651.364,565.279 647.913,565.279 645.099,571.091 648.151,572.811 	"/>
	<polygon fill="#007440" points="648.151,556.9 645.261,558.713 647.913,565.279 651.364,565.279 	"/>
	<polygon fill="#3D8339" points="641.245,569.591 639.923,566.813 639.03,565.113 641.369,560.189 644.815,564.653 643.626,567.903 
			"/>
	<polygon fill="#AACF52" points="646.007,565.178 643.385,565.178 641.245,569.591 643.565,570.896 	"/>
	<polygon fill="#007440" points="643.565,558.814 641.369,560.189 643.385,565.178 646.007,565.178 	"/>
	<polygon fill="#AACF52" points="631.898,565.113 639.993,569.668 641.936,565.113 	"/>
	<polygon fill="#007440" points="641.936,565.113 631.898,565.113 639.993,560.044 	"/>
</g>
<g>
	<polygon fill="#BD7132" points="632.574,470.872 631.76,472.533 623.966,472.533 623.966,470.872 	"/>
	<polygon fill="#E09C2E" points="632.574,470.872 631.925,469.51 623.966,469.51 623.966,470.872 	"/>
	<polygon fill="#3D8339" points="620.751,477.072 619.114,474.019 618.461,471.095 620.913,464.694 624.126,471.261 
		621.649,477.312 	"/>
	<polygon fill="#AACF52" points="627.017,471.261 623.565,471.261 620.751,477.072 623.804,478.792 	"/>
	<polygon fill="#007440" points="623.804,462.882 620.913,464.694 623.565,471.261 627.017,471.261 	"/>
	<polygon fill="#3D8339" points="616.897,475.572 615.573,472.795 614.683,471.095 617.021,466.171 620.469,470.635 
		619.278,473.885 	"/>
	<polygon fill="#AACF52" points="621.657,471.159 619.036,471.159 616.897,475.572 619.219,476.878 	"/>
	<polygon fill="#007440" points="619.219,464.796 617.021,466.171 619.036,471.159 621.657,471.159 	"/>
	<polygon fill="#AACF52" points="607.552,471.095 615.646,475.649 617.589,471.095 	"/>
	<polygon fill="#007440" points="617.589,471.095 607.552,471.095 615.646,466.025 	"/>
</g>
<g>
	<polygon fill="#BD7132" points="718.281,549.371 717.467,551.032 709.673,551.032 709.673,549.371 	"/>
	<polygon fill="#E09C2E" points="718.281,549.371 717.632,548.009 709.673,548.009 709.673,549.371 	"/>
	<polygon fill="#3D8339" points="706.458,555.571 704.821,552.518 704.167,549.594 706.62,543.193 709.833,549.76 707.356,555.811 	
		"/>
	<polygon fill="#AACF52" points="712.724,549.76 709.272,549.76 706.458,555.571 709.511,557.291 	"/>
	<polygon fill="#007440" points="709.511,541.381 706.62,543.193 709.272,549.76 712.724,549.76 	"/>
	<polygon fill="#3D8339" points="702.604,554.071 701.28,551.294 700.39,549.594 702.729,544.67 706.176,549.134 704.985,552.384 	
		"/>
	<polygon fill="#AACF52" points="707.364,549.658 704.743,549.658 702.604,554.071 704.926,555.377 	"/>
	<polygon fill="#007440" points="704.926,543.295 702.729,544.67 704.743,549.658 707.364,549.658 	"/>
	<polygon fill="#AACF52" points="693.259,549.594 701.353,554.148 703.296,549.594 	"/>
	<polygon fill="#007440" points="703.296,549.594 693.259,549.594 701.353,544.524 	"/>
</g>
<g>
	<polygon fill="#BD7132" points="721.027,563.642 720.365,564.99 714.037,564.99 714.037,563.642 	"/>
	<polygon fill="#E09C2E" points="721.027,563.642 720.498,562.536 714.037,562.536 714.037,563.642 	"/>
	<polygon fill="#3D8339" points="711.43,568.675 710.101,566.196 709.569,563.822 711.561,558.627 714.17,563.957 712.158,568.869 	
		"/>
	<polygon fill="#AACF52" points="716.516,563.957 713.716,563.957 711.43,568.675 713.908,570.071 	"/>
	<polygon fill="#007440" points="713.908,557.155 711.561,558.627 713.716,563.957 716.516,563.957 	"/>
	<polygon fill="#3D8339" points="708.302,567.457 707.227,565.203 706.504,563.822 708.401,559.825 711.199,563.449 
		710.234,566.088 	"/>
	<polygon fill="#AACF52" points="712.165,563.875 710.037,563.875 708.302,567.457 710.185,568.518 	"/>
	<polygon fill="#007440" points="710.185,558.709 708.401,559.825 710.037,563.875 712.165,563.875 	"/>
	<polygon fill="#AACF52" points="700.714,563.822 707.285,567.521 708.861,563.822 	"/>
	<polygon fill="#007440" points="708.861,563.822 700.714,563.822 707.285,559.707 	"/>
</g>
<g>
	<path fill="#FFFFFF" d="M757.44,701.249c-8.546,0-16.425-0.441-23.581-1.148c-48.16-4.771-92.164-31.88-112.49-59.607
		c-18.245-24.895-11.036-46.103,11.205-65.835l-0.372,9.019c-22.953,20.366-7.813,42.245,0.372,53.412
		c17.841,24.338,55.722,37.623,99.488,41.958c38.338,3.795,98.863-0.555,169.521-42.841
		c52.562-31.452,108.72-75.105,126.737-160.409c4.411-20.884,1.052-38.455-9.986-52.225c-28.479-35.523-99.099-42.618-99.8-42.626
		l-9.237-5.007c3.125,0.034,87.099-1.179,119.502,39.242c13.673,17.056,17.928,38.383,12.646,63.388
		c-8.409,39.808-21.935,81.331-47.764,111.091c-20.496,23.616-46.582,44.513-82.09,65.761
		C850.88,691.752,797.073,701.248,757.44,701.249z"/>
</g>
<g>
	<g>
		<path fill="#C0D3ED" d="M925.001,380.964c-3.482-0.216-5.532-0.24-5.554-0.24l0.014-1.134c0.021,0,2.094,0.025,5.607,0.243
			L925.001,380.964z"/>
	</g>
	<g>
		<path fill="#C0D3ED" d="M750.496,691.586c-3.752-0.058-7.53-0.209-11.229-0.447l0.072-1.131c3.68,0.238,7.438,0.39,11.175,0.445
			L750.496,691.586z M761.733,691.496l-0.036-1.133c3.688-0.116,7.446-0.322,11.172-0.609l0.086,1.131
			C769.214,691.173,765.436,691.379,761.733,691.496z M728.072,690.133c-3.726-0.43-7.473-0.964-11.131-1.584l0.183-1.117
			c3.643,0.616,7.367,1.146,11.075,1.574L728.072,690.133z M784.135,689.767l-0.133-1.125c3.657-0.446,7.385-0.981,11.076-1.595
			l0.182,1.117C791.552,688.778,787.809,689.318,784.135,689.767z M705.907,686.366c-3.669-0.835-7.335-1.779-10.896-2.811
			l0.306-1.089c3.541,1.023,7.188,1.964,10.835,2.791L705.907,686.366z M806.305,686.092l-0.224-1.108
			c3.611-0.757,7.281-1.602,10.91-2.515l0.27,1.101C813.619,684.484,809.934,685.334,806.305,686.092z M828.107,680.608
			l-0.311-1.089c3.534-1.038,7.131-2.171,10.688-3.363l0.352,1.075C835.268,678.43,831.656,679.565,828.107,680.608z
			 M684.296,680.092c-3.564-1.276-7.089-2.673-10.477-4.15l0.44-1.041c3.364,1.468,6.866,2.854,10.407,4.124L684.296,680.092z
			 M849.43,673.453l-0.391-1.063c3.463-1.305,6.967-2.7,10.416-4.146l0.43,1.048C856.423,670.742,852.904,672.143,849.43,673.453z
			 M663.65,671.062c-3.379-1.778-6.668-3.683-9.774-5.655l0.594-0.961c3.082,1.959,6.344,3.846,9.694,5.611L663.65,671.062z
			 M870.188,664.762l-0.464-1.03c3.365-1.549,6.768-3.186,10.113-4.864l0.495,1.017
			C876.977,661.567,873.564,663.208,870.188,664.762z M644.616,658.909c-3.063-2.375-5.947-4.866-8.578-7.407l0.771-0.818
			c2.601,2.514,5.455,4.979,8.486,7.325L644.616,658.909z M890.318,654.667l-0.528-0.997c3.256-1.769,6.545-3.624,9.782-5.517
			l0.56,0.982C896.885,651.033,893.583,652.896,890.318,654.667z M909.777,643.314l-0.584-0.968
			c3.253-2.015,6.445-4.043,9.492-6.025l0.604,0.952C916.237,639.264,913.035,641.295,909.777,643.314z M628.387,643.106
			c-2.447-3.082-4.588-6.263-6.361-9.452l0.973-0.556c1.744,3.135,3.852,6.263,6.261,9.297L628.387,643.106z M928.66,631
			l-0.629-0.937c3.144-2.165,6.228-4.355,9.17-6.514l0.655,0.92C934.904,626.633,931.811,628.83,928.66,631z M617.49,623.164
			c-1.169-3.771-1.846-7.566-2.01-11.284l1.115-0.05c0.162,3.62,0.82,7.317,1.961,10.994L617.49,623.164z M946.85,617.654
			l-0.682-0.896c2.995-2.351,5.935-4.739,8.729-7.098l0.715,0.873C952.808,612.898,949.859,615.295,946.85,617.654z
			 M964.109,603.082l-0.748-0.842c2.788-2.545,5.533-5.155,8.16-7.765l0.781,0.812C969.665,597.905,966.909,600.526,964.109,603.082
			z M618.387,602.843l-1.068-0.337c1.104-3.593,2.738-7.083,4.859-10.375l0.938,0.621
			C621.05,595.955,619.46,599.351,618.387,602.843z M980.156,587.137l-0.815-0.771c2.563-2.789,5.066-5.639,7.438-8.471l0.854,0.731
			C985.248,581.473,982.734,584.337,980.156,587.137z M994.69,569.756l-0.886-0.688c2.27-3.005,4.479-6.09,6.568-9.168l0.922,0.642
			C999.195,563.636,996.973,566.736,994.69,569.756z M1007.421,550.994l-0.951-0.596c1.938-3.202,3.818-6.503,5.592-9.809
			l0.982,0.538C1011.261,544.455,1009.369,547.773,1007.421,550.994z M1018.143,530.979l-1.008-0.485
			c1.591-3.382,3.119-6.865,4.547-10.352l1.033,0.434C1021.28,524.082,1019.742,527.582,1018.143,530.979z M1026.753,509.951
			l-1.054-0.381c1.234-3.512,2.409-7.134,3.492-10.765l1.071,0.326C1029.175,502.783,1027.992,506.423,1026.753,509.951z
			 M1033.259,488.16l-1.084-0.275c0.771-3.104,1.498-6.294,2.162-9.479c0.106-0.525,0.213-1.049,0.314-1.57l1.096,0.219
			c-0.102,0.525-0.208,1.054-0.316,1.585C1034.764,481.839,1034.032,485.042,1033.259,488.16z M1037.271,465.729l-1.117-0.082
			c0.146-1.996,0.22-3.98,0.22-5.901c0-1.811-0.065-3.614-0.193-5.369l1.115-0.083c0.129,1.782,0.194,3.617,0.194,5.452
			C1037.49,461.693,1037.417,463.708,1037.271,465.729z M1034.441,443.282c-0.901-3.653-2.141-7.213-3.681-10.581l1.015-0.479
			c1.568,3.434,2.831,7.063,3.752,10.784L1034.441,443.282z M1025.176,423.008c-2.104-2.975-4.53-5.848-7.22-8.542l0.784-0.806
			c2.735,2.739,5.205,5.661,7.343,8.688L1025.176,423.008z M1009.484,407.161c-2.881-2.151-6.029-4.215-9.361-6.134l0.554-0.984
			c3.369,1.94,6.556,4.028,9.473,6.207L1009.484,407.161z M990.152,395.94c-3.281-1.486-6.772-2.892-10.381-4.184l0.37-1.069
			c3.636,1.302,7.157,2.72,10.466,4.217L990.152,395.94z M969.104,388.354c-3.502-0.99-7.158-1.906-10.865-2.723l0.237-1.107
			c3.728,0.819,7.405,1.742,10.929,2.738L969.104,388.354z M947.236,383.515c-3.66-0.605-7.394-1.129-11.1-1.556l0.128-1.127
			c3.723,0.43,7.476,0.954,11.153,1.565L947.236,383.515z"/>
	</g>
	<g>
		<path fill="#C0D3ED" d="M628.604,585.997l-0.816-0.773c1.246-1.348,2.608-2.688,4.045-3.979l0.742,0.847
			C631.162,583.36,629.827,584.676,628.604,585.997z"/>
	</g>
</g>
<g>
	<path fill="#EAC22D" d="M935.39,631.651c0,0-4.736-7.411-7.712-5.889s-14.688,7.661-14.688,7.661l-11.099-0.344
		c0,0-9.762,6.501-11.896,8.758c-2.131,2.257-6.217,7.679-8.153,11.772c-1.937,4.093-3.631,6.548-3.646,7.027
		c-0.018,0.479,0.049,1.222,0.506,1.957c0.455,0.736,2.572,3.659,5.572,1.803c3.01-1.854,51.634-31.897,51.634-31.897
		L935.39,631.651z"/>
	<path fill="#EBA629" d="M935.39,631.651l0.521,0.85c0,0-48.624,30.043-51.634,31.898c-3,1.855-5.117-1.066-5.572-1.804
		c-0.112-0.178-0.198-0.358-0.27-0.537l54.461-33.648C934.33,629.995,935.39,631.651,935.39,631.651z"/>
	<path d="M887.759,660.139c1.545,2.503,4.83,3.279,7.33,1.732c2.506-1.549,3.287-4.832,1.733-7.334
		c-1.545-2.506-4.831-3.281-7.334-1.733C886.986,654.351,886.208,657.633,887.759,660.139z"/>
	<path fill="#DFDFE0" d="M888.836,659.473c1.179,1.909,3.685,2.502,5.593,1.322c1.907-1.181,2.5-3.686,1.317-5.594
		c-1.18-1.91-3.679-2.501-5.594-1.321C888.244,655.058,887.653,657.563,888.836,659.473z"/>
	<path fill="#C9CACA" stroke="#FFFFFF" stroke-width="0.5" stroke-miterlimit="10" d="M889.516,659.053
		c0.945,1.532,2.957,2.013,4.492,1.061c1.533-0.946,2.006-2.959,1.059-4.492c-0.946-1.533-2.958-2.008-4.49-1.063
		C889.042,655.509,888.564,657.518,889.516,659.053z"/>
	<path fill="#E0741F" d="M884.931,664.187c0,0-1.227-4.019-4.002-2.303c-2.776,1.717-2.988,2.396-1.972,4.036
		C879.971,667.563,882.609,665.621,884.931,664.187z"/>
	<path fill="#E0741F" d="M936.227,631.365c0,0-2.889,1.787-3.398,2.103c-0.512,0.313-0.983-0.959-1.551-0.609
		c-0.565,0.351-0.221,3.19,0.74,2.596c0.965-0.597,4.875-3.011,4.875-3.011L936.227,631.365z"/>
	<g>
		
			<rect x="910.295" y="637.896" transform="matrix(-0.5256 -0.8507 0.8507 -0.5256 854.4271 1752.8225)" fill="#E0741F" width="11.261" height="0.576"/>
	</g>
	<g>
		<path fill="#E0741F" d="M903.104,652.788c-2.163-0.605-7.529-5.13-7.767-5.332l-0.128-0.107l0.525-3.096l0.57,0.096l-0.471,2.771
			c1.766,1.485,6.202,4.993,7.63,5.157l-0.061,0.571C903.316,652.841,903.214,652.82,903.104,652.788z"/>
	</g>
	<polygon fill="#E2E3E3" points="901.695,634.535 908.688,636.476 905.177,638.646 900.335,635.375 	"/>
	<path fill="#E2E3E3" d="M892.311,641.271c0.238-1.006,7.346-5.479,7.346-5.479l4.729,3.346l-8.361,5.162
		C896.022,644.301,894.15,643.11,892.311,641.271z"/>
	<polygon fill="#E2E3E3" points="891.619,641.932 886.977,649.5 894.912,644.599 	"/>
	
		<rect x="897.761" y="644.599" transform="matrix(0.8507 -0.5256 0.5256 0.8507 -204.7184 568.7798)" fill="#E0741F" width="2.538" height="0.434"/>
	<path d="M921.193,639.479c1.549,2.505,4.833,3.279,7.336,1.73c2.499-1.547,3.278-4.829,1.732-7.335
		c-1.547-2.5-4.83-3.279-7.335-1.729C920.425,633.693,919.647,636.976,921.193,639.479z"/>
	<path fill="#DFDFE0" d="M922.271,638.815c1.18,1.905,3.682,2.5,5.592,1.318c1.91-1.18,2.5-3.685,1.324-5.592
		c-1.182-1.909-3.688-2.503-5.597-1.323C921.684,634.398,921.093,636.903,922.271,638.815z"/>
	<path fill="#C9CACA" stroke="#FFFFFF" stroke-width="0.5" stroke-miterlimit="10" d="M922.949,638.396
		c0.947,1.532,2.96,2.008,4.494,1.062c1.535-0.948,2.01-2.962,1.063-4.495c-0.951-1.533-2.961-2.008-4.493-1.059
		C922.48,634.847,922.005,636.859,922.949,638.396z"/>
</g>
<g>
	<g>
		<path fill="#E6C952" d="M731.841,678.702l1.428-6.168l-3.137-14.662l-17.395-4.022l-6.402,6.946c0,0-7.605-1.9-8.568,2.255
			l-1.697-0.391l-1.674,7.242L731.841,678.702z"/>
		
			<rect x="692.101" y="672.687" transform="matrix(0.9743 0.2253 -0.2253 0.9743 170.306 -143.4292)" fill="#885139" width="42.968" height="3.582"/>
		<polygon fill="#F7F1CF" points="730.473,665.776 730.673,664.922 729.15,659.065 726.073,658.351 723.947,664.268 		"/>
		<polygon fill="#F7F1CF" points="723.796,657.826 713.822,655.521 708.516,660.7 721.669,663.74 		"/>
		<path fill="#5E5959" d="M695.66,672.172c-0.856,3.705,1.613,7.438,5.517,8.341c3.905,0.904,7.769-1.364,8.625-5.07
			c0.854-3.704-1.617-7.438-5.523-8.341C700.373,666.196,696.514,668.469,695.66,672.172z"/>
		
			<ellipse transform="matrix(-0.2253 0.9743 -0.9743 -0.2253 1517.5538 141.0307)" fill="#FFFFFF" cx="702.709" cy="673.834" rx="2.891" ry="3.048"/>
		<path fill="#5E5959" d="M700.751,673.351c-0.242,1.037,0.45,2.083,1.547,2.336c1.092,0.253,2.173-0.385,2.413-1.421
			c0.238-1.038-0.452-2.085-1.548-2.336C702.068,671.676,700.988,672.313,700.751,673.351z"/>
		
			<ellipse transform="matrix(-0.2252 0.9743 -0.9743 -0.2252 1546.8267 126.9471)" fill="#5E5959" cx="722.938" cy="678.509" rx="6.884" ry="7.258"/>
		
			<ellipse transform="matrix(-0.2255 0.9742 -0.9742 -0.2255 1546.9137 127.0948)" fill="#FFFFFF" cx="722.938" cy="678.427" rx="2.893" ry="3.049"/>
		<path fill="#5E5959" d="M720.973,678.026c-0.242,1.035,0.453,2.084,1.544,2.336c1.094,0.251,2.178-0.385,2.415-1.42
			c0.24-1.038-0.45-2.083-1.541-2.336C722.292,676.353,721.212,676.989,720.973,678.026z"/>
	</g>
</g>
<linearGradient id="SVGID_3_" gradientUnits="userSpaceOnUse" x1="745.6125" y1="737.8564" x2="745.6125" y2="688.6071" gradientTransform="matrix(1 0 0 -1 -0.02 1047.915)">
	<stop  offset="0" style="stop-color:#54C3F1"/>
	<stop  offset="1" style="stop-color:#FFFFFF;stop-opacity:0"/>
</linearGradient>
<path fill="url(#SVGID_3_)" d="M725.539,340.74c0,0-11.558-2.761-4.169-11.693c0,0-2.649-10.719,10.61-11.042
	c0,0,2.273-7.958,12.125-6.982c0,0,8.903,0.975,9.472,6.496c0,0,7.578-1.3,10.039,3.247c0,0,1.327,2.027,1.327,5.075
	c0,0,8.524,2.881,7.199,9.054c0,0-0.377,4.06-5.303,5.846L725.539,340.74L725.539,340.74z"/>
<linearGradient id="SVGID_4_" gradientUnits="userSpaceOnUse" x1="716.3411" y1="742.5068" x2="716.3411" y2="684.8527" gradientTransform="matrix(1 0 0 -1 -0.02 1047.915)">
	<stop  offset="0" style="stop-color:#FFFFFF"/>
	<stop  offset="1" style="stop-color:#FFFFFF;stop-opacity:0"/>
</linearGradient>
<path fill="url(#SVGID_4_)" d="M688.498,359.37c0,0-16.034-3.832-5.781-16.226c0,0-3.683-14.868,14.719-15.32
	c0,0,3.155-11.039,16.821-9.688c0,0,12.354,1.354,13.143,9.012c0,0,10.512-1.802,13.931,4.507c0,0,1.839,2.813,1.839,7.039
	c0,0,11.825,4,9.987,12.562c0,0-0.522,5.634-7.355,8.113H688.498L688.498,359.37z"/>
<g>
	<g>
		<path fill="#FFFFFF" d="M623.236,344.739c2.408-4.225,8.322-9.666,13.339-9.314c5.02,0.351,55.77,3.901,55.77,3.901l7.785-8.973
			l-0.812-0.057l0.138-1.942l10.117,0.709l-0.126,1.778l-1.873,0.033c0,0,0.912,4.685-0.863,9.537c0,0-1.813,3.939-6.188,7.538
			c-8.391,6.902-13.231,6.231-17.549,5.93c-4.316-0.303-58.062-4.062-58.062-4.062S620.826,348.963,623.236,344.739z"/>
		<path fill="#0095CF" d="M700.13,330.354l-0.812-0.057l0.138-1.942l10.117,0.709l-0.126,1.778l-1.873,0.033
			c0,0,0.9,4.633-0.838,9.457l-14.393-1.006L700.13,330.354z"/>
		<polygon fill="#54C3F1" points="700.13,330.354 699.318,330.297 699.456,328.354 709.573,329.063 709.447,330.842 
			707.574,330.875 		"/>
		<path fill="#0072AE" d="M628.162,338.983l7.519,0.525c1.453,0.103,2.547,1.362,2.447,2.814c-0.103,1.454-1.363,2.549-2.814,2.448
			l-11.6-0.812C624.801,342.283,626.367,340.493,628.162,338.983z"/>
		<circle fill="#A7DCF7" cx="643.947" cy="342.732" r="2.637"/>
		<circle fill="#A7DCF7" cx="653.509" cy="343.4" r="2.637"/>
		<circle fill="#A7DCF7" cx="663.07" cy="344.069" r="2.637"/>
		<circle fill="#A7DCF7" cx="672.633" cy="344.738" r="2.637"/>
		<circle fill="#A7DCF7" cx="682.192" cy="345.407" r="2.636"/>
		<polygon fill="#0095CF" points="673.908,350.562 688.111,359.119 675.891,358.265 657.721,349.429 		"/>
		<path fill="#0072AE" d="M662.464,357.872l-3.239,0.324c0,0-1.43-0.006-1.317-3.411c0.161-2.056,0.799-2.731,1.76-2.901l3.347,1.52
			L662.464,357.872z"/>
		<path fill="#54C3F1" d="M659.667,351.884c0,0,0.956,0.299,1.008,2.744c-0.22,3.159-1.45,3.568-1.45,3.568l13.835-1.384
			l-9.313-4.454L659.667,351.884z"/>
		<circle fill="#0072AE" cx="643.948" cy="342.731" r="2.332"/>
		<circle fill="#0072AE" cx="653.509" cy="343.399" r="2.426"/>
		<circle fill="#0072AE" cx="663.069" cy="344.069" r="2.36"/>
		<circle fill="#0072AE" cx="672.633" cy="344.738" r="2.427"/>
		<circle fill="#0072AE" cx="682.192" cy="345.407" r="2.397"/>
	</g>
	<polygon fill="#A7DCF7" points="657.721,349.429 675.891,358.265 675.975,359.291 659.667,351.884 	"/>
	<polygon fill="#007DBC" points="688.111,359.119 675.975,359.291 675.891,358.265 	"/>
</g>
<g>
	<g>
		<path fill="#FAFCFE" d="M1083.734,546.271c4.34-1.132,8.438-0.439,8.438-0.439s-2.938,2.523-7.278,3.66
			c-4.347,1.133-8.122,1.33-8.44,0.44C1076.13,549.043,1079.391,547.404,1083.734,546.271z"/>
		<path fill="#FAFCFE" d="M1073.427,562.156c-0.552,4.516-2.645,7.795-2.645,7.795s-1.194-4.036-0.645-8.554
			c0.551-4.514,1.729-8.007,2.641-7.799C1073.689,553.807,1073.981,557.64,1073.427,562.156z"/>
		<path fill="#FAFCFE" d="M1065.962,541.436c-3.432-3.476-7.326-5.195-7.326-5.195s1.664,3.919,5.1,7.396
			c3.432,3.475,6.712,5.803,7.329,5.198C1071.673,548.223,1069.392,544.912,1065.962,541.436z"/>
	</g>
	<polygon fill="#FAFCFE" points="1040.056,552.318 1040.107,548.79 1070.302,549.927 1070.279,551.448 	"/>
	<path fill="#FAFCFE" d="M1073.32,554.178c-1.864-0.026-3.36-1.612-3.332-3.547c0.027-1.932,1.57-3.475,3.435-3.446
		c1.869,0.027,3.358,1.613,3.334,3.545C1076.726,552.663,1075.19,554.205,1073.32,554.178z"/>
	<path fill="#38A1DB" d="M1073.346,552.469c-0.951-0.015-1.714-0.826-1.699-1.813c0.014-0.986,0.799-1.777,1.75-1.764
		c0.957,0.015,1.719,0.826,1.704,1.813C1075.087,551.693,1074.302,552.482,1073.346,552.469z"/>
</g>
<g>
	<g>
		<path fill="#FAFCFE" d="M1077.292,610.372c4.995-1.303,9.713-0.507,9.713-0.507s-3.381,2.903-8.379,4.213
			c-5.003,1.304-9.349,1.53-9.716,0.508C1068.537,613.562,1072.292,611.676,1077.292,610.372z"/>
		<path fill="#FAFCFE" d="M1065.428,628.655c-0.635,5.197-3.043,8.973-3.043,8.973s-1.377-4.646-0.742-9.846
			c0.634-5.194,1.992-9.215,3.039-8.977C1065.729,619.045,1066.065,623.457,1065.428,628.655z"/>
		<path fill="#FAFCFE" d="M1056.835,604.806c-3.949-4.001-8.435-5.98-8.435-5.98s1.916,4.511,5.871,8.513
			c3.949,3.998,7.725,6.679,8.437,5.983C1063.407,612.617,1060.782,608.807,1056.835,604.806z"/>
	</g>
	<polygon fill="#FAFCFE" points="1027.016,617.332 1027.075,613.271 1061.829,614.579 1061.805,616.33 	"/>
	<path fill="#FAFCFE" d="M1065.305,619.472c-2.146-0.03-3.869-1.855-3.836-4.082c0.031-2.224,1.809-4,3.953-3.967
		c2.151,0.031,3.865,1.856,3.836,4.08C1069.225,617.729,1067.458,619.504,1065.305,619.472z"/>
	<path fill="#38A1DB" d="M1065.335,617.505c-1.097-0.017-1.974-0.951-1.957-2.086c0.017-1.136,0.92-2.046,2.016-2.029
		c1.102,0.017,1.979,0.951,1.961,2.085C1067.339,616.612,1066.434,617.521,1065.335,617.505z"/>
</g>
<g>
	<polygon fill="#E2D7CE" points="847.824,360.068 857.193,365.302 871.014,357.391 861.697,351.67 	"/>
	<polygon fill="#FDF9ED" points="847.824,360.068 847.824,375.16 865.35,385.09 865.35,373.335 857.438,368.589 857.438,365.302 	
		"/>
	<polygon fill="#A29589" points="865.046,373.151 879.104,365.04 879.204,377.616 865.35,385.627 	"/>
	<polygon fill="#E2D7CE" points="857.438,368.589 871.014,360.798 879.104,365.04 865.046,373.151 	"/>
	<polyline fill="#A89B8F" points="871.014,357.391 871.014,357.391 871.014,360.798 857.434,368.531 857.434,365.04 	"/>
	<polygon fill="#A29589" points="849.055,362.96 850.735,363.905 850.735,365.302 849.055,364.414 	"/>
	<polygon fill="#A29589" points="849.055,364.927 850.735,365.871 850.735,367.269 849.055,366.38 	"/>
	<polygon fill="#A29589" points="849.055,366.893 850.735,367.837 850.735,369.234 849.055,368.347 	"/>
	<polygon fill="#A29589" points="849.055,368.858 850.735,369.805 850.735,371.2 849.055,370.313 	"/>
	<polygon fill="#A29589" points="862.053,373.594 863.73,374.539 863.73,375.937 862.053,375.048 	"/>
	<polygon fill="#A29589" points="862.053,375.561 863.73,376.506 863.73,377.902 862.053,377.015 	"/>
	<polygon fill="#A29589" points="862.053,377.527 863.73,378.472 863.73,379.868 862.053,378.98 	"/>
	<polygon fill="#A29589" points="862.053,379.493 863.73,380.438 863.73,381.834 862.053,380.946 	"/>
	<polygon fill="#A29589" points="859.419,372.112 861.098,373.059 861.098,374.454 859.419,373.566 	"/>
	<polygon fill="#A29589" points="859.419,374.079 861.098,375.024 861.098,376.421 859.419,375.532 	"/>
	<polygon fill="#A29589" points="859.419,376.046 861.098,376.99 861.098,378.387 859.419,377.499 	"/>
	<polygon fill="#A29589" points="859.419,378.012 861.098,378.956 861.098,380.354 859.419,379.465 	"/>
	<polygon fill="#87857F" points="876.232,375.719 877.912,374.773 877.912,373.376 876.232,374.264 	"/>
	<polygon fill="#87857F" points="876.232,373.752 877.912,372.808 877.912,371.41 876.232,372.298 	"/>
	<polygon fill="#87857F" points="876.232,371.786 877.912,370.84 877.912,369.444 876.232,370.332 	"/>
	<polygon fill="#87857F" points="876.232,369.819 877.912,368.874 877.912,367.478 876.232,368.366 	"/>
</g>
<polygon fill="#65AADD" points="922.57,393.022 907.885,385.523 907.885,351.026 919.987,356.641 922.57,354.668 "/>
<polygon fill="#65AADD" points="904.879,381.153 902.296,382.67 895.847,339.661 902.296,342.954 904.879,340.981 "/>
<polygon fill="#9FD9F6" points="919.987,391.704 905.302,384.205 905.302,349.708 919.987,356.641 "/>
<polygon fill="#BAE3F9" points="902.296,382.67 893.264,378.059 893.264,338.343 902.296,342.954 "/>
<polygon fill="#FFFFFF" points="907.826,353.896 907.104,353.527 907.104,352.296 907.826,352.664 "/>
<polygon fill="#FFFFFF" points="907.826,355.807 907.104,355.438 907.104,354.207 907.826,354.575 "/>
<polygon fill="#FFFFFF" points="909.271,354.633 908.55,354.264 908.55,353.032 909.271,353.401 "/>
<polygon fill="#FFFFFF" points="909.271,356.544 908.55,356.175 908.55,354.943 909.271,355.313 "/>
<polygon fill="#FFFFFF" points="907.826,358.197 907.104,357.829 907.104,356.598 907.826,356.966 "/>
<polygon fill="#FFFFFF" points="909.271,358.935 908.55,358.565 908.55,357.334 909.271,357.703 "/>
<polygon fill="#FFFFFF" points="911.202,355.62 910.479,355.25 910.479,354.019 911.202,354.389 "/>
<polygon fill="#FFFFFF" points="911.202,357.531 910.479,357.161 910.479,355.93 911.202,356.3 "/>
<polygon fill="#FFFFFF" points="912.644,356.355 911.925,355.987 911.925,354.756 912.644,355.124 "/>
<polygon fill="#FFFFFF" points="912.644,358.267 911.925,357.898 911.925,356.667 912.644,357.035 "/>
<polygon fill="#FFFFFF" points="895.373,342.62 894.651,342.252 894.651,341.021 895.373,341.389 "/>
<polygon fill="#FFFFFF" points="895.373,344.531 894.651,344.163 894.651,342.932 895.373,343.3 "/>
<polygon fill="#FFFFFF" points="896.817,343.356 896.095,342.988 896.095,341.757 896.817,342.125 "/>
<polygon fill="#FFFFFF" points="896.817,345.268 896.095,344.899 896.095,343.668 896.817,344.036 "/>
<polygon fill="#FFFFFF" points="895.373,346.921 894.651,346.553 894.651,345.322 895.373,345.69 "/>
<polygon fill="#FFFFFF" points="895.373,348.832 894.651,348.464 894.651,347.232 895.373,347.601 "/>
<polygon fill="#FFFFFF" points="896.817,347.657 896.095,347.289 896.095,346.059 896.817,346.427 "/>
<polygon fill="#FFFFFF" points="896.817,349.568 896.095,349.2 896.095,347.969 896.817,348.337 "/>
<polygon fill="#FFFFFF" points="898.749,344.344 898.027,343.976 898.027,342.744 898.749,343.112 "/>
<polygon fill="#FFFFFF" points="898.749,346.255 898.027,345.887 898.027,344.655 898.749,345.023 "/>
<polygon fill="#FFFFFF" points="900.192,345.081 899.471,344.712 899.471,343.48 900.192,343.85 "/>
<polygon fill="#FFFFFF" points="900.192,346.992 899.471,346.623 899.471,345.392 900.192,345.761 "/>
<polygon fill="#FFFFFF" points="895.373,354.175 894.651,353.807 894.651,352.575 895.373,352.943 "/>
<polygon fill="#FFFFFF" points="895.373,356.086 894.651,355.718 894.651,354.486 895.373,354.854 "/>
<polygon fill="#FFFFFF" points="896.817,354.911 896.095,354.543 896.095,353.312 896.817,353.68 "/>
<polygon fill="#FFFFFF" points="896.817,356.822 896.095,356.454 896.095,355.223 896.817,355.591 "/>
<polygon fill="#FFFFFF" points="898.749,355.898 898.027,355.53 898.027,354.299 898.749,354.667 "/>
<polygon fill="#FFFFFF" points="898.749,357.81 898.027,357.441 898.027,356.21 898.749,356.578 "/>
<polygon fill="#FFFFFF" points="900.192,356.636 899.471,356.267 899.471,355.035 900.192,355.404 "/>
<polygon fill="#FFFFFF" points="900.192,358.547 899.471,358.178 899.471,356.946 900.192,357.315 "/>
<polygon fill="#FFFFFF" points="895.373,358.007 894.651,357.639 894.651,356.407 895.373,356.775 "/>
<polygon fill="#FFFFFF" points="895.373,359.918 894.651,359.55 894.651,358.318 895.373,358.687 "/>
<polygon fill="#FFFFFF" points="896.817,358.743 896.095,358.375 896.095,357.144 896.817,357.512 "/>
<polygon fill="#FFFFFF" points="896.817,360.654 896.095,360.286 896.095,359.055 896.817,359.423 "/>
<polygon fill="#FFFFFF" points="898.749,359.73 898.027,359.362 898.027,358.131 898.749,358.499 "/>
<polygon fill="#FFFFFF" points="898.749,361.642 898.027,361.273 898.027,360.042 898.749,360.41 "/>
<polygon fill="#FFFFFF" points="900.192,360.468 899.471,360.099 899.471,358.867 900.192,359.236 "/>
<polygon fill="#FFFFFF" points="900.192,362.379 899.471,362.01 899.471,360.778 900.192,361.147 "/>
<polygon fill="#FFFFFF" points="914.577,357.342 913.854,356.974 913.854,355.742 914.577,356.11 "/>
<polygon fill="#FFFFFF" points="914.577,359.253 913.854,358.885 913.854,357.653 914.577,358.021 "/>
<polygon fill="#FFFFFF" points="916.02,358.079 915.3,357.711 915.3,356.479 916.02,356.848 "/>
<polygon fill="#FFFFFF" points="916.02,359.99 915.3,359.622 915.3,358.391 916.02,358.759 "/>
<polygon fill="#FDF9ED" points="893.264,338.343 902.296,342.954 904.879,340.981 896.095,336.816 "/>
<polygon fill="#BAE3F9" points="905.302,349.708 919.987,356.683 922.9,354.44 908.405,348.169 "/>
<polygon fill="#65AADD" points="953.499,408.814 939.632,401.733 939.632,380.747 950.917,386.511 953.499,384.538 "/>
<polygon fill="#187FC4" points="935.402,399.574 924.953,394.24 924.953,340.325 932.804,343.768 935.402,341.802 "/>
<polygon fill="#9D8C75" points="942.745,403.324 933.716,398.713 933.716,360.711 940.163,363.438 942.745,361.466 "/>
<polygon fill="#187FC4" points="960.237,410.84 957.655,412.127 948.642,394.438 957.655,399.04 960.237,397.067 "/>
<polygon fill="#9FD9F6" points="950.917,407.497 937.05,400.415 937.05,379.429 950.917,386.511 "/>
<polygon fill="#54C3F1" points="932.819,398.256 922.37,392.92 922.37,339.005 932.819,343.774 "/>
<polygon fill="#DDB188" points="940.163,402.006 931.133,397.395 931.133,359.393 940.163,363.438 "/>
<polygon fill="#54C3F1" points="957.655,412.127 946.06,406.207 946.06,393.12 957.655,399.04 "/>
<polygon fill="#FFFFFF" points="924.729,342.856 924.009,342.487 924.009,341.256 924.729,341.625 "/>
<polygon fill="#FFFFFF" points="924.729,344.769 924.009,344.399 924.009,343.167 924.729,343.536 "/>
<polygon fill="#FFFFFF" points="924.729,346.679 924.009,346.31 924.009,345.078 924.729,345.447 "/>
<polygon fill="#FFFFFF" points="924.729,348.589 924.009,348.22 924.009,346.988 924.729,347.357 "/>
<polygon fill="#FFFFFF" points="924.729,350.5 924.009,350.131 924.009,348.899 924.729,349.269 "/>
<polygon fill="#FFFFFF" points="926.175,343.594 925.451,343.225 925.451,341.993 926.175,342.362 "/>
<polygon fill="#FFFFFF" points="926.175,345.506 925.451,345.137 925.451,343.904 926.175,344.273 "/>
<polygon fill="#FFFFFF" points="928.042,344.547 927.319,344.178 927.319,342.946 928.042,343.315 "/>
<polygon fill="#FFFFFF" points="928.042,346.459 927.319,346.09 927.319,344.857 928.042,345.227 "/>
<polygon fill="#FFFFFF" points="929.485,345.284 928.763,344.915 928.763,343.684 929.485,344.053 "/>
<polygon fill="#FFFFFF" points="929.485,347.196 928.763,346.827 928.763,345.595 929.485,345.964 "/>
<polygon fill="#FFFFFF" points="937.409,365.072 936.688,364.703 936.688,363.472 937.409,363.841 "/>
<polygon fill="#FFFFFF" points="937.409,366.982 936.688,366.613 936.688,365.383 937.409,365.752 "/>
<polygon fill="#FFFFFF" points="938.853,365.809 938.132,365.44 938.132,364.209 938.853,364.577 "/>
<polygon fill="#FFFFFF" points="938.853,367.719 938.132,367.351 938.132,366.12 938.853,366.488 "/>
<polygon fill="#FFFFFF" points="937.409,369.58 936.688,369.211 936.688,367.979 937.409,368.349 "/>
<polygon fill="#FFFFFF" points="937.409,371.492 936.688,371.123 936.688,369.891 937.409,370.26 "/>
<polygon fill="#FFFFFF" points="938.853,370.316 938.132,369.948 938.132,368.717 938.853,369.085 "/>
<polygon fill="#FFFFFF" points="938.853,372.229 938.132,371.86 938.132,370.628 938.853,370.996 "/>
<polygon fill="#FFFFFF" points="937.409,374.586 936.688,374.217 936.688,372.985 937.409,373.354 "/>
<polygon fill="#FFFFFF" points="937.409,376.498 936.688,376.129 936.688,374.896 937.409,375.266 "/>
<polygon fill="#FFFFFF" points="938.853,375.322 938.132,374.954 938.132,373.723 938.853,374.091 "/>
<polygon fill="#FFFFFF" points="938.853,377.234 938.132,376.866 938.132,375.634 938.853,376.002 "/>
<polygon fill="#FFFFFF" points="937.409,379.592 936.688,379.223 936.688,377.991 937.409,378.36 "/>
<polygon fill="#FFFFFF" points="937.409,381.504 936.688,381.135 936.688,379.902 937.409,380.271 "/>
<polygon fill="#FFFFFF" points="938.853,380.328 938.132,379.96 938.132,378.729 938.853,379.097 "/>
<polygon fill="#FFFFFF" points="938.853,382.24 938.132,381.872 938.132,380.64 938.853,381.008 "/>
<polygon fill="#FFFFFF" points="937.409,384.598 936.688,384.229 936.688,382.997 937.409,383.366 "/>
<polygon fill="#FFFFFF" points="937.409,386.51 936.688,386.141 936.688,384.908 937.409,385.277 "/>
<polygon fill="#FFFFFF" points="938.853,385.334 938.132,384.966 938.132,383.734 938.853,384.103 "/>
<polygon fill="#FFFFFF" points="938.853,387.246 938.132,386.878 938.132,385.646 938.853,386.014 "/>
<polygon fill="#FFFFFF" points="941.329,384.742 940.606,384.374 940.606,383.142 941.329,383.51 "/>
<polygon fill="#FFFFFF" points="941.329,386.652 940.606,386.284 940.606,385.053 941.329,385.421 "/>
<polygon fill="#FFFFFF" points="942.772,385.48 942.052,385.111 942.052,383.879 942.772,384.248 "/>
<polygon fill="#FFFFFF" points="942.772,387.391 942.052,387.021 942.052,385.79 942.772,386.159 "/>
<polygon fill="#FFFFFF" points="944.704,386.466 943.982,386.098 943.982,384.865 944.704,385.233 "/>
<polygon fill="#FFFFFF" points="944.704,388.376 943.982,388.008 943.982,386.776 944.704,387.145 "/>
<polygon fill="#FFFFFF" points="946.147,387.203 945.427,386.834 945.427,385.602 946.147,385.971 "/>
<polygon fill="#FFFFFF" points="946.147,389.113 945.427,388.744 945.427,387.513 946.147,387.882 "/>
<polygon fill="#FFFFFF" points="948.079,388.189 947.357,387.82 947.357,386.588 948.079,386.957 "/>
<polygon fill="#FFFFFF" points="948.079,390.1 947.357,389.73 947.357,388.499 948.079,388.868 "/>
<polygon fill="#FFFFFF" points="949.523,388.927 948.802,388.559 948.802,387.326 949.523,387.694 "/>
<polygon fill="#FFFFFF" points="949.523,390.837 948.802,390.469 948.802,389.237 949.523,389.605 "/>
<polygon fill="#FFFFFF" points="926.175,347.416 925.451,347.047 925.451,345.815 926.175,346.185 "/>
<polygon fill="#FFFFFF" points="926.175,349.326 925.451,348.957 925.451,347.726 926.175,348.095 "/>
<polygon fill="#FFFFFF" points="926.175,351.237 925.451,350.868 925.451,349.637 926.175,350.006 "/>
<polygon fill="#FFFFFF" points="951.638,398.71 950.917,398.342 950.917,397.111 951.638,397.479 "/>
<polygon fill="#FFFFFF" points="951.638,400.621 950.917,400.253 950.917,399.021 951.638,399.39 "/>
<polygon fill="#FFFFFF" points="951.638,402.532 950.917,402.164 950.917,400.933 951.638,401.301 "/>
<polygon fill="#FFFFFF" points="951.638,402.46 950.917,402.092 950.917,400.861 951.638,401.229 "/>
<polygon fill="#FFFFFF" points="953.083,399.447 952.361,399.079 952.361,397.849 953.083,398.217 "/>
<polygon fill="#FFFFFF" points="953.083,401.358 952.361,400.99 952.361,399.759 953.083,400.127 "/>
<polygon fill="#FFFFFF" points="954.952,400.401 954.229,400.032 954.229,398.802 954.952,399.171 "/>
<polygon fill="#FFFFFF" points="954.952,402.313 954.229,401.943 954.229,400.712 954.952,401.081 "/>
<polygon fill="#FFFFFF" points="956.395,401.139 955.675,400.77 955.675,399.539 956.395,399.908 "/>
<polygon fill="#FFFFFF" points="956.395,403.05 955.675,402.681 955.675,401.449 956.395,401.818 "/>
<polygon fill="#FFFFFF" points="953.083,403.27 952.361,402.901 952.361,401.67 953.083,402.038 "/>
<polygon fill="#FFFFFF" points="953.083,403.197 952.361,402.829 952.361,401.599 953.083,401.967 "/>
<polygon fill="#187FC4" points="928.673,396.565 926.739,397.336 914.295,369.802 926.739,376.158 928.673,373.853 "/>
<g>
	<polygon fill="#BAE3F9" points="926.739,397.336 912.36,389.993 912.36,368.815 926.739,376.158 	"/>
	<polygon fill="#FFFFFF" points="915.015,373.256 914.294,372.887 914.294,371.655 915.015,372.024 	"/>
	<polygon fill="#FFFFFF" points="915.015,375.167 914.294,374.798 914.294,373.566 915.015,373.936 	"/>
	<polygon fill="#FFFFFF" points="916.458,373.992 915.736,373.624 915.736,372.393 916.458,372.761 	"/>
	<polygon fill="#FFFFFF" points="916.458,375.903 915.736,375.535 915.736,374.304 916.458,374.672 	"/>
	<polygon fill="#FFFFFF" points="915.015,377.319 914.294,376.95 914.294,375.719 915.015,376.088 	"/>
	<polygon fill="#FFFFFF" points="915.015,379.23 914.294,378.861 914.294,377.63 915.015,377.999 	"/>
	<polygon fill="#FFFFFF" points="916.458,378.056 915.736,377.688 915.736,376.456 916.458,376.824 	"/>
	<polygon fill="#FFFFFF" points="916.458,379.967 915.736,379.599 915.736,378.367 916.458,378.735 	"/>
	<polygon fill="#FFFFFF" points="915.015,381.383 914.294,381.014 914.294,379.782 915.015,380.151 	"/>
	<polygon fill="#FFFFFF" points="915.015,383.294 914.294,382.925 914.294,381.693 915.015,382.063 	"/>
	<polygon fill="#FFFFFF" points="916.458,382.119 915.736,381.751 915.736,380.52 916.458,380.888 	"/>
	<polygon fill="#FFFFFF" points="916.458,384.03 915.736,383.662 915.736,382.431 916.458,382.799 	"/>
</g>
<polygon fill="#9FD9F6" points="922.37,338.982 932.804,343.768 935.402,341.802 925.201,337.456 "/>
<polygon fill="#E8CBAF" points="931.133,359.393 940.163,363.438 942.745,361.466 933.716,357.873 "/>
<polygon fill="#BAE3F9" points="940.163,381.055 950.917,386.511 953.499,384.538 942.745,379.535 "/>
<polygon fill="#9FD9F6" points="946.06,393.12 957.655,399.04 960.237,397.067 948.642,391.601 "/>
<polygon fill="#FDF9ED" points="912.361,368.824 926.739,376.158 928.673,373.853 915.192,367.298 "/>
<g>
	<polygon fill="#BD7132" points="973.557,423.858 971.352,422.777 971.352,412.43 973.557,412.43 	"/>
	<polygon fill="#E09C2E" points="973.557,423.858 975.365,422.994 975.365,412.43 973.557,412.43 	"/>
	<polygon fill="#3D8339" points="965.326,408.164 969.38,405.989 973.263,405.122 981.76,408.378 973.042,412.645 965.009,409.356 	
		"/>
	<polygon fill="#AACF52" points="973.042,416.482 973.042,411.9 965.326,408.164 963.045,412.217 	"/>
	<polygon fill="#699D33" points="984.164,412.217 981.76,408.378 973.042,411.9 973.042,416.482 	"/>
	<polygon fill="#3D8339" points="967.316,403.049 971.005,401.29 973.263,400.106 979.8,403.213 973.871,407.786 969.558,406.208 	
		"/>
	<polygon fill="#AACF52" points="973.177,409.366 973.177,405.887 967.316,403.049 965.586,406.128 	"/>
	<polygon fill="#699D33" points="981.623,406.128 979.8,403.213 973.177,405.887 973.177,409.366 	"/>
	<polygon fill="#AACF52" points="973.263,390.641 967.217,401.386 973.263,403.965 	"/>
	<polygon fill="#699D33" points="973.263,403.965 973.263,390.641 979.991,401.386 	"/>
</g>
<g>
	<g>
		<polygon fill="#FFE9AC" points="971.329,430.755 971.329,417.151 989.74,428.595 989.74,442.021 		"/>
		<polygon fill="#E9CC76" points="989.74,442.021 1008.713,433.252 1008.713,422.122 999.573,411.931 989.74,428.595 		"/>
		<path fill="#CA8348" d="M981.721,400.726l-12.904,17.296l18.621,10.688c0,0,1.098,0.831,2.303,0.501
			c1.209-0.328,2.428-1.919,2.428-1.919l7.405-13.571l7.55,8.398c0,0,0.404,0.583,1.59,0.354c1.183-0.228,1.74-0.661,1.74-0.661
			l-10.766-13.298L981.721,400.726z"/>
		<path fill="#885139" d="M989.74,429.211c1.209-0.328,2.427-1.919,2.427-1.919l7.406-13.571l7.55,8.398c0,0,0.404,0.583,1.59,0.354
			c1.183-0.228,1.74-0.661,1.74-0.661l-10.766-13.298l-11.771,20.459C988.349,429.187,989.007,429.414,989.74,429.211z"/>
		<polygon fill="#7B452E" points="974.675,427.5 973.604,426.932 973.604,424.414 974.675,424.982 		"/>
		<polygon fill="#7B452E" points="978.28,429.873 977.21,429.305 977.21,426.787 978.28,427.355 		"/>
		<polygon fill="#7B452E" points="1000.901,429.107 998.757,430.1 998.757,437.854 1000.901,436.863 		"/>
	</g>
</g>
<g>
	<polygon fill="#BD7132" points="995.563,466.733 993.358,465.652 993.358,455.305 995.563,455.305 	"/>
	<polygon fill="#E09C2E" points="995.563,466.733 997.372,465.869 997.372,455.305 995.563,455.305 	"/>
	<polygon fill="#3D8339" points="987.333,451.039 991.386,448.864 995.27,447.997 1003.766,451.253 995.05,455.52 987.015,452.231 	
		"/>
	<polygon fill="#AACF52" points="995.05,459.357 995.05,454.775 987.333,451.039 985.052,455.092 	"/>
	<polygon fill="#699D33" points="1006.173,455.092 1003.766,451.253 995.05,454.775 995.05,459.357 	"/>
	<polygon fill="#3D8339" points="989.323,445.924 993.011,444.165 995.27,442.981 1001.805,446.088 995.879,450.661 
		991.564,449.083 	"/>
	<polygon fill="#AACF52" points="995.183,452.241 995.183,448.762 989.323,445.924 987.593,449.003 	"/>
	<polygon fill="#699D33" points="1003.632,449.003 1001.805,446.088 995.183,448.762 995.183,452.241 	"/>
	<polygon fill="#AACF52" points="995.27,433.516 989.223,444.261 995.27,446.84 	"/>
	<polygon fill="#699D33" points="995.27,446.84 995.27,433.516 1001.998,444.261 	"/>
</g>
<g>
	<polygon fill="#BD7132" points="1019.339,463.013 1015.484,461.124 1015.484,443.043 1019.339,443.043 	"/>
	<polygon fill="#E09C2E" points="1019.339,463.013 1022.498,461.502 1022.498,443.043 1019.339,443.043 	"/>
	<polygon fill="#3D8339" points="1004.957,435.59 1012.039,431.79 1018.824,430.274 1033.671,435.964 1018.436,443.419 
		1004.4,437.674 	"/>
	<polygon fill="#AACF52" points="1018.436,450.124 1018.436,442.117 1004.957,435.59 1000.969,442.672 	"/>
	<polygon fill="#699D33" points="1037.871,442.672 1033.671,435.964 1018.436,442.117 1018.436,450.124 	"/>
	<polygon fill="#3D8339" points="1008.436,426.652 1014.876,423.58 1018.824,421.511 1030.243,426.938 1019.887,434.93 
		1012.35,432.172 	"/>
	<polygon fill="#AACF52" points="1018.675,437.691 1018.675,431.611 1008.436,426.652 1005.408,432.032 	"/>
	<polygon fill="#699D33" points="1033.432,432.032 1030.243,426.938 1018.675,431.611 1018.675,437.691 	"/>
	<polygon fill="#AACF52" points="1018.824,404.972 1008.26,423.746 1018.824,428.253 	"/>
	<polygon fill="#699D33" points="1018.824,428.253 1018.824,404.972 1030.58,423.746 	"/>
</g>
<g>
	<polygon fill="#BD7132" points="1031.958,553.864 1032.785,552.173 1040.723,552.173 1040.723,553.864 	"/>
	<polygon fill="#925F25" points="1031.958,553.864 1032.619,555.251 1040.723,555.251 1040.723,553.864 	"/>
	<polygon fill="#3D8339" points="1043.995,547.552 1045.662,550.661 1046.328,553.639 1043.831,560.155 1040.559,553.468 
		1043.08,547.307 	"/>
	<polygon fill="#58A135" points="1037.615,553.468 1041.13,553.468 1043.995,547.552 1040.885,545.801 	"/>
	<polygon fill="#007440" points="1040.885,562 1043.831,560.155 1041.13,553.468 1037.615,553.468 	"/>
	<polygon fill="#3D8339" points="1047.919,549.078 1049.267,551.905 1050.176,553.639 1047.792,558.651 1044.285,554.104 
		1045.495,550.796 	"/>
	<polygon fill="#58A135" points="1043.071,553.572 1045.74,553.572 1047.919,549.078 1045.556,547.75 	"/>
	<polygon fill="#007440" points="1045.556,560.051 1047.792,558.651 1045.74,553.572 1043.071,553.572 	"/>
	<polygon fill="#58A135" points="1057.436,553.639 1049.193,549.001 1047.216,553.639 	"/>
	<polygon fill="#007440" points="1047.216,553.639 1057.436,553.639 1049.193,558.8 	"/>
</g>
<g>
	<polygon fill="#BD7132" points="1028.119,567.141 1028.837,565.676 1035.714,565.676 1035.714,567.141 	"/>
	<polygon fill="#925F25" points="1028.119,567.141 1028.693,568.343 1035.714,568.343 1035.714,567.141 	"/>
	<polygon fill="#3D8339" points="1038.55,561.672 1039.992,564.366 1040.569,566.945 1038.406,572.591 1035.57,566.798 
		1037.757,561.46 	"/>
	<polygon fill="#58A135" points="1033.021,566.798 1036.064,566.798 1038.55,561.672 1035.854,560.155 	"/>
	<polygon fill="#007440" points="1035.854,574.189 1038.406,572.591 1036.064,566.798 1033.021,566.798 	"/>
	<polygon fill="#3D8339" points="1041.947,562.995 1043.115,565.444 1043.902,566.945 1041.839,571.288 1038.8,567.35 
		1039.848,564.482 	"/>
	<polygon fill="#58A135" points="1037.749,566.888 1040.061,566.888 1041.947,562.995 1039.9,561.844 	"/>
	<polygon fill="#007440" points="1039.9,572.501 1041.839,571.288 1040.061,566.888 1037.749,566.888 	"/>
	<polygon fill="#58A135" points="1050.192,566.945 1043.052,562.928 1041.339,566.945 	"/>
	<polygon fill="#007440" points="1041.339,566.945 1050.192,566.945 1043.052,571.417 	"/>
</g>
</svg>
