<?xml version="1.0" ?><!DOCTYPE svg  PUBLIC '-//W3C//DTD SVG 1.1//EN'  'http://www.w3.org/Graphics/SVG/1.1/DTD/svg11.dtd'><svg enable-background="new 0 0 256 256" id="Layer_1" version="1.1" viewBox="0 0 256 256" xml:space="preserve" xmlns="http://www.w3.org/2000/svg" xmlns:xlink="http://www.w3.org/1999/xlink"><g><circle cx="128" cy="128" fill="#6DB8DE" r="127"/><g><polygon fill="#F2CD56" points="81.2,107.1 74.1,111.5 82.4,164.6 106.1,164.6 114.4,111.3 112.7,109.6 111.1,108.9 101.1,112.6     95.6,115 90.5,112.6   "/><rect fill="#EB9C79" height="16.2" width="23.1" x="83.2" y="97.6"/><polygon fill="#E65336" points="105.2,153.3 94.8,162.5 84.8,153.3 91.8,124.9 98.2,124.9   "/><polygon fill="#BF4028" points="98.1,124.9 102.7,120.2 95.7,113.2 94.2,113.2 87.2,120.2 91.8,124.9   "/><g><path d="M150.4,164.6c-1.6-14.5-4.2-32.9-8.2-38.9c-0.1-0.1-0.2-0.2-0.3-0.4c-4.7-7.1-15.5-12.8-29.3-15.7     l-10.7,54.9H150.4z" fill="#EDF0F2"/><path d="M87.9,164.6l-10.7-54.9c-13.8,2.9-24.6,8.6-29.3,15.7c-0.1,0.1-0.2,0.2-0.3,0.4c-4,6-6.7,24.4-8.2,38.9     H87.9z" fill="#EDF0F2"/></g><polygon fill="#BC9935" points="83.4,103.3 95.2,113.7 87.1,125.2 78.8,108.9   "/><polygon fill="#BC9935" points="106.5,103.3 94.7,113.7 102.8,125.2 111.1,108.9   "/><g><ellipse cx="72" cy="80.3" fill="#EB9C79" rx="3.8" ry="6.8" transform="matrix(0.9616 -0.2744 0.2744 0.9616 -19.2788 22.8413)"/><ellipse cx="117.9" cy="80.3" fill="#EB9C79" rx="3.8" ry="6.8" transform="matrix(-0.9616 -0.2744 0.2744 -0.9616 209.136 189.9326)"/></g><ellipse cx="94.9" cy="77.9" fill="#FBBEA3" rx="22.6" ry="25.6"/><path d="M68.7,72.8c-1-3,0.2-6.3,1.3-9.2c1.4-3.5,2.7-7.1,4.9-10.1c2.8-3.9,7.1-7,11.9-7.6    c2.2-0.3,4.4-0.1,6.5,0.4c3.5,0.7,6.9,1.9,10.3,3.2c0.9,0.3,1.8,0.6,2.6,1c1.7,0.6,3.5,1.3,5.1,2.3c3,2,5,5.4,6,8.9    c1,3.5,1.2,7.2,1.4,10.8c0,0.4,0,0.9-0.2,1.3c-0.3,0.3-0.7,0.5-1,0.7c-1.1,0.8-1.1,2.4-0.7,3.7c0.4,1.3,0.9,2.7,0.3,4    c-0.5,0.5-1.4,0-1.7-0.6c-0.2-0.7-0.1-1.4,0-2.1c0.1-2.5-1.4-4.8-3.2-6.5s-3.9-3.2-5.4-5.2c-1.5-2-2.3-4.8-1.1-7    c-1,2.8-3.4,4.8-6.1,6c-2.7,1.2-5.6,1.7-8.5,2.3c-4,0.9-7.9,2.2-11.2,4.6c-3.3,2.4-5.8,6.1-6.1,10.1c0-2.7-0.5-5.5-1.5-8    c-0.3-0.7-0.7-1.5-1.4-1.7c-0.5-0.1-1.2,0-1.6-0.2C69,73.4,68.8,73.1,68.7,72.8z" fill="#9D5C28"/><path d="M72.2,73.3c-0.4-0.6-1-1.1-1.7-1c1,0.7,1.5,1.9,1.7,3.1s0.1,2.4,0.2,3.6c0,0.9,0.1,1.8,0.3,2.7    c0.1,0.6,0.4,1.4,1,1.5c0.1-1,0.3-1.9,0.4-2.9c0.2-1.3,0.3-2.7,0-3.9c-0.2-0.6-0.5-1.1-0.8-1.6C72.9,74.4,72.6,73.8,72.2,73.3z" fill="#9D5C28"/><path d="M117.1,81.7c-0.1,0.1-0.2-0.1-0.3-0.2c-0.4-1-0.4-2-0.5-3.1c0-1.3-0.1-2.6-0.1-3.8c0-0.1,0-0.2,0.1-0.3    c0.1-0.1,0.2-0.2,0.3-0.2c0.4-0.1,0.7-0.3,1.1-0.4c-0.4,1.2-0.5,2.5-0.4,3.7c0.1,1.4,0.5,2.9-0.1,4.1    C117.2,81.6,117.2,81.7,117.1,81.7z" fill="#9D5C28"/><path d="M80.2,107.1c-4.2,8.4,1.9,25.9,9.9,57.6h-4.4l-15.5-29.2l5.4-5.4l-7-2.2c0,0,2-11.1,8.6-18.3L80.2,107.1z" fill="#527F99"/><path d="M109.7,107.1c4.2,8.4-1.9,25.9-9.9,57.6h4.4l15.5-29.2l-5.4-5.4l7-2.2c0,0-2-11.1-8.6-18.3L109.7,107.1z" fill="#527F99"/></g><polygon fill="#F7F8F9" points="163.1,133.8 157,137.5 164,182.3 184,182.3 191,137.3 189.6,135.9 188.3,135.2 179.8,138.4    175.2,140.4 170.9,138.4  "/><rect fill="#EB9C79" height="13.7" width="19.5" x="164.8" y="125.7"/><polygon fill="#2E4555" points="183.2,172.7 174.5,180.5 166.1,172.7 172,148.7 177.4,148.7  "/><polygon fill="#2E4555" points="177.3,148.7 181.2,144.8 175.3,138.9 174,138.9 168.1,144.8 172,148.7  "/><g><path d="M221.4,182.2c-1.3-12.2-3.6-27.8-6.9-32.8c-0.1-0.1-0.2-0.2-0.2-0.3c-4-6-13-10.8-24.7-13.2l-9,46.3H221.4    z" fill="#E65336"/><path d="M168.7,182.2l-9-46.3c-11.6,2.5-20.7,7.3-24.7,13.2c-0.1,0.1-0.2,0.2-0.2,0.3c-3.3,5-5.6,20.5-6.9,32.8    H168.7z" fill="#E65336"/></g><polygon fill="#BCBFC2" points="164.9,130.5 174.8,139.3 168,149 161,135.2  "/><polygon fill="#BCBFC2" points="184.3,130.5 174.4,139.3 181.2,149 188.3,135.2  "/><g><ellipse cx="155.3" cy="111.2" fill="#EB9C79" rx="3.2" ry="5.7" transform="matrix(0.9616 -0.2744 0.2744 0.9616 -24.5473 46.872)"/><ellipse cx="193.9" cy="111.2" fill="#EB9C79" rx="3.2" ry="5.7" transform="matrix(-0.9616 -0.2744 0.2744 -0.9616 349.9234 271.3236)"/></g><ellipse cx="174.6" cy="109.1" fill="#FBBEA3" rx="19" ry="21.6"/><path d="M152.5,104.8c-0.8-2.5,0.2-5.3,1.1-7.8c1.1-3,2.3-5.9,4.2-8.5c2.4-3.3,6-5.9,10.1-6.4   c1.8-0.2,3.7-0.1,5.5,0.3c3,0.6,5.9,1.6,8.7,2.7c0.7,0.3,1.5,0.5,2.2,0.8c1.5,0.5,3,1.1,4.3,1.9c2.6,1.7,4.2,4.5,5,7.5   c0.9,3,1,6.1,1.1,9.1c0,0.4,0,0.8-0.2,1.1c-0.2,0.3-0.6,0.4-0.9,0.6c-0.9,0.6-0.9,2.1-0.6,3.2c0.3,1.1,0.7,2.3,0.2,3.3   c-0.4,0.4-1.2,0-1.4-0.5s-0.1-1.2,0-1.8c0.1-2.1-1.2-4-2.7-5.5c-1.5-1.5-3.3-2.7-4.6-4.4s-1.9-4.1-0.9-5.9c-0.8,2.3-2.9,4-5.2,5   c-2.3,1-4.7,1.4-7.2,1.9c-3.3,0.8-6.7,1.8-9.4,3.9s-4.9,5.1-5.1,8.5c0-2.3-0.4-4.6-1.2-6.8c-0.2-0.6-0.6-1.2-1.2-1.4   c-0.4-0.1-1,0-1.4-0.2C152.7,105.4,152.6,105.1,152.5,104.8z" fill="#83461E"/><path d="M155.4,105.3c-0.4-0.5-0.9-1-1.4-0.9c0.8,0.6,1.3,1.6,1.5,2.6c0.2,1,0.1,2,0.1,3.1c0,0.8,0.1,1.5,0.2,2.3   c0.1,0.5,0.3,1.2,0.9,1.3c0.1-0.8,0.2-1.6,0.3-2.4c0.1-1.1,0.3-2.2,0-3.3c-0.1-0.5-0.4-0.9-0.6-1.3   C156.1,106.1,155.8,105.7,155.4,105.3z" fill="#9D5C28"/><path d="M193.3,112.4c-0.1,0-0.2-0.1-0.2-0.2c-0.3-0.8-0.4-1.7-0.4-2.6c0-1.1-0.1-2.2-0.1-3.2c0-0.1,0-0.2,0-0.3   c0.1-0.1,0.2-0.1,0.3-0.2c0.3-0.1,0.6-0.2,0.9-0.3c-0.3,1-0.4,2.1-0.3,3.1c0.1,1.2,0.4,2.4-0.1,3.5   C193.4,112.3,193.4,112.3,193.3,112.4z" fill="#9D5C28"/><path d="M162.2,133.8c-3.6,7,1.6,21.8,8.4,48.6h-3.7l-13.1-24.6l4.6-4.6l-5.9-1.8c0,0,1.7-9.3,7.3-15.5L162.2,133.8   z" fill="#BF4028"/><path d="M187.1,133.8c3.6,7-1.6,21.8-8.4,48.6h3.7l13.1-24.6l-4.6-4.6l5.9-1.8c0,0-1.7-9.3-7.3-15.5L187.1,133.8z" fill="#BF4028"/></g></svg>